# Blender 4.2.1 LTS
# www.blender.org
o Cube
v 0.000356 0.029862 -0.442983
v 0.000356 -0.028156 -0.442983
v 0.007305 0.000886 0.064637
v 0.000355 0.000853 -0.576698
v 0.024416 0.000593 0.080306
v 0.005787 0.000853 -0.439009
v 0.000400 0.061590 0.063868
v -0.006508 0.000886 0.064640
v -0.023315 -0.000177 0.080315
v -0.005077 0.000853 -0.439009
v 0.000400 -0.059817 0.063953
v 0.026971 0.000853 0.124731
v -0.026004 0.000853 0.124731
v 0.042669 0.000853 0.312732
v -0.041499 0.000853 0.312732
v 0.035249 0.000853 0.618627
v -0.034282 0.000853 0.618627
v -0.000340 0.029164 0.623384
v 0.024755 0.000853 0.623384
v -0.024076 0.000853 0.623384
v -0.000340 -0.027458 0.623384
v -0.000340 -0.027458 0.645992
v -0.024076 0.000853 0.645992
v 0.024755 0.000853 0.645992
v -0.000340 0.029164 0.645992
v -0.014936 0.082188 0.080125
v 0.014281 0.082965 0.080112
v 0.013921 -0.083264 0.080511
v -0.014518 -0.084041 0.080505
v 0.013249 0.044726 0.124731
v -0.013695 0.044598 0.124731
v -0.013694 -0.042892 0.124731
v 0.013249 -0.043020 0.124731
v -0.019871 0.049550 0.312732
v 0.018616 0.049748 0.312732
v 0.018616 -0.048042 0.312732
v -0.019871 -0.047844 0.312732
v 0.018863 0.034174 0.618627
v -0.019481 0.034005 0.618627
v -0.019481 -0.032299 0.618627
v 0.018864 -0.032468 0.618627
v 0.051722 0.000494 0.125072
v 0.050585 0.000413 0.105566
v -0.048984 0.000160 0.105099
v -0.053179 0.000493 0.124608
v -0.016050 0.144884 0.102988
v -0.015834 0.141907 0.124034
v 0.014353 0.141901 0.124806
v 0.014607 0.145103 0.103642
v 0.014632 -0.145148 0.104670
v 0.014526 -0.141131 0.125651
v -0.018418 -0.141132 0.125863
v -0.015632 -0.145268 0.104780
vn -0.9907 -0.1359 0.0058
vn 0.9831 -0.1787 -0.0388
vn 0.9907 -0.1360 0.0056
vn 0.0046 0.0094 0.9999
vn -0.0018 0.0069 1.0000
vn -0.0016 0.0070 1.0000
vn 0.0049 0.0094 0.9999
vn -0.9831 -0.1788 -0.0388
vn -0.9907 0.1359 0.0058
vn 0.9907 0.1360 0.0056
vn -0.0115 0.0043 0.9999
vn -0.0118 0.0043 0.9999
vn -0.0000 0.2477 0.9688
vn -0.5865 0.8071 0.0686
vn -0.9980 -0.0000 0.0640
vn -0.2806 0.0001 0.9598
vn 1.0000 -0.0000 -0.0000
vn -0.0000 1.0000 -0.0000
vn -0.5868 -0.8070 0.0670
vn 0.0003 -0.2213 0.9752
vn -0.5451 0.2334 -0.8053
vn -0.5447 0.2335 -0.8055
vn 0.5496 0.2431 -0.7993
vn 0.5497 0.2431 -0.7992
vn -0.7874 -0.0051 -0.6164
vn -0.7874 -0.0056 -0.6164
vn 0.9999 -0.0000 -0.0109
vn 0.6088 0.7933 0.0058
vn 0.5714 0.8178 0.0680
vn 0.9979 -0.0000 0.0652
vn 0.9981 -0.0000 -0.0613
vn 0.6662 0.7439 -0.0536
vn 0.5717 -0.8177 0.0665
vn 0.6088 -0.7933 0.0058
vn 0.2754 -0.0001 0.9613
vn -0.9999 -0.0000 -0.0116
vn -0.6240 -0.7814 0.0055
vn -0.6241 0.7814 0.0055
vn -0.0000 -0.0000 1.0000
vn -0.0000 -1.0000 -0.0000
vn -1.0000 -0.0000 -0.0000
vn -0.9831 0.1788 -0.0388
vn 0.9831 0.1787 -0.0388
vn -0.5585 -0.2442 -0.7927
vn -0.5585 -0.2441 -0.7928
vn 0.7834 -0.0028 -0.6215
vn 0.5558 -0.2495 -0.7930
vn 0.5559 -0.2494 -0.7929
vn -0.6813 0.7299 -0.0552
vn -0.9981 -0.0000 -0.0624
vn 0.6661 -0.7438 -0.0555
vn -0.6813 -0.7299 -0.0552
vn -0.0121 0.0009 0.9999
vn -0.0142 0.0033 0.9999
vn -0.0143 0.0033 0.9999
vn -0.0122 0.0011 0.9999
vn -0.4287 0.1902 -0.8832
vn 0.6608 0.1773 -0.7294
vn 0.5920 0.1004 -0.7996
vn 0.4907 -0.1778 -0.8530
vn -0.4742 -0.1838 -0.8610
vn 0.0133 -0.0802 -0.9967
vn -0.0066 0.0093 0.9999
vn -0.0065 0.0093 0.9999
vn -0.0413 -0.0042 -0.9991
vn -0.6358 -0.0038 -0.7718
vn 0.2129 0.1551 -0.9647
vn 0.7352 0.0931 -0.6715
vn -0.9042 0.4259 -0.0334
vn 0.9019 0.4311 0.0274
vn 0.9019 0.4310 0.0274
vn -0.9078 0.4181 -0.0327
vn 0.9035 -0.4269 0.0386
vn -0.9202 -0.3823 -0.0842
vn -0.8882 -0.4567 -0.0503
vn 0.9034 -0.4271 0.0387
vn 1.0000 0.0009 -0.0009
vn 1.0000 0.0011 -0.0009
vn -0.9936 0.0033 -0.1130
vn -0.9935 0.0035 -0.1134
vt 0.835002 0.786105
vt 0.834951 0.003710
vt 0.740650 0.004905
vt 0.789937 0.792278
vt 0.835002 1.000000
vt 0.880067 0.792278
vt 0.834951 0.003706
vt 0.278653 0.158396
vt 0.259531 0.226353
vt 0.217315 0.225793
vt 0.271315 0.005785
vt 0.929251 0.004772
vt 0.278652 0.294310
vt 0.275329 0.445476
vt 1.172958 0.851083
vt 1.165437 0.821348
vt 1.216938 0.798355
vt 1.216938 0.814209
vt 0.385215 0.784751
vt 0.385215 0.828731
vt 0.350095 0.828731
vt 0.350095 0.784751
vt 1.268439 0.821348
vt 1.260918 0.851083
vt 0.134171 0.498524
vt 0.098653 0.496793
vt 0.097638 0.544418
vt 0.134191 0.543911
vt 0.133876 0.231177
vt 0.095375 0.231702
vt 0.098653 0.456524
vt 0.134171 0.359128
vt 1.221577 0.483117
vt 1.145621 0.483117
vt 1.169814 0.007921
vt 1.221577 0.007921
vt 1.221577 0.775168
vt 1.153422 0.775168
vt 1.273340 0.007921
vt 1.297534 0.483117
vt 1.216938 0.906369
vt 1.165174 0.880914
vt 1.216938 0.890068
vt 1.297226 0.483117
vt 1.273078 0.007921
vt 1.170076 0.007921
vt 1.145929 0.483117
vt 1.268701 0.880915
vt 0.290542 0.831722
vt 0.253668 0.787743
vt 0.290542 0.743762
vt 0.329527 0.787743
vt 0.385215 0.740771
vt 0.350095 0.740771
vt 0.133580 0.100899
vt 0.095871 0.005785
vt 0.133890 0.232375
vt 0.094649 0.232094
vt 0.096042 0.005971
vt 0.133571 0.102106
vt 1.153620 0.775168
vt 1.289732 0.775168
vt 1.289534 0.775168
vt 0.320508 0.294508
vt 0.341824 0.226353
vt 0.380274 0.225795
vt 0.322224 0.445465
vt 0.159426 0.522348
vt 0.133571 0.543353
vt 0.133580 0.499173
vt 0.159293 0.522347
vt 1.140263 0.483117
vt 1.130668 0.775168
vt 1.088812 0.775168
vt 1.080474 0.483117
vt 1.088812 0.775168
vt 1.139656 0.007921
vt 1.080090 0.007921
vt 1.080090 0.007921
vt 0.322491 0.005787
vt 0.320508 0.158198
vt 0.096042 0.544456
vt 0.095871 0.497443
vt 0.159426 0.327130
vt 0.158227 0.232828
vt 0.159293 0.138529
vt 0.158230 0.232828
vt 0.134191 0.360336
vt 0.065959 0.497129
vt 0.064761 0.544024
vt 0.063449 0.544291
vt 0.063119 0.493115
vt 0.064761 0.451890
vt 0.064347 0.232220
vt 0.097639 0.456864
vt 0.065068 0.232218
vt 0.065960 0.451900
vt 0.063449 0.012212
vt 0.063119 0.012209
s 1
f 6/1/1 3/2/1 7/3/1 1/4/1
f 4/5/2 6/1/2 2/6/2
f 10/1/3 1/4/3 7/3/3 8/7/3
f 32/8/4 13/9/5 45/10/6 52/11/7
f 4/5/8 2/6/8 10/1/8
f 6/1/9 2/6/9 11/12/9 3/2/9
f 10/1/10 8/7/10 11/12/10 2/6/10
f 13/9/5 31/13/11 47/14/12 45/10/6
f 18/15/13 39/16/14 17/17/15 20/18/16
f 19/19/17 18/20/18 25/21/18 24/22/17
f 17/17/15 40/23/19 21/24/20 20/18/16
f 26/25/21 46/26/22 49/27/23 27/28/24
f 9/29/25 44/30/26 46/31/22 26/32/21
f 14/33/27 35/34/28 38/35/29 16/36/30
f 12/37/31 30/38/32 35/34/28 14/33/27
f 14/33/27 16/36/30 41/39/33 36/40/34
f 16/41/30 38/42/29 18/15/13 19/43/35
f 15/33/36 37/44/37 40/45/19 17/36/15
f 15/33/36 17/36/15 39/46/14 34/47/38
f 21/24/20 41/48/33 16/41/30 19/43/35
f 25/49/39 23/50/39 22/51/39 24/52/39
f 21/53/40 19/19/17 24/22/17 22/54/40
f 18/20/18 20/19/41 23/22/41 25/21/18
f 20/19/41 21/53/40 22/54/40 23/22/41
f 10/1/42 1/4/42 4/5/42
f 6/1/43 4/5/43 1/4/43
f 29/55/44 53/56/45 44/30/26 9/29/25
f 5/57/46 43/58/46 50/59/47 28/60/48
f 31/61/49 13/37/50 15/33/36 34/47/38
f 33/62/51 12/37/31 14/33/27 36/40/34
f 13/37/50 32/63/52 37/44/37 15/33/36
f 30/64/53 12/65/54 42/66/55 48/67/56
f 26/25/57 27/28/58 7/68/59
f 28/69/60 29/70/61 11/71/62
f 38/42/29 39/16/14 18/15/13
f 40/23/19 41/48/33 21/24/20
f 37/72/37 32/73/52 33/74/51 36/75/34
f 31/73/49 34/72/38 35/75/28 30/76/32
f 34/72/38 39/77/14 38/78/29 35/75/28
f 36/75/34 41/79/33 40/77/19 37/72/37
f 30/64/53 48/67/56 47/14/12 31/13/11
f 32/8/4 52/11/7 51/80/63 33/81/64
f 28/69/48 50/82/47 53/83/45 29/70/44
f 12/65/54 33/81/64 51/80/63 42/66/55
f 7/84/59 8/85/65 9/29/66 26/32/57
f 8/85/65 11/86/62 29/55/61 9/29/66
f 3/87/67 5/57/68 28/60/60 11/86/62
f 7/84/59 27/88/58 5/57/68 3/87/67
f 47/89/69 48/90/70 49/27/71 46/26/72
f 51/91/73 52/92/74 53/83/75 50/82/76
f 48/93/70 42/94/77 43/58/78 49/95/71
f 45/96/79 47/97/69 46/31/72 44/30/80
f 42/94/77 51/98/73 50/59/76 43/58/78
f 52/99/74 45/96/79 44/30/80 53/56/75
f 27/88/24 49/95/23 43/58/46 5/57/46
