# Blender 4.2.1 LTS
# www.blender.org
o Grid
v -0.710718 1.525032 0.945975
v -0.347717 1.522156 0.945398
v -0.001933 1.516508 0.947057
v 0.347717 1.520383 0.947758
v 0.694585 1.525032 0.945975
v -0.697445 1.516221 0.806167
v -0.347718 1.514892 0.805906
v -0.019762 1.514011 0.802109
v 0.347717 1.514090 0.806973
v 0.688343 1.516221 0.645113
v -0.594165 1.529047 0.619622
v -0.422098 1.509873 0.675039
v -0.119029 1.513597 0.627914
v 0.103227 1.518806 0.508875
v 0.641045 1.529047 0.346351
v 0.041577 1.514539 0.204303
v -0.647240 1.521990 0.344830
v 0.658816 1.514184 -0.108458
v -0.695435 1.504576 1.049924
v -0.347717 1.499909 1.048987
v 0.000000 1.494522 1.047905
v 0.347717 1.499909 1.048987
v 0.695435 1.504576 1.049924
v -0.669434 1.565847 1.138928
v -0.347717 1.550303 1.131992
v 0.000000 1.539826 1.128743
v 0.347717 1.550303 1.131992
v 0.695435 1.565847 1.138928
v -0.695435 1.675940 1.165188
v -0.347717 1.642087 1.142377
v 0.000000 1.624407 1.138828
v 0.347717 1.642087 1.142377
v 0.701574 1.675940 1.165188
v -0.677449 1.775729 1.114601
v -0.347717 1.730701 1.103182
v 0.000000 1.708114 1.098189
v 0.347717 1.730701 1.103182
v 0.679612 1.775729 1.114601
v -0.695435 1.811623 1.014335
v -0.347717 1.766595 1.005296
v 0.000000 1.744007 1.000762
v 0.347717 1.766595 1.005296
v 0.698401 1.811623 1.014335
v -0.720219 1.764343 0.918237
v -0.347717 1.730490 0.911442
v 0.000000 1.712969 0.907925
v 0.347717 1.730490 0.911442
v 0.695082 1.764343 0.918237
v -0.695435 1.659283 0.877918
v -0.347717 1.643739 0.874798
v 0.000000 1.635573 0.886574
v 0.347717 1.643739 0.874798
v 0.685406 1.659283 0.877918
v -0.695435 1.552865 0.915031
v -0.347717 1.548198 0.914094
v 0.000000 1.547240 0.913902
v 0.347717 1.548198 0.914094
v 0.695456 1.552865 0.915031
v 0.028197 1.503878 -0.031554
v 0.547012 1.507965 -0.220982
v -0.624343 1.494571 0.145175
v 0.007054 1.502301 -0.166531
v 0.629977 1.509057 -0.309020
v -0.739110 1.508942 -0.347500
v -0.448005 1.508021 -0.502204
v -0.005685 1.501654 -0.470465
v 0.705209 1.482841 -0.590252
v -0.674427 1.508942 -0.518992
v -0.413772 1.508369 -0.605107
v 0.192150 1.507924 -0.695467
v 0.677686 1.508942 -0.805732
v -0.723729 1.482841 -1.145062
v -0.213634 1.508942 -1.115326
v 0.009732 1.508942 -1.152403
v 0.670024 1.531427 -1.199191
v -0.194325 1.505926 -0.545108
v -0.129558 1.508028 -0.661757
v -0.077515 1.508942 -1.086757
v -0.462811 1.492093 0.155983
v -0.407944 1.507188 -0.722806
v -0.736869 1.506775 -0.635478
v 0.237560 1.513424 -0.837801
v 0.614051 1.520082 -0.913543
v -0.102164 1.509500 -0.788177
v -0.379337 1.503743 -0.853051
v -0.688088 1.494972 -0.771064
v 0.246202 1.516190 -0.954017
v 0.641652 1.525676 -0.976656
v -0.096600 1.509625 -0.918871
v -0.323502 1.502935 -0.985619
v -0.597936 1.488606 -0.929059
v 0.202196 1.516035 -1.082740
v 0.656541 1.528694 -1.180863
v -0.103572 1.510320 -1.043670
vn 0.0096 0.9941 0.1078
vn 0.0118 0.9917 0.1278
vn 0.0134 0.9999 -0.0084
vn 0.0370 0.9987 0.0346
vn -0.0083 0.9926 0.1215
vn -0.0027 1.0000 0.0071
vn -0.0178 0.9972 0.0725
vn -0.0003 0.9995 0.0327
vn -0.0189 0.9990 0.0405
vn -0.0102 0.9999 -0.0045
vn 0.0186 0.9985 0.0517
vn 0.0202 0.9988 -0.0455
vn 0.0101 0.9982 0.0589
vn -0.0041 1.0000 -0.0072
vn -0.0186 0.9997 -0.0166
vn -0.0029 0.9999 -0.0116
vn -0.0064 0.9987 -0.0506
vn -0.0195 0.9993 -0.0313
vn -0.0132 0.9796 0.2007
vn -0.0129 0.9806 0.1957
vn 0.0131 0.9785 0.2060
vn 0.0014 0.9780 0.2086
vn 0.0108 0.9796 0.2008
vn 0.0182 -0.8386 0.5444
vn -0.0053 -0.5620 0.8271
vn 0.0004 -0.5668 0.8239
vn 0.0174 -0.8508 0.5252
vn -0.0000 -0.8635 0.5044
vn -0.0000 -0.5724 0.8200
vn -0.0002 -0.5676 0.8233
vn -0.0177 -0.8503 0.5259
vn 0.0052 -0.5644 0.8255
vn -0.0189 -0.8373 0.5464
vn 0.0453 0.1544 0.9870
vn 0.0667 0.1380 0.9882
vn -0.0646 0.1302 0.9894
vn -0.0445 0.1493 0.9878
vn -0.0000 0.1707 0.9853
vn -0.0903 0.7480 0.6576
vn -0.0000 0.7544 0.6564
vn 0.0908 0.7485 0.6568
vn 0.1248 0.7446 0.6558
vn -0.1235 0.7436 0.6572
vn -0.0922 0.9956 -0.0138
vn -0.0000 0.9999 0.0116
vn 0.0916 0.9956 -0.0213
vn 0.1206 0.9909 -0.0592
vn -0.1220 0.9917 -0.0410
vn -0.0515 0.7200 -0.6921
vn -0.0000 0.7357 -0.6773
vn 0.0503 0.7171 -0.6952
vn 0.0571 0.7003 -0.7116
vn -0.0599 0.7066 -0.7051
vn -0.0076 -0.0119 -0.9999
vn -0.0000 -0.0260 -0.9997
vn 0.0075 -0.0081 -0.9999
vn -0.0017 0.0054 -1.0000
vn 0.0018 0.0002 -1.0000
vn 0.0031 -0.3473 -0.9378
vn -0.0000 -0.3407 -0.9402
vn -0.0030 -0.3476 -0.9376
vn -0.0157 -0.3538 -0.9352
vn 0.0159 -0.3531 -0.9354
vn -0.0183 0.9997 -0.0147
vn -0.0195 0.9992 -0.0347
vn -0.0026 0.9993 -0.0365
vn 0.0002 1.0000 -0.0053
vn 0.0087 0.9999 0.0125
vn 0.0161 0.9980 0.0617
vn 0.0017 0.9998 0.0189
vn 0.0093 0.9997 0.0222
vn 0.0059 0.9999 0.0155
vn 0.0090 0.9999 0.0139
vn 0.0006 1.0000 0.0002
vn -0.0003 1.0000 -0.0059
vn 0.0120 0.9999 0.0070
vn 0.0236 0.9966 0.0793
vn -0.0517 0.9985 -0.0165
vn -0.0435 0.9990 -0.0111
vn -0.0454 0.9990 0.0050
vn -0.0514 0.9987 0.0031
vn -0.0240 0.9997 0.0052
vn -0.0262 0.9996 0.0111
vn -0.0300 0.9995 0.0115
vn -0.0288 0.9996 -0.0076
vn -0.0223 0.9997 -0.0033
vn -0.0225 0.9996 -0.0155
vn -0.0093 0.9999 0.0064
vn -0.0053 0.9993 0.0383
vn 0.0026 0.9999 0.0167
vn -0.0142 0.9994 -0.0311
vn -0.0189 0.9998 -0.0002
vn -0.0192 0.9997 0.0158
vn -0.0144 0.9996 -0.0246
vn -0.0023 0.9984 0.0572
vn -0.0184 0.9990 -0.0408
vn -0.0324 0.9988 -0.0362
vn -0.0216 0.9995 0.0212
vn -0.0416 0.9974 -0.0591
vt 0.003364 0.605416
vt 0.003669 0.449342
vt 0.068213 0.449430
vt 0.068124 0.599695
vt 0.003414 0.300682
vt 0.070415 0.308516
vt 0.003364 0.150460
vt 0.068475 0.150588
vt 0.004359 0.001467
vt 0.143376 0.004340
vt 0.128529 0.481423
vt 0.154765 0.555455
vt 0.150914 0.351417
vt 0.206206 0.255911
vt 0.281456 0.024782
vt 0.347075 0.282547
vt 0.281631 0.578364
vt 0.491494 0.017176
vt 0.393657 0.618026
vt 0.538577 0.629497
vt 0.536303 0.676197
vt 0.389916 0.665510
vt 0.685379 0.632813
vt 0.830623 0.628404
vt 0.832856 0.676445
vt 0.684526 0.679636
vt 0.982617 0.618026
vt 0.979480 0.666053
vt 0.385780 0.712927
vt 0.533637 0.720140
vt 0.684505 0.721970
vt 0.835548 0.720317
vt 0.972446 0.714409
vt 0.838454 0.760449
vt 0.988198 0.760163
vt 0.378182 0.759703
vt 0.530715 0.760185
vt 0.684479 0.759558
vt 0.528238 0.802941
vt 0.684434 0.801838
vt 0.840675 0.803323
vt 0.983686 0.807710
vt 0.384541 0.807444
vt 0.528593 0.851744
vt 0.684370 0.851725
vt 0.840292 0.852192
vt 0.990577 0.855029
vt 0.377323 0.854708
vt 0.531082 0.898203
vt 0.684299 0.898705
vt 0.837566 0.898534
vt 0.996636 0.903220
vt 0.383073 0.901554
vt 0.534277 0.938796
vt 0.684243 0.934504
vt 0.834334 0.939193
vt 0.980701 0.949113
vt 0.392577 0.948009
vt 0.537883 0.982505
vt 0.684167 0.974689
vt 0.830605 0.983098
vt 0.975636 0.996636
vt 0.393245 0.995655
vt 0.543566 0.065174
vt 0.456282 0.288247
vt 0.584193 0.029475
vt 0.518713 0.297253
vt 0.659318 0.302557
vt 0.763456 0.217506
vt 0.747832 0.355833
vt 0.693887 0.383681
vt 0.602712 0.617773
vt 0.674103 0.492720
vt 0.721655 0.478002
vt 0.681880 0.589963
vt 0.714460 -0.003110
vt 0.814539 0.008913
vt 0.871546 0.557303
vt 0.897557 0.439232
vt 0.957469 0.391980
vt 0.971328 0.611297
vt 0.942566 0.213321
vt 0.988091 0.018082
vt 0.996636 0.012284
vt 0.974677 0.296097
vt 0.924381 0.344693
vt 0.944311 0.333523
vt 0.806289 0.344061
vt 0.829328 0.198015
vt 0.375134 0.568830
vt 0.369975 0.499447
vt 0.866707 0.341684
vt 0.883079 0.194337
vt 0.776058 0.475504
vt 0.864537 0.036270
vt 0.735669 0.616773
vt 0.836282 0.463225
vt 0.893786 0.024409
vt 0.798505 0.595928
s 1
f 1/1/1 2/2/2 7/3/3 6/4/4
f 2/2/2 3/5/5 8/6/6 7/3/3
f 3/5/5 4/7/7 9/8/8 8/6/6
f 4/7/7 5/9/9 10/10/10 9/8/8
f 6/4/4 7/3/3 12/11/11 11/12/12
f 7/3/3 8/6/6 13/13/13 12/11/11
f 8/6/6 9/8/8 14/14/14 13/13/13
f 9/8/8 10/10/10 15/15/15 14/14/14
f 11/12/12 14/14/14 16/16/16 17/17/17
f 12/11/11 13/13/13 14/14/14 11/12/12
f 14/14/14 15/15/15 18/18/18 16/16/16
f 5/19/9 4/20/7 22/21/19 23/22/20
f 3/23/5 2/24/2 20/25/21 21/26/22
f 4/20/7 3/23/5 21/26/22 22/21/19
f 2/24/2 1/27/1 19/28/23 20/25/21
f 23/22/24 28/29/25 27/30/26 22/21/27
f 21/26/28 26/31/29 25/32/30 20/25/31
f 22/21/27 27/30/26 26/31/29 21/26/28
f 20/25/31 25/32/30 24/33/32 19/28/33
f 25/32/30 30/34/34 29/35/35 24/33/32
f 28/29/25 33/36/36 32/37/37 27/30/26
f 26/31/29 31/38/38 30/34/34 25/32/30
f 27/30/26 32/37/37 31/38/38 26/31/29
f 32/37/37 37/39/39 36/40/40 31/38/38
f 30/34/34 35/41/41 34/42/42 29/35/35
f 33/36/36 38/43/43 37/39/39 32/37/37
f 31/38/38 36/40/40 35/41/41 30/34/34
f 37/39/39 42/44/44 41/45/45 36/40/40
f 35/41/41 40/46/46 39/47/47 34/42/42
f 38/43/43 43/48/48 42/44/44 37/39/39
f 36/40/40 41/45/45 40/46/46 35/41/41
f 42/44/44 47/49/49 46/50/50 41/45/45
f 40/46/46 45/51/51 44/52/52 39/47/47
f 43/48/48 48/53/53 47/49/49 42/44/44
f 41/45/45 46/50/50 45/51/51 40/46/46
f 47/49/49 52/54/54 51/55/55 46/50/50
f 45/51/51 50/56/56 49/57/57 44/52/52
f 48/53/53 53/58/58 52/54/54 47/49/49
f 46/50/50 51/55/55 50/56/56 45/51/51
f 52/54/54 57/59/59 56/60/60 51/55/55
f 50/56/56 55/61/61 54/62/62 49/57/57
f 53/58/58 58/63/63 57/59/59 52/54/54
f 51/55/55 56/60/60 55/61/61 50/56/56
f 16/16/16 18/18/18 60/64/64 59/65/65
f 59/65/65 60/64/64 63/66/66 62/67/67
f 66/68/68 70/69/69 77/70/70 76/71/71
f 64/72/72 65/73/73 69/74/74 68/75/75
f 66/68/68 67/76/76 71/77/77 70/69/69
f 91/78/78 90/79/79 73/80/80 72/81/81
f 92/82/82 93/83/83 75/84/84 74/85/85
f 90/79/79 94/86/86 78/87/87 73/80/80
f 76/71/71 65/73/73 64/72/72 66/68/68
f 76/71/71 77/70/70 69/74/74 65/73/73
f 84/88/88 77/70/70 70/69/69 82/89/89
f 61/90/90 62/67/67 66/68/68 64/72/72
f 63/66/66 67/76/76 66/68/68 62/67/67
f 62/67/67 61/90/90 79/91/91 59/65/65
f 16/16/16 59/65/65 79/91/91 17/17/17
f 89/92/92 84/88/88 82/89/89 87/93/93
f 69/74/74 77/70/70 84/88/88 80/94/94
f 70/69/69 71/77/77 83/95/95 82/89/89
f 68/75/75 69/74/74 80/94/94 81/96/96
f 94/86/86 89/92/92 87/93/93 92/82/82
f 80/94/94 84/88/88 89/92/92 85/97/97
f 82/89/89 83/95/95 88/98/98 87/93/93
f 81/96/96 80/94/94 85/97/97 86/99/99
f 78/87/87 94/86/86 92/82/82 74/85/85
f 85/97/97 89/92/92 94/86/86 90/79/79
f 87/93/93 88/98/98 93/83/83 92/82/82
f 86/99/99 85/97/97 90/79/79 91/78/78
