# Blender 4.2.1 LTS
# www.blender.org
mtllib Plank1.mtl
o Plank.002
v 2.768827 0.068386 2.801359
v 2.777903 0.048600 2.810435
v 2.768827 0.068386 -2.527574
v 2.777903 0.048600 -2.527574
v 1.219582 0.068386 2.712712
v 1.210506 0.048600 2.721788
v 1.219582 0.068386 -2.527574
v 1.210506 0.048600 -2.527574
v 1.510480 0.068386 -2.336523
v 1.391948 0.068386 -2.155108
v 1.420577 0.048600 2.726852
v 1.308228 0.048600 2.507648
v 1.397526 0.048600 -2.164175
v 1.517337 0.048600 -2.341789
v 1.314585 0.068386 2.498570
v 1.422493 0.068386 2.716134
v 2.531125 0.068386 -1.977859
v 2.306506 0.068386 -2.274660
v 2.314777 0.048600 -2.281180
v 2.539324 0.048600 -1.988492
v 2.392037 0.068386 2.731428
v 2.489333 0.068386 2.668032
v 2.386713 0.048600 2.741181
v 2.488953 0.048600 2.673532
v 2.094269 0.048600 2.221125
v 1.951534 0.068386 -1.860934
v 2.098206 0.068386 2.211553
v 1.959702 0.048600 -1.867765
v 1.807644 0.048600 2.680221
v 2.175826 0.048600 2.696264
v 2.179781 0.068386 2.686082
v 1.811562 0.068386 2.669931
v 1.642400 0.068386 -2.527574
v 2.106912 0.068386 -2.527574
v 2.106912 0.048600 -2.527574
v 1.650681 0.048600 -2.527574
v 2.768827 -0.068386 2.801359
v 2.777903 -0.048600 2.810435
v 2.768827 -0.068386 -2.527574
v 2.777903 -0.048600 -2.527574
v 1.219582 -0.068386 2.712712
v 1.210506 -0.048600 2.721788
v 1.219582 -0.068386 -2.527574
v 1.210506 -0.048600 -2.527574
v 1.510480 -0.068386 -2.336523
v 1.391948 -0.068386 -2.155108
v 1.420577 -0.048600 2.726852
v 1.308228 -0.048600 2.507648
v 1.397526 -0.048600 -2.164175
v 1.517337 -0.048600 -2.341789
v 1.314585 -0.068386 2.498570
v 1.422493 -0.068386 2.716134
v 2.531125 -0.068386 -1.977859
v 2.306506 -0.068386 -2.274660
v 2.314777 -0.048600 -2.281180
v 2.539324 -0.048600 -1.988492
v 2.392037 -0.068386 2.731428
v 2.489333 -0.068386 2.668032
v 2.386713 -0.048600 2.741181
v 2.488953 -0.048600 2.673532
v 2.094269 -0.048600 2.221125
v 1.951534 -0.068386 -1.860934
v 2.098206 -0.068386 2.211553
v 1.959702 -0.048600 -1.867765
v 1.807644 -0.048600 2.680221
v 2.175826 -0.048600 2.696264
v 2.179781 -0.068386 2.686082
v 1.811562 -0.068386 2.669931
v 1.642400 -0.068386 -2.527574
v 2.106912 -0.068386 -2.527574
v 2.106912 -0.048600 -2.527574
v 1.650681 -0.048600 -2.527574
vn -0.8716 -0.0000 0.4902
vn -0.9856 -0.0000 0.1692
vn 1.0000 -0.0000 -0.0000
vn 0.8892 -0.0000 -0.4576
vn -0.8290 -0.0000 -0.5592
vn 0.0768 0.9970 0.0042
vn 0.9089 0.4169 -0.0000
vn 0.0711 0.9975 -0.0035
vn 0.6003 -0.0000 0.7998
vn 0.1196 -0.0000 0.9928
vn -0.0018 1.0000 0.0052
vn 0.1058 0.4541 0.8847
vn 0.5742 0.2865 0.7670
vn 0.0030 1.0000 0.0041
vn -0.8124 -0.0000 -0.5831
vn 0.5518 -0.0000 0.8340
vn -0.8794 -0.2805 -0.3847
vn -0.0014 1.0000 -0.0026
vn 0.0011 1.0000 -0.0018
vn 0.8984 0.0211 -0.4387
vn -0.0502 0.9987 -0.0019
vn -0.1760 0.9844 0.0033
vn 0.8994 -0.1651 0.4047
vn -0.0001 1.0000 0.0080
vn -0.0001 1.0000 0.0018
vn -0.0000 1.0000 -0.0021
vn 0.9056 -0.0000 -0.4241
vn -0.0004 1.0000 0.0022
vn -0.4176 0.2318 0.8785
vn -0.8256 0.3809 0.4163
vn 0.9097 -0.0000 0.4152
vn -0.0517 0.9980 -0.0354
vn -0.8316 -0.0614 -0.5520
vn -0.8899 -0.0000 0.4561
vn 0.7934 -0.0000 -0.6087
vn 0.0047 0.9974 0.0714
vn 0.5334 0.2361 0.8122
vn 0.0562 0.9974 -0.0441
vn 0.6839 0.5106 -0.5211
vn -0.1157 0.9911 0.0652
vn -0.4282 -0.0000 0.9037
vn 0.7643 -0.0000 -0.6448
vn 0.7487 0.2571 -0.6110
vn -0.7580 -0.0459 -0.6506
vn -0.0443 0.9983 -0.0379
vn -0.8022 0.3897 0.4523
vn -0.1834 0.4762 0.8600
vn 0.0636 0.9962 -0.0592
vn 0.6742 0.3899 -0.6272
vn -0.7958 -0.2299 -0.5602
vn 0.8483 -0.0000 0.5296
vn -0.2083 -0.0000 0.9781
vn -0.0389 0.4548 0.8897
vn -0.0000 0.4284 -0.9036
vn -0.9144 -0.0000 -0.4047
vn -0.9760 -0.0000 -0.2178
vn -0.9089 0.4169 -0.0000
vn 0.0768 -0.9970 0.0042
vn 0.0711 -0.9975 -0.0035
vn 0.9089 -0.4169 -0.0000
vn -0.0018 -1.0000 0.0052
vn 0.0030 -1.0000 0.0040
vn 0.5742 -0.2865 0.7670
vn 0.1058 -0.4541 0.8847
vn -0.0014 -1.0000 -0.0026
vn -0.8794 0.2805 -0.3847
vn 0.0011 -1.0000 -0.0018
vn -0.0502 -0.9987 -0.0019
vn 0.8984 -0.0211 -0.4387
vn -0.1760 -0.9844 0.0033
vn -0.0001 -1.0000 0.0080
vn 0.8994 0.1651 0.4047
vn -0.0000 -1.0000 -0.0021
vn -0.0001 -1.0000 0.0018
vn -0.0004 -1.0000 0.0022
vn -0.4176 -0.2318 0.8785
vn -0.8256 -0.3809 0.4163
vn -0.8316 0.0614 -0.5520
vn -0.0517 -0.9980 -0.0354
vn 0.5334 -0.2361 0.8122
vn 0.0047 -0.9974 0.0714
vn 0.0561 -0.9974 -0.0442
vn 0.6839 -0.5106 -0.5211
vn -0.1157 -0.9911 0.0652
vn -0.0442 -0.9983 -0.0379
vn -0.7580 0.0459 -0.6506
vn 0.7487 -0.2571 -0.6110
vn -0.1834 -0.4762 0.8600
vn -0.8022 -0.3897 0.4523
vn 0.0636 -0.9962 -0.0592
vn -0.7958 0.2299 -0.5602
vn 0.6742 -0.3899 -0.6272
vn -0.0389 -0.4548 0.8897
vn -0.0000 -0.4284 -0.9036
vn -0.9089 -0.4169 -0.0000
vn -1.0000 -0.0000 -0.0000
vt 0.541601 0.061758
vt 0.541601 0.077740
vt 0.528191 0.077740
vt 0.528191 0.061758
vt 0.370995 0.905587
vt 0.370995 0.027912
vt 0.355013 0.027912
vt 0.355013 0.905587
vt 0.382883 0.995314
vt 0.413633 0.995314
vt 0.413633 0.979333
vt 0.382883 0.979333
vt 0.433332 0.995314
vt 0.433332 0.979333
vt 0.639102 0.091866
vt 0.640594 0.090374
vt 0.640594 0.968049
vt 0.639102 0.968049
vt 0.481064 0.077740
vt 0.417423 0.077740
vt 0.417423 0.061758
vt 0.481064 0.061758
vt 0.417738 0.105879
vt 0.417423 0.104116
vt 0.481064 0.111784
vt 0.481708 0.113475
vt 0.455257 0.995314
vt 0.455257 0.979333
vt 0.593085 0.061758
vt 0.593085 0.077740
vt 0.576275 0.077740
vt 0.576275 0.061758
vt 0.601367 0.879413
vt 0.600019 0.877664
vt 0.412716 0.906808
vt 0.413633 0.908299
vt 0.382883 0.968049
vt 0.384375 0.968049
vt 0.384375 0.106441
vt 0.382883 0.104949
vt 0.398950 0.140158
vt 0.399996 0.141650
vt 0.528838 0.188842
vt 0.504723 0.858440
vt 0.506066 0.995314
vt 0.506066 0.979333
vt 0.593148 0.113788
vt 0.593085 0.112883
vt 0.398950 0.077740
vt 0.382883 0.077740
vt 0.382883 0.061758
vt 0.398950 0.061758
vt 0.432204 0.936636
vt 0.433332 0.937502
vt 0.564447 0.979333
vt 0.564447 0.995314
vt 0.601367 0.995314
vt 0.601367 0.979333
vt 0.577150 0.103364
vt 0.576275 0.101761
vt 0.563087 0.926464
vt 0.564447 0.927536
vt 0.542251 0.110820
vt 0.640594 0.077740
vt 0.640594 0.061758
vt 0.530270 0.995314
vt 0.530270 0.979333
vt 0.530270 0.968049
vt 0.541601 0.109146
vt 0.453895 0.968049
vt 0.455257 0.968049
vt 0.528191 0.187268
vt 0.506066 0.859563
vt 0.640594 0.995314
vt 0.640594 0.979333
vt 0.370995 0.042487
vt 0.355013 0.042487
s 1
usemtl TT_checker_512x512_UV_GRID
f 66/1/1 30/2/1 25/3/2 61/4/2
f 4/5/3 2/6/3 38/7/3 40/8/3
f 8/9/4 13/10/4 49/11/4 44/12/4
f 49/11/5 13/10/5 14/13/5 50/14/5
f 1/15/6 2/16/7 4/17/7 3/18/8
f 29/19/9 11/20/10 47/21/10 65/22/9
f 16/23/11 11/24/12 29/25/13 32/26/14
f 14/13/15 36/27/15 72/28/15 50/14/15
f 60/29/16 24/30/16 23/31/16 59/32/16
f 3/18/8 4/17/17 20/33/17 17/34/18
f 10/35/19 13/36/20 8/37/20 7/38/21
f 5/39/22 6/40/23 12/41/23 15/42/24
f 10/35/19 32/26/14 27/43/25 26/44/26
f 72/28/27 36/27/27 28/45/27 64/46/27
f 22/47/28 24/48/29 2/16/29 1/15/6
f 16/23/11 15/42/24 12/41/30 11/24/30
f 12/49/31 6/50/31 42/51/31 48/52/31
f 10/35/19 9/53/32 14/54/33 13/36/33
f 26/44/26 27/43/25 22/47/28 17/34/18
f 47/21/34 11/20/34 12/49/34 48/52/34
f 55/55/35 19/56/35 20/57/35 56/58/35
f 22/47/28 21/59/36 23/60/37 24/48/37
f 18/61/38 17/34/18 20/33/39 19/62/39
f 22/47/28 27/43/25 31/63/40 21/59/36
f 2/64/41 24/30/41 60/29/41 38/65/41
f 35/66/42 19/56/42 55/55/42 71/67/42
f 18/61/38 19/62/43 35/68/44 34/68/45
f 31/63/40 30/69/46 23/60/47 21/59/36
f 3/18/8 17/34/18 22/47/28 1/15/6
f 33/70/48 36/71/49 14/54/50 9/53/32
f 61/4/51 25/3/51 29/19/9 65/22/9
f 10/35/19 26/44/26 33/70/48 9/53/32
f 23/31/52 30/2/1 66/1/1 59/32/52
f 27/43/25 32/26/14 29/25/13 25/72/53
f 26/44/26 34/68/45 35/68/44 28/73/54
f 33/70/48 26/44/26 28/73/54 36/71/49
f 31/63/40 27/43/25 25/72/53 30/69/46
f 20/57/55 4/74/55 40/75/55 56/58/55
f 18/61/38 34/68/45 26/44/26 17/34/18
f 64/46/56 28/45/56 35/66/56 71/67/56
f 32/26/14 10/35/19 7/38/21 16/23/11
f 8/37/57 6/40/57 5/39/22 7/38/21
f 15/42/24 16/23/11 7/38/21 5/39/22
f 37/15/58 39/18/59 40/17/60 38/16/60
f 52/23/61 68/26/62 65/25/63 47/24/64
f 39/18/59 53/34/65 56/33/66 40/17/66
f 46/35/67 43/38/68 44/37/69 49/36/69
f 41/39/70 51/42/71 48/41/72 42/40/72
f 46/35/67 62/44/73 63/43/74 68/26/62
f 58/47/75 37/15/58 38/16/76 60/48/76
f 52/23/61 47/24/77 48/41/77 51/42/71
f 46/35/67 49/36/78 50/54/78 45/53/79
f 62/44/73 53/34/65 58/47/75 63/43/74
f 58/47/75 60/48/80 59/60/80 57/59/81
f 54/61/82 55/62/83 56/33/83 53/34/65
f 58/47/75 57/59/81 67/63/84 63/43/74
f 54/61/82 70/68/85 71/68/86 55/62/87
f 67/63/84 57/59/81 59/60/88 66/69/89
f 39/18/59 37/15/58 58/47/75 53/34/65
f 69/70/90 45/53/79 50/54/91 72/71/92
f 46/35/67 45/53/79 69/70/90 62/44/73
f 63/43/74 61/72/93 65/25/63 68/26/62
f 62/44/73 64/73/94 71/68/86 70/68/85
f 69/70/90 72/71/92 64/73/94 62/44/73
f 67/63/84 66/69/89 61/72/93 63/43/74
f 54/61/82 53/34/65 62/44/73 70/68/85
f 68/26/62 52/23/61 43/38/68 46/35/67
f 44/37/95 43/38/68 41/39/70 42/40/95
f 51/42/71 41/39/70 43/38/68 52/23/61
f 6/76/96 8/5/96 44/8/96 42/77/96
