# Blender 4.2.1 LTS
# www.blender.org
mtllib Plank1.mtl
g Plank.002_Cube.003
v 2.768827 0.068386 2.801359
v 2.777903 0.048600 2.810435
v 2.768827 0.068386 -2.527574
v 2.777903 0.048600 -2.527574
v 1.219582 0.068386 2.712712
v 1.210506 0.048600 2.721788
v 1.219582 0.068386 -2.527574
v 1.210506 0.048600 -2.527574
v 1.510480 0.068386 -2.336523
v 1.391948 0.068386 -2.155108
v 1.420577 0.048600 2.726852
v 1.308228 0.048600 2.507648
v 1.397526 0.048600 -2.164175
v 1.517337 0.048600 -2.341789
v 1.314585 0.068386 2.498570
v 1.422493 0.068386 2.716134
v 2.531125 0.068386 -1.977859
v 2.306506 0.068386 -2.274660
v 2.314777 0.048600 -2.281180
v 2.539324 0.048600 -1.988492
v 2.392037 0.068386 2.731428
v 2.489333 0.068386 2.668032
v 2.386713 0.048600 2.741181
v 2.488953 0.048600 2.673532
v 2.094269 0.048600 2.221125
v 1.951534 0.068386 -1.860934
v 2.098206 0.068386 2.211553
v 1.959702 0.048600 -1.867765
v 1.807644 0.048600 2.680221
v 2.175826 0.048600 2.696264
v 2.179781 0.068386 2.686082
v 1.811562 0.068386 2.669931
v 1.642400 0.068386 -2.527574
v 2.106912 0.068386 -2.527574
v 2.106912 0.048600 -2.527574
v 1.650681 0.048600 -2.527574
v 2.768827 -0.068386 2.801359
v 2.777903 -0.048600 2.810435
v 2.768827 -0.068386 -2.527574
v 2.777903 -0.048600 -2.527574
v 1.219582 -0.068386 2.712712
v 1.210506 -0.048600 2.721788
v 1.219582 -0.068386 -2.527574
v 1.210506 -0.048600 -2.527574
v 1.510480 -0.068386 -2.336523
v 1.391948 -0.068386 -2.155108
v 1.420577 -0.048600 2.726852
v 1.308228 -0.048600 2.507648
v 1.397526 -0.048600 -2.164175
v 1.517337 -0.048600 -2.341789
v 1.314585 -0.068386 2.498570
v 1.422493 -0.068386 2.716134
v 2.531125 -0.068386 -1.977859
v 2.306506 -0.068386 -2.274660
v 2.314777 -0.048600 -2.281180
v 2.539324 -0.048600 -1.988492
v 2.392037 -0.068386 2.731428
v 2.489333 -0.068386 2.668032
v 2.386713 -0.048600 2.741181
v 2.488953 -0.048600 2.673532
v 2.094269 -0.048600 2.221125
v 1.951534 -0.068386 -1.860934
v 2.098206 -0.068386 2.211553
v 1.959702 -0.048600 -1.867765
v 1.807644 -0.048600 2.680221
v 2.175826 -0.048600 2.696264
v 2.179781 -0.068386 2.686082
v 1.811562 -0.068386 2.669931
v 1.642400 -0.068386 -2.527574
v 2.106912 -0.068386 -2.527574
v 2.106912 -0.048600 -2.527574
v 1.650681 -0.048600 -2.527574
vn 0.8716 -0.0000 -0.4902
vn 0.9856 -0.0000 -0.1692
vn -1.0000 -0.0000 -0.0000
vn -0.8892 -0.0000 0.4576
vn 0.8290 -0.0000 0.5592
vn -0.0767 -0.9970 -0.0042
vn -0.0711 -0.9975 0.0035
vn -0.9089 -0.4169 -0.0000
vn -0.6003 -0.0000 -0.7997
vn -0.1196 -0.0000 -0.9928
vn 0.0018 -1.0000 -0.0052
vn -0.0030 -1.0000 -0.0041
vn -0.5742 -0.2865 -0.7670
vn -0.1058 -0.4541 -0.8847
vn 0.8124 -0.0000 0.5831
vn -0.5518 -0.0000 -0.8340
vn 0.0014 -1.0000 0.0026
vn 0.8794 0.2805 0.3847
vn -0.0011 -1.0000 0.0018
vn 0.0502 -0.9987 0.0018
vn -0.8984 -0.0211 0.4387
vn 0.1761 -0.9844 -0.0034
vn 0.0002 -1.0000 -0.0080
vn -0.8994 0.1651 -0.4047
vn -0.0000 -1.0000 0.0021
vn 0.0001 -1.0000 -0.0018
vn -0.9056 -0.0000 0.4241
vn 0.0004 -1.0000 -0.0022
vn 0.4176 -0.2318 -0.8785
vn 0.8256 -0.3809 -0.4163
vn -0.9097 -0.0000 -0.4152
vn 0.8316 0.0614 0.5520
vn 0.0518 -0.9980 0.0354
vn 0.8899 -0.0000 -0.4561
vn -0.7934 -0.0000 0.6087
vn -0.5334 -0.2361 -0.8122
vn -0.0046 -0.9974 -0.0714
vn -0.0559 -0.9974 0.0445
vn -0.6839 -0.5106 0.5211
vn 0.1157 -0.9911 -0.0652
vn 0.4282 -0.0000 -0.9037
vn -0.7643 -0.0000 0.6448
vn 0.0441 -0.9983 0.0378
vn 0.7588 0.0417 0.6499
vn -0.7487 -0.2571 0.6110
vn 0.1834 -0.4762 -0.8600
vn 0.8022 -0.3897 -0.4523
vn -0.0636 -0.9962 0.0591
vn 0.7958 0.2299 0.5602
vn -0.6742 -0.3899 0.6272
vn -0.8483 -0.0000 -0.5296
vn 0.2083 -0.0000 -0.9781
vn 0.0389 -0.4548 -0.8897
vn 0.0001 -0.4284 0.9036
vn 0.9144 -0.0000 0.4047
vn 0.9760 -0.0000 0.2178
vn 0.9089 -0.4169 -0.0000
vn -0.0767 0.9970 -0.0042
vn -0.9089 0.4169 -0.0000
vn -0.0711 0.9975 0.0035
vn 0.0018 1.0000 -0.0052
vn -0.1058 0.4541 -0.8847
vn -0.5742 0.2864 -0.7670
vn -0.0031 1.0000 -0.0040
vn 0.8794 -0.2805 0.3847
vn 0.0014 1.0000 0.0026
vn -0.0011 1.0000 0.0018
vn -0.8984 0.0211 0.4387
vn 0.0502 0.9987 0.0018
vn 0.1761 0.9844 -0.0034
vn -0.8994 -0.1651 -0.4047
vn 0.0002 1.0000 -0.0080
vn 0.0001 1.0000 -0.0018
vn -0.0000 1.0000 0.0021
vn 0.0004 1.0000 -0.0022
vn 0.4176 0.2318 -0.8785
vn 0.8256 0.3809 -0.4163
vn 0.0518 0.9980 0.0354
vn 0.8316 -0.0614 0.5520
vn -0.0046 0.9974 -0.0714
vn -0.5334 0.2361 -0.8122
vn -0.0559 0.9974 0.0445
vn -0.6839 0.5106 0.5211
vn 0.1157 0.9911 -0.0652
vn -0.7487 0.2571 0.6110
vn 0.7580 -0.0459 0.6506
vn 0.0442 0.9983 0.0378
vn 0.8022 0.3897 -0.4523
vn 0.1834 0.4762 -0.8600
vn -0.0636 0.9962 0.0591
vn -0.6742 0.3900 0.6272
vn 0.7958 -0.2299 0.5602
vn 0.0389 0.4548 -0.8897
vn -0.0000 0.4284 0.9036
vn 0.9089 0.4169 -0.0000
vn 1.0000 -0.0000 -0.0000
vt 0.541601 0.061758
vt 0.528191 0.061758
vt 0.528191 0.077740
vt 0.541601 0.077740
vt 0.370995 0.905587
vt 0.355013 0.905587
vt 0.355013 0.027912
vt 0.370995 0.027912
vt 0.382883 0.995314
vt 0.382883 0.979333
vt 0.413633 0.979333
vt 0.413633 0.995314
vt 0.433332 0.979333
vt 0.433332 0.995314
vt 0.639102 0.091866
vt 0.639102 0.968049
vt 0.640594 0.968049
vt 0.640594 0.090374
vt 0.481064 0.077740
vt 0.481064 0.061758
vt 0.417423 0.061758
vt 0.417423 0.077740
vt 0.417738 0.105879
vt 0.481708 0.113475
vt 0.481064 0.111784
vt 0.417423 0.104116
vt 0.455257 0.979333
vt 0.455257 0.995314
vt 0.593085 0.061758
vt 0.576275 0.061758
vt 0.576275 0.077740
vt 0.593085 0.077740
vt 0.600019 0.877664
vt 0.601367 0.879413
vt 0.412716 0.906808
vt 0.384375 0.968049
vt 0.382883 0.968049
vt 0.413633 0.908299
vt 0.384375 0.106441
vt 0.399996 0.141650
vt 0.398950 0.140158
vt 0.382883 0.104949
vt 0.504723 0.858440
vt 0.528838 0.188842
vt 0.506066 0.979333
vt 0.506066 0.995314
vt 0.593148 0.113788
vt 0.593085 0.112883
vt 0.398950 0.077740
vt 0.398950 0.061758
vt 0.382883 0.061758
vt 0.382883 0.077740
vt 0.433332 0.937502
vt 0.432204 0.936636
vt 0.564447 0.979333
vt 0.601367 0.979333
vt 0.601367 0.995314
vt 0.564447 0.995314
vt 0.576275 0.101761
vt 0.577150 0.103364
vt 0.563087 0.926464
vt 0.564447 0.927536
vt 0.542251 0.110820
vt 0.640594 0.077740
vt 0.640594 0.061758
vt 0.530270 0.995314
vt 0.530270 0.979333
vt 0.530270 0.968049
vt 0.541601 0.109146
vt 0.453895 0.968049
vt 0.455257 0.968049
vt 0.528191 0.187268
vt 0.506066 0.859563
vt 0.640594 0.979333
vt 0.640594 0.995314
vt 0.370995 0.042487
vt 0.355013 0.042487
s 1
usemtl TT_checker_512x512_UV_GRID
f 66/1/1 61/2/2 25/3/2 30/4/1
f 4/5/3 40/6/3 38/7/3 2/8/3
f 8/9/4 44/10/4 49/11/4 13/12/4
f 49/11/5 50/13/5 14/14/5 13/12/5
f 1/15/6 3/16/7 4/17/8 2/18/8
f 29/19/9 65/20/9 47/21/10 11/22/10
f 16/23/11 32/24/12 29/25/13 11/26/14
f 14/14/15 50/13/15 72/27/15 36/28/15
f 60/29/16 59/30/16 23/31/16 24/32/16
f 3/16/7 17/33/17 20/34/18 4/17/18
f 10/35/19 7/36/20 8/37/21 13/38/21
f 5/39/22 15/40/23 12/41/24 6/42/24
f 10/35/19 26/43/25 27/44/26 32/24/12
f 72/27/27 64/45/27 28/46/27 36/28/27
f 22/47/28 1/15/6 2/18/29 24/48/29
f 16/23/11 11/26/30 12/41/30 15/40/23
f 12/49/31 48/50/31 42/51/31 6/52/31
f 10/35/19 13/38/32 14/53/32 9/54/33
f 26/43/25 17/33/17 22/47/28 27/44/26
f 47/21/34 48/50/34 12/49/34 11/22/34
f 55/55/35 56/56/35 20/57/35 19/58/35
f 22/47/28 24/48/36 23/59/36 21/60/37
f 18/61/38 19/62/39 20/34/39 17/33/17
f 22/47/28 21/60/37 31/63/40 27/44/26
f 2/64/41 38/65/41 60/29/41 24/32/41
f 35/66/42 71/67/42 55/55/42 19/58/42
f 18/61/38 34/68/43 35/68/44 19/62/45
f 31/63/40 21/60/37 23/59/46 30/69/47
f 3/16/7 1/15/6 22/47/28 17/33/17
f 33/70/48 9/54/33 14/53/49 36/71/50
f 61/2/51 65/20/9 29/19/9 25/3/51
f 10/35/19 9/54/33 33/70/48 26/43/25
f 23/31/52 59/30/52 66/1/1 30/4/1
f 27/44/26 25/72/53 29/25/13 32/24/12
f 26/43/25 28/73/54 35/68/44 34/68/43
f 33/70/48 36/71/50 28/73/54 26/43/25
f 31/63/40 30/69/47 25/72/53 27/44/26
f 20/57/55 56/56/55 40/74/55 4/75/55
f 18/61/38 17/33/17 26/43/25 34/68/43
f 64/45/56 71/67/56 35/66/56 28/46/56
f 32/24/12 16/23/11 7/36/20 10/35/19
f 8/37/57 7/36/20 5/39/22 6/42/57
f 15/40/23 5/39/22 7/36/20 16/23/11
f 37/15/58 38/18/59 40/17/59 39/16/60
f 52/23/61 47/26/62 65/25/63 68/24/64
f 39/16/60 40/17/65 56/34/65 53/33/66
f 46/35/67 49/38/68 44/37/68 43/36/69
f 41/39/70 42/42/71 48/41/71 51/40/72
f 46/35/67 68/24/64 63/44/73 62/43/74
f 58/47/75 60/48/76 38/18/76 37/15/58
f 52/23/61 51/40/72 48/41/77 47/26/77
f 46/35/67 45/54/78 50/53/79 49/38/79
f 62/43/74 63/44/73 58/47/75 53/33/66
f 58/47/75 57/60/80 59/59/81 60/48/81
f 54/61/82 53/33/66 56/34/83 55/62/83
f 58/47/75 63/44/73 67/63/84 57/60/80
f 54/61/82 55/62/85 71/68/86 70/68/87
f 67/63/84 66/69/88 59/59/89 57/60/80
f 39/16/60 53/33/66 58/47/75 37/15/58
f 69/70/90 72/71/91 50/53/92 45/54/78
f 46/35/67 62/43/74 69/70/90 45/54/78
f 63/44/73 68/24/64 65/25/63 61/72/93
f 62/43/74 70/68/87 71/68/86 64/73/94
f 69/70/90 62/43/74 64/73/94 72/71/91
f 67/63/84 63/44/73 61/72/93 66/69/88
f 54/61/82 70/68/87 62/43/74 53/33/66
f 68/24/64 46/35/67 43/36/69 52/23/61
f 44/37/95 42/42/95 41/39/70 43/36/69
f 51/40/72 52/23/61 43/36/69 41/39/70
f 6/76/96 42/77/96 44/6/96 8/5/96
