# Blender 4.3.0
# www.blender.org
o Cylinder.001
v 0.261575 1.250000 -0.939438
v 0.696250 1.250000 -0.682790
v 0.944365 1.250000 -0.243189
v 0.939438 1.250000 0.261575
v 0.682790 1.250000 0.696250
v 0.243189 1.250000 0.944365
v -0.261575 1.250000 0.939438
v -0.696250 1.250000 0.682790
v -0.944365 1.250000 0.243189
v -0.939438 1.250000 -0.261575
v -0.682790 1.250000 -0.696250
v -0.243189 1.250000 -0.944365
v 0.257970 1.646402 -0.926493
v 0.686655 1.646402 -0.673381
v 0.931352 1.646402 -0.239838
v 0.926493 1.646402 0.257970
v 0.673381 1.646402 0.686655
v 0.239838 1.646402 0.931352
v -0.257970 1.646402 0.926493
v -0.686655 1.646402 0.673381
v -0.931352 1.646402 0.239838
v -0.926493 1.646402 -0.257970
v -0.673381 1.646402 -0.686655
v -0.239838 1.646402 -0.931352
v -0.232106 1.952431 -0.901327
v 0.249654 1.952431 -0.896625
v -0.651673 1.952431 -0.664519
v -0.896625 1.952431 -0.249654
v -0.901327 1.952431 0.232106
v -0.664519 1.952431 0.651673
v -0.249654 1.952431 0.896625
v 0.232106 1.952431 0.901327
v 0.651673 1.952431 0.664519
v 0.896625 1.952431 0.249654
v 0.901327 1.952431 -0.232106
v 0.664519 1.952431 -0.651673
v 0.457549 2.256172 -0.448704
v 0.171897 2.256172 -0.617363
v 0.620601 2.256172 -0.159814
v 0.617363 2.256172 0.171897
v 0.448704 2.256172 0.457549
v 0.159814 2.256172 0.620601
v -0.171897 2.256172 0.617363
v -0.457549 2.256172 0.448704
v -0.620601 2.256172 0.159814
v -0.617363 2.256172 -0.171897
v -0.448704 2.256172 -0.457549
v -0.159814 2.256172 -0.620601
v 0.202693 2.344582 -0.727967
v 0.178083 2.344582 -0.639580
v 0.474015 2.344582 -0.464851
v 0.539521 2.344582 -0.529091
v 0.642934 2.344582 -0.165566
v 0.731785 2.344582 -0.188446
v 0.639580 2.344582 0.178083
v 0.727967 2.344582 0.202693
v 0.464851 2.344582 0.474015
v 0.529091 2.344582 0.539521
v 0.165566 2.344582 0.642934
v 0.188446 2.344582 0.731785
v -0.178083 2.344582 0.639580
v -0.202693 2.344582 0.727967
v -0.474015 2.344582 0.464851
v -0.539521 2.344582 0.529091
v -0.642934 2.344582 0.165566
v -0.731785 2.344582 0.188446
v -0.639580 2.344582 -0.178083
v -0.727967 2.344582 -0.202693
v -0.464851 2.344582 -0.474015
v -0.529091 2.344582 -0.539521
v -0.165566 2.344582 -0.642934
v -0.188446 2.344582 -0.731785
v -0.245616 1.694954 -0.953791
v -0.238421 1.903879 -0.925851
v 0.256447 1.903879 -0.921021
v 0.264186 1.694954 -0.948815
v -0.689605 1.694954 -0.703199
v -0.669404 1.903879 -0.682600
v -0.948816 1.694954 -0.264186
v -0.921021 1.903879 -0.256447
v -0.953791 1.694954 0.245616
v -0.925851 1.903879 0.238421
v -0.703199 1.694954 0.689605
v -0.682600 1.903879 0.669404
v -0.264186 1.694954 0.948815
v -0.256447 1.903879 0.921021
v 0.245616 1.694954 0.953791
v 0.238421 1.903879 0.925851
v 0.689605 1.694954 0.703199
v 0.669404 1.903879 0.682600
v 0.948815 1.694954 0.264186
v 0.921021 1.903879 0.256447
v 0.953791 1.694954 -0.245616
v 0.925851 1.903879 -0.238421
v 0.703199 1.694954 -0.689605
v 0.682600 1.903879 -0.669404
v 0.257970 0.853598 -0.926493
v 0.686655 0.853598 -0.673381
v 0.931352 0.853598 -0.239838
v 0.926493 0.853598 0.257970
v 0.673381 0.853598 0.686655
v 0.239838 0.853598 0.931352
v -0.257970 0.853598 0.926493
v -0.686655 0.853598 0.673381
v -0.931352 0.853598 0.239838
v -0.926493 0.853598 -0.257970
v -0.673381 0.853598 -0.686655
v -0.239838 0.853598 -0.931352
v -0.232106 0.547569 -0.901327
v 0.249654 0.547569 -0.896625
v -0.651673 0.547569 -0.664519
v -0.896625 0.547569 -0.249654
v -0.901327 0.547569 0.232106
v -0.664519 0.547569 0.651673
v -0.249654 0.547569 0.896625
v 0.232106 0.547569 0.901327
v 0.651673 0.547569 0.664519
v 0.896625 0.547569 0.249654
v 0.901327 0.547569 -0.232106
v 0.664519 0.547569 -0.651673
v 0.457549 0.243828 -0.448704
v 0.171897 0.243828 -0.617363
v 0.620601 0.243828 -0.159814
v 0.617363 0.243828 0.171897
v 0.448704 0.243828 0.457549
v 0.159814 0.243828 0.620601
v -0.171897 0.243828 0.617363
v -0.457549 0.243828 0.448704
v -0.620601 0.243828 0.159814
v -0.617363 0.243828 -0.171897
v -0.448704 0.243828 -0.457549
v -0.159814 0.243828 -0.620601
v 0.202693 0.155419 -0.727967
v 0.178083 0.155419 -0.639580
v 0.474015 0.155419 -0.464851
v 0.539521 0.155419 -0.529091
v 0.642934 0.155419 -0.165566
v 0.731785 0.155419 -0.188446
v 0.639580 0.155419 0.178083
v 0.727967 0.155419 0.202693
v 0.464851 0.155419 0.474015
v 0.529091 0.155419 0.539521
v 0.165566 0.155419 0.642934
v 0.188446 0.155419 0.731785
v -0.178083 0.155419 0.639580
v -0.202693 0.155419 0.727967
v -0.474015 0.155419 0.464851
v -0.539521 0.155419 0.529091
v -0.642934 0.155419 0.165566
v -0.731785 0.155419 0.188446
v -0.639580 0.155419 -0.178083
v -0.727967 0.155419 -0.202693
v -0.464851 0.155419 -0.474015
v -0.529091 0.155419 -0.539521
v -0.165566 0.155419 -0.642934
v -0.188446 0.155419 -0.731785
v -0.245616 0.805046 -0.953791
v -0.238421 0.596121 -0.925851
v 0.256447 0.596121 -0.921021
v 0.264186 0.805046 -0.948815
v -0.689605 0.805046 -0.703199
v -0.669404 0.596121 -0.682600
v -0.948816 0.805046 -0.264186
v -0.921021 0.596121 -0.256447
v -0.953791 0.805046 0.245616
v -0.925851 0.596121 0.238421
v -0.703199 0.805046 0.689605
v -0.682600 0.596121 0.669404
v -0.264186 0.805046 0.948815
v -0.256447 0.596121 0.921021
v 0.245616 0.805046 0.953791
v 0.238421 0.596121 0.925851
v 0.689605 0.805046 0.703199
v 0.669404 0.596121 0.682600
v 0.948815 0.805046 0.264186
v 0.921021 0.596121 0.256447
v 0.953791 0.805046 -0.245616
v 0.925851 0.596121 -0.238421
v 0.703199 0.805046 -0.689605
v 0.682600 0.596121 -0.669404
vn -0.2494 -0.0000 -0.9684
vn -0.2492 0.0339 -0.9678
vn 0.2681 0.0339 -0.9628
vn 0.2682 -0.0000 -0.9634
vn 0.7140 -0.0000 -0.7002
vn 0.7136 0.0339 -0.6998
vn 0.9678 0.0339 -0.2492
vn 0.9684 -0.0000 -0.2494
vn 0.9628 0.0339 0.2681
vn 0.9634 -0.0000 0.2682
vn 0.6998 0.0339 0.7136
vn 0.7002 -0.0000 0.7140
vn 0.2492 0.0339 0.9678
vn 0.2494 -0.0000 0.9684
vn -0.2681 0.0339 0.9628
vn -0.2682 -0.0000 0.9634
vn -0.7136 0.0339 0.6998
vn -0.7140 -0.0000 0.7002
vn -0.9678 0.0339 0.2492
vn -0.9684 -0.0000 0.2494
vn -0.9628 0.0339 -0.2681
vn -0.9634 -0.0000 -0.2682
vn -0.6998 0.0339 -0.7136
vn -0.7002 -0.0000 -0.7140
vn 0.2595 0.2524 -0.9322
vn -0.2413 0.2524 -0.9371
vn 0.2413 0.2524 0.9370
vn 0.6775 0.2524 0.6909
vn 0.2413 0.2524 0.9371
vn 0.9322 0.2524 0.2595
vn 0.9370 0.2524 -0.2413
vn 0.9371 0.2524 -0.2413
vn 0.6909 0.2524 -0.6775
vn -0.6775 0.2524 -0.6909
vn 0.8797 0.4077 0.2449
vn 0.6393 0.4077 0.6520
vn 0.6394 0.4077 0.6520
vn -0.9322 0.2524 -0.2595
vn -0.2595 0.2524 0.9322
vn -0.9370 0.2524 0.2413
vn -0.9371 0.2524 0.2413
vn -0.6394 0.4077 -0.6520
vn -0.6393 0.4077 -0.6520
vn -0.2277 0.4077 -0.8843
vn 0.2251 -0.4307 0.8740
vn -0.2421 -0.4307 0.8694
vn -0.8843 0.4077 0.2277
vn -0.8797 0.4077 -0.2449
vn 0.8694 -0.4307 0.2421
vn 0.6319 -0.4307 0.6444
vn -0.8740 -0.4307 0.2251
vn -0.8694 -0.4307 -0.2421
vn 0.8740 -0.4307 -0.2251
vn -0.6444 -0.4307 0.6319
vn -0.9543 0.1368 -0.2657
vn -0.6936 0.1368 -0.7073
vn 0.2470 0.1368 0.9593
vn -0.2657 0.1368 0.9543
vn -0.6909 0.2524 0.6775
vn -0.2211 0.4625 -0.8586
vn -0.6208 0.4625 -0.6330
vn -0.6319 -0.4307 -0.6444
vn -0.9593 0.1368 0.2470
vn -0.7073 0.1368 0.6936
vn -0.2449 0.4077 0.8797
vn -0.6520 0.4077 0.6393
vn -0.6520 0.4077 0.6394
vn 0.2277 0.4077 0.8843
vn 0.9543 0.1368 0.2657
vn 0.6936 0.1368 0.7073
vn 0.9593 0.1368 -0.2470
vn 0.6520 0.4077 -0.6394
vn 0.8843 0.4077 -0.2277
vn 0.2449 0.4077 -0.8797
vn -0.2470 0.1368 -0.9593
vn 0.6444 -0.4307 -0.6319
vn 0.7073 0.1368 -0.6936
vn 0.6208 0.4625 0.6330
vn 0.8541 0.4625 0.2378
vn -0.8541 0.4625 -0.2378
vn -0.8586 0.4625 0.2211
vn 0.2421 -0.4307 -0.8694
vn -0.2251 -0.4307 -0.8740
vn -0.6330 0.4625 0.6208
vn -0.2378 0.4625 0.8541
vn 0.2211 0.4625 0.8586
vn 0.8586 0.4625 -0.2211
vn 0.6330 0.4625 -0.6208
vn 0.2378 0.4625 -0.8541
vn 0.2657 0.1368 -0.9543
vn -0.0000 1.0000 -0.0000
vn 0.2681 -0.0339 -0.9628
vn -0.2492 -0.0339 -0.9678
vn 0.9678 -0.0339 -0.2492
vn 0.7136 -0.0339 -0.6998
vn 0.9628 -0.0339 0.2681
vn 0.6998 -0.0339 0.7136
vn 0.2492 -0.0339 0.9678
vn -0.2681 -0.0339 0.9628
vn -0.7136 -0.0339 0.6998
vn -0.9678 -0.0339 0.2492
vn -0.9628 -0.0339 -0.2681
vn -0.6998 -0.0339 -0.7136
vn 0.2595 -0.2524 -0.9322
vn -0.2413 -0.2524 -0.9370
vn 0.2413 -0.2524 0.9370
vn 0.6775 -0.2524 0.6909
vn 0.9322 -0.2524 0.2595
vn 0.9370 -0.2524 -0.2413
vn 0.6909 -0.2524 -0.6775
vn -0.6775 -0.2524 -0.6909
vn 0.8797 -0.4077 0.2449
vn 0.6393 -0.4077 0.6520
vn -0.9322 -0.2524 -0.2595
vn -0.2595 -0.2524 0.9322
vn -0.9370 -0.2524 0.2413
vn -0.6393 -0.4077 -0.6520
vn -0.2277 -0.4077 -0.8843
vn 0.2251 0.4307 0.8740
vn -0.2421 0.4307 0.8694
vn -0.8843 -0.4077 0.2277
vn -0.8797 -0.4077 -0.2449
vn 0.8694 0.4307 0.2421
vn 0.6319 0.4307 0.6444
vn -0.8740 0.4307 0.2251
vn -0.8694 0.4307 -0.2421
vn 0.8740 0.4307 -0.2251
vn -0.6444 0.4307 0.6319
vn -0.9543 -0.1368 -0.2657
vn -0.6936 -0.1368 -0.7073
vn 0.2470 -0.1368 0.9593
vn -0.2657 -0.1368 0.9543
vn -0.6909 -0.2524 0.6775
vn -0.2211 -0.4625 -0.8586
vn -0.6208 -0.4625 -0.6330
vn -0.6319 0.4307 -0.6444
vn -0.9593 -0.1368 0.2470
vn -0.7073 -0.1368 0.6936
vn -0.2449 -0.4077 0.8797
vn -0.6520 -0.4077 0.6393
vn 0.2277 -0.4077 0.8843
vn 0.9543 -0.1368 0.2657
vn 0.6936 -0.1368 0.7073
vn 0.9593 -0.1368 -0.2470
vn 0.6520 -0.4077 -0.6393
vn 0.8843 -0.4077 -0.2277
vn 0.2449 -0.4077 -0.8797
vn -0.2470 -0.1368 -0.9593
vn 0.6444 0.4307 -0.6319
vn 0.7073 -0.1368 -0.6936
vn 0.6208 -0.4625 0.6330
vn 0.8541 -0.4625 0.2378
vn -0.8541 -0.4625 -0.2378
vn -0.8586 -0.4625 0.2211
vn 0.2421 0.4307 -0.8694
vn -0.2251 0.4307 -0.8740
vn -0.6330 -0.4625 0.6208
vn -0.2378 -0.4625 0.8541
vn 0.2211 -0.4625 0.8586
vn 0.8586 -0.4625 -0.2211
vn 0.6330 -0.4625 -0.6208
vn 0.2378 -0.4625 -0.8541
vn 0.2657 -0.1368 -0.9543
vn -0.0000 -1.0000 -0.0000
vt 0.891999 0.474207
vt 0.784004 0.475371
vt 0.785298 0.568806
vt 0.892335 0.568244
vt 0.892672 0.095781
vt 0.786288 0.096242
vt 0.787206 0.188680
vt 0.893024 0.188252
vt 0.893024 0.189804
vt 0.787206 0.190232
vt 0.787992 0.282175
vt 0.893453 0.281855
vt 0.788340 0.373831
vt 0.893474 0.373771
vt 0.893474 0.381531
vt 0.788340 0.381590
vt 0.788083 0.473417
vt 0.894199 0.474011
vt 0.785297 0.568806
vt 0.892964 0.000000
vt 0.785926 0.000562
vt 0.786917 0.093514
vt 0.893301 0.093053
vt 0.893631 0.098088
vt 0.787248 0.098549
vt 0.788165 0.190986
vt 0.893984 0.190558
vt 0.894250 0.186648
vt 0.788432 0.187075
vt 0.789217 0.279018
vt 0.894678 0.278699
vt 0.894445 0.284565
vt 0.788984 0.284884
vt 0.789333 0.376541
vt 0.894466 0.376481
vt 0.682724 0.554138
vt 0.682724 0.487487
vt 0.664182 0.488645
vt 0.664182 0.552980
vt 0.893474 0.382588
vt 0.788340 0.382647
vt 0.788083 0.474473
vt 0.894199 0.475068
vt 0.892335 0.001124
vt 0.785297 0.001686
vt 0.786288 0.094638
vt 0.892672 0.094177
vt 0.683193 0.462291
vt 0.683193 0.395641
vt 0.664651 0.396798
vt 0.664651 0.461134
vt 0.684185 0.361860
vt 0.684185 0.295209
vt 0.665643 0.296366
vt 0.665643 0.360702
vt 0.684418 0.264010
vt 0.684418 0.197359
vt 0.665876 0.198517
vt 0.665876 0.262853
vt 0.684152 0.175404
vt 0.684152 0.108753
vt 0.665610 0.109911
vt 0.665610 0.174246
vt 0.683822 0.080044
vt 0.683822 0.013393
vt 0.665280 0.014551
vt 0.665280 0.078887
vt 0.683193 0.459969
vt 0.683193 0.393319
vt 0.664651 0.394476
vt 0.664651 0.458812
vt 0.788069 0.280964
vt 0.701217 0.289752
vt 0.701217 0.365613
vt 0.788069 0.374401
vt 0.683193 0.361008
vt 0.683193 0.294357
vt 0.664651 0.295515
vt 0.664651 0.359850
vt 0.683193 0.554251
vt 0.683193 0.487601
vt 0.664651 0.488758
vt 0.664651 0.553094
vt 0.683193 0.266238
vt 0.683193 0.199587
vt 0.664651 0.200744
vt 0.664651 0.265080
vt 0.788069 0.382247
vt 0.701217 0.391035
vt 0.701217 0.466897
vt 0.788069 0.475685
vt 0.466286 0.545755
vt 0.466286 0.364305
vt 0.453359 0.364305
vt 0.453359 0.545755
vt 0.789295 0.183966
vt 0.702442 0.192754
vt 0.702442 0.268616
vt 0.789295 0.277404
vt 0.789062 0.281815
vt 0.702209 0.290603
vt 0.702209 0.366465
vt 0.789062 0.375253
vt 0.466286 0.182856
vt 0.453359 0.182856
vt 0.466286 0.001407
vt 0.453359 0.001407
vt 0.564919 0.364305
vt 0.564919 0.182856
vt 0.564919 0.545755
vt 0.683193 0.172702
vt 0.683193 0.106052
vt 0.664651 0.107209
vt 0.664651 0.171545
vt 0.564919 0.001407
vt 0.578423 0.182856
vt 0.578423 0.001407
vt 0.788698 0.000000
vt 0.701845 0.008788
vt 0.701845 0.084650
vt 0.788698 0.093438
vt 0.783414 0.475368
vt 0.696561 0.484156
vt 0.696561 0.560018
vt 0.783414 0.568806
vt 0.788069 0.092658
vt 0.701217 0.101446
vt 0.701217 0.177308
vt 0.788069 0.186096
vt 0.788069 0.000000
vt 0.701217 0.008788
vt 0.701217 0.084650
vt 0.788069 0.093438
vt 0.789029 0.095360
vt 0.702176 0.104148
vt 0.702176 0.180009
vt 0.789029 0.188797
vt 0.788069 0.186193
vt 0.701217 0.194981
vt 0.701217 0.270843
vt 0.788069 0.279631
vt 0.578423 0.364305
vt 0.578423 0.545755
vt 0.788069 0.473363
vt 0.788069 0.379925
vt 0.701217 0.388713
vt 0.701217 0.464575
vt 0.647771 0.434654
vt 0.647299 0.434926
vt 0.648043 0.433637
vt 0.648043 0.434182
vt 0.683193 0.013393
vt 0.683193 0.080044
vt 0.678537 0.488761
vt 0.678537 0.555412
vt 0.701217 0.558857
vt 0.701217 0.482995
vt 0.664651 0.014551
vt 0.664651 0.078887
vt 0.646754 0.434926
vt 0.647771 0.433165
vt 0.647299 0.432893
vt 0.646282 0.434654
vt 0.646754 0.432893
vt 0.646010 0.434182
vt 0.646282 0.433165
vt 0.646010 0.433637
vt 0.788070 0.474207
vt 0.788070 0.567645
vt 0.999371 0.568442
vt 1.000000 0.475005
vt 0.998774 0.188305
vt 0.999041 0.095878
vt 0.998614 0.281749
vt 0.998774 0.189857
vt 0.999008 0.373431
vt 1.000000 0.472826
vt 0.999008 0.381191
vt 0.999670 0.093149
vt 1.000000 0.000198
vt 0.999734 0.190612
vt 1.000000 0.098184
vt 0.999840 0.278592
vt 1.000000 0.186701
vt 1.000000 0.376141
vt 0.999606 0.284459
vt 0.683689 0.554667
vt 0.665147 0.553509
vt 0.665147 0.489174
vt 0.683689 0.488016
vt 1.000000 0.473882
vt 0.999008 0.382247
vt 0.999041 0.094273
vt 0.999371 0.001322
vt 0.399783 0.868608
vt 0.450940 0.780003
vt 0.450940 0.677690
vt 0.311178 0.919765
vt 0.399783 0.589084
vt 0.208865 0.919765
vt 0.311178 0.537928
vt 0.120259 0.868608
vt 0.208865 0.537928
vt 0.069103 0.780003
vt 0.120259 0.589084
vt 0.069103 0.677690
s 1
f 12/1/1 24/2/2 13/3/3 1/4/4
f 2/5/5 14/6/6 15/7/7 3/8/8
f 3/9/8 15/10/7 16/11/9 4/12/10
f 4/12/10 16/11/9 17/13/11 5/14/12
f 5/15/12 17/16/11 18/17/13 6/18/14
f 6/1/14 18/2/13 19/19/15 7/4/16
f 7/20/16 19/21/15 20/22/17 8/23/18
f 8/24/18 20/25/17 21/26/19 9/27/20
f 9/28/20 21/29/19 22/30/21 10/31/22
f 10/32/22 22/33/21 23/34/23 11/35/24
f 61/36/25 59/37/26 42/38/26 43/39/25
f 11/40/24 23/41/23 24/42/2 12/43/1
f 1/44/4 13/45/3 14/46/6 2/47/5
f 71/48/27 69/49/28 47/50/28 48/51/29
f 69/52/28 67/53/30 46/54/30 47/55/28
f 67/56/30 65/57/31 45/58/32 46/59/30
f 65/60/31 63/61/33 44/62/33 45/63/32
f 63/64/33 61/65/25 43/66/25 44/67/33
f 59/68/26 57/69/34 41/70/34 42/71/26
f 34/72/35 56/73/35 58/74/36 33/75/37
f 57/76/34 55/77/38 40/78/38 41/79/34
f 50/80/39 71/81/27 48/82/29 38/83/39
f 55/84/38 53/85/40 39/86/41 40/87/38
f 27/88/42 70/89/43 72/90/44 25/91/44
f 87/92/45 85/93/46 19/94/46 18/95/45
f 29/96/47 66/97/47 68/98/48 28/99/48
f 28/100/48 68/101/48 70/102/43 27/103/42
f 91/93/49 89/104/50 17/105/50 16/94/49
f 81/92/51 79/93/52 22/94/52 21/95/51
f 93/92/53 91/93/49 16/94/49 15/95/53
f 83/104/54 81/106/51 21/107/51 20/105/54
f 80/108/55 78/109/56 77/104/56 79/93/55
f 88/110/57 86/108/58 85/93/58 87/92/57
f 53/111/40 51/112/59 37/113/59 39/114/41
f 74/115/60 78/109/61 27/116/61 25/117/60
f 79/93/52 77/104/62 23/105/62 22/94/52
f 82/110/63 80/108/55 79/93/55 81/92/63
f 84/109/64 82/115/63 81/106/63 83/104/64
f 31/118/65 62/119/65 64/120/66 30/121/67
f 32/122/68 60/123/68 62/124/65 31/125/65
f 89/104/50 87/106/45 18/107/45 17/105/50
f 92/108/69 90/109/70 89/104/70 91/93/69
f 94/110/71 92/108/69 91/93/69 93/92/71
f 36/126/72 52/127/72 54/128/73 35/129/73
f 26/130/74 49/131/74 52/132/72 36/133/72
f 78/109/56 74/115/75 73/106/75 77/104/56
f 85/93/46 83/104/54 20/105/54 19/94/46
f 95/104/76 93/106/53 15/107/53 14/105/76
f 86/108/58 84/109/64 83/104/64 85/93/58
f 96/109/77 94/115/71 93/106/71 95/104/77
f 30/134/67 64/135/66 66/136/47 29/137/47
f 35/138/73 54/139/73 56/140/35 34/141/35
f 90/109/78 92/108/79 34/142/79 33/116/78
f 80/108/80 82/110/81 29/143/81 28/142/80
f 78/109/61 80/108/80 28/142/80 27/116/61
f 32/144/68 33/145/37 58/146/36 60/147/68
f 76/93/82 95/104/76 14/105/76 13/94/82
f 73/92/83 76/93/82 13/94/82 24/95/83
f 82/115/81 84/109/84 30/116/84 29/117/81
f 84/109/84 86/108/85 31/142/85 30/116/84
f 86/108/85 88/110/86 32/143/86 31/142/85
f 88/115/86 90/109/78 33/116/78 32/117/86
f 90/109/70 88/115/57 87/106/57 89/104/70
f 92/108/79 94/110/87 35/143/87 34/142/79
f 94/115/87 96/109/88 36/116/88 35/117/87
f 96/109/88 75/108/89 26/142/89 36/116/88
f 75/108/90 96/109/77 95/104/77 76/93/90
f 77/104/62 73/106/83 24/107/83 23/105/62
f 39/148/91 37/149/91 41/150/91 40/151/91
f 52/132/91 49/131/91 50/152/91 51/153/91
f 54/128/91 52/127/91 51/112/91 53/111/91
f 56/140/91 54/139/91 53/85/91 55/84/91
f 58/74/91 56/73/91 55/77/91 57/76/91
f 60/147/91 58/146/91 57/69/91 59/68/91
f 62/124/91 60/123/91 59/154/91 61/155/91
f 64/120/91 62/119/91 61/65/91 63/64/91
f 66/136/91 64/135/91 63/61/91 65/60/91
f 68/98/91 66/97/91 65/57/91 67/56/91
f 70/102/91 68/101/91 67/53/91 69/52/91
f 72/90/91 70/89/91 69/49/91 71/48/91
f 49/156/91 72/157/91 71/81/91 50/80/91
f 51/153/59 50/152/39 38/158/39 37/159/59
f 37/149/91 38/160/91 42/161/91 41/150/91
f 43/162/91 42/161/91 38/160/91 48/163/91
f 44/164/91 43/162/91 48/163/91 47/165/91
f 45/166/91 44/164/91 47/165/91 46/167/91
f 25/168/44 72/157/44 49/156/74 26/169/74
f 74/110/75 75/108/90 76/93/90 73/92/75
f 75/108/89 74/110/60 25/143/60 26/142/89
f 12/1/1 1/4/4 97/170/92 108/171/93
f 2/5/5 3/8/8 99/172/94 98/173/95
f 3/9/8 4/12/10 100/174/96 99/175/94
f 4/12/10 5/14/12 101/176/97 100/174/96
f 5/15/12 6/18/14 102/177/98 101/178/97
f 6/1/14 7/4/16 103/170/99 102/171/98
f 7/20/16 8/23/18 104/179/100 103/180/99
f 8/24/18 9/27/20 105/181/101 104/182/100
f 9/28/20 10/31/22 106/183/102 105/184/101
f 10/32/22 11/35/24 107/185/103 106/186/102
f 145/187/104 127/188/104 126/189/105 143/190/105
f 11/40/24 12/43/1 108/191/93 107/192/103
f 1/44/4 2/47/5 98/193/95 97/194/92
f 155/48/106 132/51/106 131/50/107 153/49/107
f 153/52/107 131/55/107 130/54/108 151/53/108
f 151/56/108 130/59/108 129/58/109 149/57/109
f 149/60/109 129/63/109 128/62/110 147/61/110
f 147/64/110 128/67/110 127/66/104 145/65/104
f 143/68/105 126/71/105 125/70/111 141/69/111
f 118/72/112 117/75/113 142/74/113 140/73/112
f 141/76/111 125/79/111 124/78/114 139/77/114
f 134/80/115 122/83/115 132/82/106 155/81/106
f 139/84/114 124/87/114 123/86/116 137/85/116
f 111/88/117 109/91/118 156/90/118 154/89/117
f 171/92/119 102/95/119 103/94/120 169/93/120
f 113/96/121 112/99/122 152/98/122 150/97/121
f 112/100/122 111/103/117 154/102/117 152/101/122
f 175/93/123 100/94/123 101/105/124 173/104/124
f 165/92/125 105/95/125 106/94/126 163/93/126
f 177/92/127 99/95/127 100/94/123 175/93/123
f 167/104/128 104/105/128 105/107/125 165/106/125
f 164/108/129 163/93/129 161/104/130 162/109/130
f 172/110/131 171/92/131 169/93/132 170/108/132
f 137/111/116 123/114/116 121/113/133 135/112/133
f 158/115/134 109/117/134 111/116/135 162/109/135
f 163/93/126 106/94/126 107/105/136 161/104/136
f 166/110/137 165/92/137 163/93/129 164/108/129
f 168/109/138 167/104/138 165/106/137 166/115/137
f 115/118/139 114/121/140 148/120/140 146/119/139
f 116/122/141 115/125/139 146/124/139 144/123/141
f 173/104/124 101/105/124 102/107/119 171/106/119
f 176/108/142 175/93/142 173/104/143 174/109/143
f 178/110/144 177/92/144 175/93/142 176/108/142
f 120/126/145 119/129/146 138/128/146 136/127/145
f 110/130/147 120/133/145 136/132/145 133/131/147
f 162/109/130 161/104/130 157/106/148 158/115/148
f 169/93/120 103/94/120 104/105/128 167/104/128
f 179/104/149 98/105/149 99/107/127 177/106/127
f 170/108/132 169/93/132 167/104/138 168/109/138
f 180/109/150 179/104/150 177/106/144 178/115/144
f 114/134/140 113/137/121 150/136/121 148/135/140
f 119/138/146 118/141/112 140/140/112 138/139/146
f 174/109/151 117/116/151 118/142/152 176/108/152
f 164/108/153 112/142/153 113/143/154 166/110/154
f 162/109/135 111/116/135 112/142/153 164/108/153
f 116/144/141 144/147/141 142/146/113 117/145/113
f 160/93/155 97/94/155 98/105/149 179/104/149
f 157/92/156 108/95/156 97/94/155 160/93/155
f 166/115/154 113/117/154 114/116/157 168/109/157
f 168/109/157 114/116/157 115/142/158 170/108/158
f 170/108/158 115/142/158 116/143/159 172/110/159
f 172/115/159 116/117/159 117/116/151 174/109/151
f 174/109/143 173/104/143 171/106/131 172/115/131
f 176/108/152 118/142/152 119/143/160 178/110/160
f 178/115/160 119/117/160 120/116/161 180/109/161
f 180/109/161 120/116/161 110/142/162 159/108/162
f 159/108/163 160/93/163 179/104/150 180/109/150
f 161/104/136 107/105/136 108/107/156 157/106/156
f 123/195/164 124/196/164 125/197/164 121/198/164
f 136/132/164 135/153/164 134/152/164 133/131/164
f 138/128/164 137/111/164 135/112/164 136/127/164
f 140/140/164 139/84/164 137/85/164 138/139/164
f 142/74/164 141/76/164 139/77/164 140/73/164
f 144/147/164 143/68/164 141/69/164 142/146/164
f 146/124/164 145/155/164 143/154/164 144/123/164
f 148/120/164 147/64/164 145/65/164 146/119/164
f 150/136/164 149/60/164 147/61/164 148/135/164
f 152/98/164 151/56/164 149/57/164 150/97/164
f 154/102/164 153/52/164 151/53/164 152/101/164
f 156/90/164 155/48/164 153/49/164 154/89/164
f 133/156/164 134/80/164 155/81/164 156/157/164
f 135/153/133 121/159/133 122/158/115 134/152/115
f 121/198/164 125/197/164 126/199/164 122/200/164
f 127/201/164 132/202/164 122/200/164 126/199/164
f 128/203/164 131/204/164 132/202/164 127/201/164
f 129/205/164 130/206/164 131/204/164 128/203/164
f 109/168/118 110/169/147 133/156/147 156/157/118
f 158/110/148 157/92/148 160/93/163 159/108/163
f 159/108/162 110/142/162 109/143/134 158/110/134
