# Blender 4.2.3 LTS
# www.blender.org
o Cylinder.001
v 0.000000 2.257058 -2.330025
v 0.039663 2.262995 -2.323743
v 0.039663 2.282647 -2.323743
v 0.000000 2.288584 -2.330025
v 0.075443 2.262995 -2.305512
v 0.075443 2.282647 -2.305512
v 0.103838 2.257058 -2.277117
v 0.103838 2.288584 -2.277117
v 0.122069 2.257058 -2.241337
v 0.122069 2.288584 -2.241337
v 0.128351 2.257058 -2.201674
v 0.128351 2.288584 -2.201674
v 0.122069 2.262995 -2.162012
v 0.122069 2.282647 -2.162012
v 0.103838 2.257058 -2.126232
v 0.103838 2.288584 -2.126232
v 0.075443 2.257058 -2.097836
v 0.075443 2.288584 -2.097836
v 0.039663 2.257058 -2.079605
v 0.039663 2.288584 -2.079605
v 0.000000 2.257058 -2.073323
v 0.000000 2.288584 -2.073323
v -0.039663 2.257058 -2.079605
v -0.039663 2.288584 -2.079605
v -0.075443 2.260931 -2.097836
v -0.075443 2.284711 -2.097836
v -0.103838 2.257058 -2.126232
v -0.103838 2.288584 -2.126232
v -0.122069 2.257058 -2.162012
v -0.122069 2.288584 -2.162012
v -0.128351 2.263014 -2.201674
v -0.128351 2.282628 -2.201674
v -0.122069 2.257058 -2.241337
v -0.122069 2.288584 -2.241337
v -0.103838 2.257058 -2.277117
v -0.103838 2.288584 -2.277117
v -0.075443 2.257058 -2.305512
v -0.075443 2.288584 -2.305512
v -0.039663 2.257058 -2.323743
v -0.039663 2.288584 -2.323743
v 0.000000 2.258873 -2.330025
v 0.039663 2.264126 -2.323743
v 0.039663 2.281515 -2.323743
v 0.000000 2.286769 -2.330025
v 0.075443 2.264126 -2.305512
v 0.075443 2.281515 -2.305512
v 0.103838 2.258873 -2.277117
v 0.103838 2.286769 -2.277117
v 0.122069 2.258873 -2.241337
v 0.122069 2.286769 -2.241337
v 0.128351 2.258873 -2.201674
v 0.128351 2.286769 -2.201674
v 0.122069 2.264126 -2.162012
v 0.122069 2.281515 -2.162012
v 0.103838 2.258873 -2.126232
v 0.103838 2.286769 -2.126232
v 0.075443 2.258873 -2.097836
v 0.075443 2.286769 -2.097836
v 0.039663 2.258873 -2.079605
v 0.039663 2.286769 -2.079605
v 0.000000 2.258873 -2.073323
v 0.000000 2.286769 -2.073323
v -0.039663 2.258873 -2.079605
v -0.039663 2.286769 -2.079605
v -0.075443 2.262300 -2.097836
v -0.075443 2.283341 -2.097836
v -0.103838 2.258873 -2.126232
v -0.103838 2.286769 -2.126232
v -0.122069 2.258873 -2.162012
v -0.122069 2.286769 -2.162012
v -0.128351 2.264143 -2.201674
v -0.128351 2.281499 -2.201674
v -0.122069 2.258873 -2.241337
v -0.122069 2.286769 -2.241337
v -0.103838 2.258873 -2.277117
v -0.103838 2.286769 -2.277117
v -0.075443 2.258873 -2.305512
v -0.075443 2.286769 -2.305512
v -0.039663 2.258873 -2.323743
v -0.039663 2.286769 -2.323743
v 0.000000 2.256957 -2.330843
v 0.000000 2.261749 -2.332972
v 0.000000 2.283893 -2.332972
v 0.000000 2.288685 -2.330843
v 0.040573 2.266107 -2.326545
v 0.039914 2.262933 -2.324517
v 0.039914 2.282709 -2.324517
v 0.040573 2.279534 -2.326545
v 0.077175 2.266108 -2.307896
v 0.075920 2.262933 -2.306170
v 0.075920 2.282709 -2.306170
v 0.077175 2.279534 -2.307896
v 0.106222 2.261751 -2.278849
v 0.104498 2.256958 -2.277596
v 0.104498 2.288684 -2.277596
v 0.106222 2.283891 -2.278849
v 0.124871 2.261750 -2.242247
v 0.122847 2.256957 -2.241590
v 0.122847 2.288685 -2.241590
v 0.124871 2.283891 -2.242247
v 0.131297 2.261751 -2.201674
v 0.129169 2.256957 -2.201674
v 0.129169 2.288685 -2.201674
v 0.131297 2.283890 -2.201674
v 0.124871 2.266109 -2.161101
v 0.122848 2.262932 -2.161759
v 0.122848 2.282710 -2.161759
v 0.124871 2.279533 -2.161101
v 0.106222 2.261750 -2.124500
v 0.104504 2.256957 -2.125748
v 0.104504 2.288685 -2.125748
v 0.106222 2.283892 -2.124500
v 0.077175 2.261748 -2.095453
v 0.075929 2.256956 -2.097167
v 0.075929 2.288686 -2.097167
v 0.077175 2.283894 -2.095453
v 0.040573 2.261747 -2.076803
v 0.039919 2.256956 -2.078817
v 0.039919 2.288686 -2.078817
v 0.040573 2.283895 -2.076803
v 0.000000 2.261747 -2.070377
v 0.000000 2.256956 -2.072495
v 0.000000 2.288686 -2.072495
v 0.000000 2.283895 -2.070377
v -0.040573 2.261748 -2.076803
v -0.039918 2.256956 -2.078820
v -0.039918 2.288686 -2.078820
v -0.040573 2.283894 -2.076803
v -0.077175 2.264591 -2.095453
v -0.075927 2.260855 -2.097170
v -0.075927 2.284787 -2.097170
v -0.077175 2.281050 -2.095453
v -0.106222 2.261750 -2.124500
v -0.104503 2.256957 -2.125748
v -0.104503 2.288685 -2.125748
v -0.106222 2.283892 -2.124500
v -0.124871 2.261751 -2.161101
v -0.122850 2.256957 -2.161758
v -0.122850 2.288685 -2.161758
v -0.124871 2.283890 -2.161101
v -0.131297 2.266123 -2.201674
v -0.129170 2.262951 -2.201674
v -0.129170 2.282691 -2.201674
v -0.131297 2.279519 -2.201674
v -0.124871 2.261750 -2.242247
v -0.122851 2.256957 -2.241591
v -0.122851 2.288685 -2.241591
v -0.124871 2.283892 -2.242247
v -0.106222 2.261748 -2.278849
v -0.104505 2.256957 -2.277601
v -0.104505 2.288685 -2.277601
v -0.106222 2.283894 -2.278849
v -0.077175 2.261747 -2.307896
v -0.075927 2.256957 -2.306180
v -0.075927 2.288685 -2.306180
v -0.077175 2.283895 -2.307896
v -0.040573 2.261748 -2.326545
v -0.039917 2.256957 -2.324526
v -0.039917 2.288685 -2.324526
v -0.040573 2.283894 -2.326545
vn -0.3090 -0.0000 -0.9511
vn -0.0193 -0.0000 -0.9998
vn 0.0458 -0.9944 0.0949
vn -0.1037 -0.9944 0.0187
vn -0.0981 -0.9949 0.0229
vn 0.0392 -0.9949 0.0928
vn -0.1389 -0.9902 0.0158
vn -0.1421 -0.9898 0.0112
vn -0.1159 -0.9925 0.0377
vn -0.1216 -0.9902 0.0689
vn -0.1216 -0.9898 0.0745
vn -0.0726 -0.9971 -0.0236
vn -0.0579 -0.9902 -0.1272
vn -0.0546 -0.9898 -0.1317
vn -0.0716 -0.9925 -0.0986
vn -0.0377 -0.9925 -0.1159
vn -0.0000 -0.9925 -0.1219
vn -0.0069 -0.9915 -0.1303
vn -0.0089 -0.9914 -0.1309
vn 0.0542 -0.9957 -0.0746
vn 0.1260 -0.9915 -0.0337
vn 0.1273 -0.9914 -0.0320
vn 0.0943 -0.9902 -0.1033
vn 0.0925 -0.9898 -0.1086
vn 0.0762 -0.9971 -0.0000
vn 0.0943 -0.9902 0.1033
vn 0.0925 -0.9898 0.1086
vn 0.0986 -0.9925 0.0717
vn 0.0717 -0.9925 0.0986
vn 0.0377 -0.9925 0.1159
vn 0.0689 -0.9902 0.1216
vn 0.0745 -0.9898 0.1216
vn 0.0377 0.9925 0.1159
vn 0.0716 0.9925 0.0986
vn -0.0000 0.9925 -0.1219
vn -0.0377 0.9925 -0.1159
vn 0.0689 0.9902 0.1216
vn 0.0745 0.9898 0.1216
vn -0.9449 -0.0000 0.3274
vn -1.0000 -0.0000 -0.0000
vn 0.9998 -0.0000 -0.0193
vn 0.9511 -0.0000 0.3090
vn 0.2942 -0.0000 -0.9557
vn 0.0943 0.9902 -0.1033
vn 0.1260 0.9915 -0.0337
vn 0.1273 0.9914 -0.0320
vn 0.0925 0.9898 -0.1086
vn -0.1216 0.9902 0.0689
vn -0.1159 0.9925 0.0377
vn -0.1216 0.9898 0.0745
vn -0.5878 -0.0000 -0.8090
vn 0.3090 -0.0000 0.9511
vn -0.0000 -0.0000 1.0000
vn 0.0986 0.9925 0.0716
vn -0.0716 0.9925 -0.0986
vn -0.8162 -0.0000 0.5777
vn 0.9511 -0.0000 -0.3090
vn 0.0542 0.9957 -0.0746
vn -0.1389 0.9902 0.0158
vn -0.1421 0.9898 0.0112
vn -0.8090 -0.0000 -0.5878
vn 0.5878 -0.0000 0.8090
vn -0.8247 -0.0000 0.5656
vn -0.9511 -0.0000 0.3090
vn -0.7981 -0.0000 0.6026
vn -0.0000 -0.0000 -1.0000
vn -0.0787 0.9318 -0.3544
vn -0.0080 0.9526 -0.3041
vn 0.9423 -0.0000 0.3348
vn 0.8090 -0.0000 0.5878
vn 0.9566 -0.0000 0.2914
vn -0.6040 -0.0000 0.7970
vn -0.1087 0.9923 0.0594
vn -0.2630 0.9487 0.1754
vn 1.0000 -0.0000 -0.0000
vn -0.5682 -0.0000 0.8229
vn -0.2056 0.9470 -0.2470
vn -0.2897 -0.0000 0.9571
vn 0.0159 0.9923 0.1229
vn 0.9423 -0.0000 -0.3348
vn 0.9566 -0.0000 -0.2914
vn -0.3318 -0.0000 0.9434
vn -0.7927 -0.0000 -0.6096
vn -0.2879 0.9348 -0.2078
vn 0.0272 -0.0000 0.9996
vn -0.0184 -0.0000 0.9998
vn -0.8197 -0.0000 -0.5728
vn 0.8192 -0.0000 -0.5735
vn 0.8014 -0.0000 -0.5982
vn -0.2972 -0.0000 0.9548
vn -0.0726 0.9971 -0.0236
vn 0.0762 0.9971 -0.0000
vn 0.7975 -0.0000 0.6033
vn -0.9449 -0.0000 -0.3274
vn -0.1037 0.9944 0.0187
vn 0.0458 0.9944 0.0949
vn 0.0392 0.9949 0.0928
vn -0.0981 0.9949 0.0229
vn -0.0069 0.9915 -0.1303
vn -0.0089 0.9914 -0.1309
vn 0.6003 -0.0000 -0.7998
vn 0.8202 -0.0000 -0.5720
vn -0.5878 -0.0000 0.8090
vn -0.0579 0.9902 -0.1272
vn -0.0546 0.9898 -0.1317
vn 0.0943 0.9902 0.1033
vn 0.0925 0.9898 0.1086
vn 0.0202 0.9990 -0.0397
vn -0.2958 0.9504 0.0961
vn -0.0000 1.0000 -0.0000
vn -0.3669 0.9296 0.0340
vn -0.0142 0.9989 0.0437
vn -0.2196 0.9727 -0.0750
vn 0.0121 0.9999 -0.0004
vn 0.0030 1.0000 -0.0041
vn -0.0182 0.9998 0.0102
vn 0.0194 0.9980 -0.0597
vn -0.0107 0.9998 0.0148
vn 0.0472 0.9635 -0.2636
vn 0.1130 0.9813 -0.1555
vn 0.0202 -0.9990 -0.0397
vn 0.1770 -0.9209 -0.3474
vn -0.0000 -1.0000 -0.0000
vn -0.0141 -0.9990 0.0435
vn -0.0142 -0.9989 0.0437
vn 0.0118 -0.9999 0.0001
vn 0.0121 -0.9999 -0.0004
vn 0.0034 -1.0000 -0.0047
vn 0.0030 -1.0000 -0.0041
vn -0.0190 -0.9997 0.0118
vn -0.0182 -0.9998 0.0102
vn 0.0195 -0.9980 -0.0601
vn 0.0194 -0.9980 -0.0597
vn -0.0084 -0.9999 0.0115
vn -0.0107 -0.9998 0.0148
vn -0.0814 -0.9904 0.1120
vn 0.2923 -0.0000 -0.9563
vn 0.3213 -0.0000 -0.9470
vn -0.9996 -0.0000 0.0272
vn -0.9998 -0.0000 -0.0184
vn 0.5878 -0.0000 -0.8090
vn -0.9511 -0.0000 -0.3090
vn 0.0467 -0.4443 -0.8947
vn 0.3029 -0.5196 -0.7989
vn 0.2805 -0.5089 -0.8138
vn 0.0008 -0.4354 -0.9002
vn 0.3029 0.5196 -0.7989
vn 0.0467 0.4443 -0.8947
vn 0.0008 0.4354 -0.9002
vn 0.2805 0.5089 -0.8138
vn 0.4683 -0.5196 -0.7146
vn 0.4935 -0.5090 -0.7052
vn 0.4683 0.5197 -0.7146
vn 0.4935 0.5090 -0.7052
vn 0.6963 -0.4445 -0.5636
vn 0.7277 -0.4357 -0.5297
vn 0.6963 0.4445 -0.5636
vn 0.7277 0.4357 -0.5297
vn 0.8692 -0.4058 -0.2824
vn 0.8692 0.4058 -0.2824
vn 0.8949 -0.4439 0.0466
vn 0.9003 -0.4352 0.0007
vn 0.8949 0.4439 0.0466
vn 0.9003 0.4352 0.0007
vn 0.8410 -0.4669 0.2733
vn 0.8410 0.4670 0.2733
vn 0.7516 -0.4434 0.4884
vn 0.7291 -0.4346 0.5288
vn 0.7516 0.4434 0.4884
vn 0.7291 0.4346 0.5288
vn 0.5375 -0.4047 0.7398
vn 0.5375 0.4047 0.7398
vn 0.2826 -0.4044 0.8698
vn 0.2826 0.4045 0.8698
vn -0.0000 -0.4045 0.9145
vn -0.0000 0.4045 0.9145
vn -0.3070 -0.4277 0.8502
vn -0.2805 -0.4241 0.8611
vn -0.3070 0.4277 0.8502
vn -0.2805 0.4241 0.8611
vn -0.5269 -0.4433 0.7252
vn -0.5269 0.4433 0.7252
vn -0.7136 -0.4281 0.5545
vn -0.7321 -0.4246 0.5327
vn -0.7136 0.4282 0.5545
vn -0.7321 0.4246 0.5327
vn -0.8656 -0.4437 0.2321
vn -0.8566 -0.4349 0.2776
vn -0.8656 0.4437 0.2321
vn -0.8566 0.4349 0.2776
vn -0.8842 -0.4670 -0.0000
vn -0.8842 0.4670 -0.0000
vn -0.8657 -0.4436 -0.2321
vn -0.8567 -0.4348 -0.2776
vn -0.8657 0.4436 -0.2321
vn -0.8567 0.4348 -0.2776
vn -0.7397 -0.4050 -0.5374
vn -0.7397 0.4050 -0.5374
vn -0.5374 -0.4050 -0.7397
vn -0.5374 0.4050 -0.7397
vn -0.2824 -0.4054 -0.8694
vn -0.2825 -0.4054 -0.8694
vn -0.2824 0.4054 -0.8694
vn -0.2825 0.4054 -0.8694
vt 0.189618 0.271658
vt 0.045455 0.271083
vt 0.047093 0.192215
vt 0.188362 0.192200
vt 0.305393 0.087344
vt 0.303248 0.167833
vt 0.301593 0.167371
vt 0.303793 0.087539
vt 0.267988 0.248747
vt 0.266413 0.248233
vt 0.264717 0.328511
vt 0.262935 0.328508
vt 0.268363 0.407510
vt 0.266786 0.407980
vt 0.301251 0.490356
vt 0.299404 0.490348
vt 0.267863 0.572656
vt 0.266284 0.572176
vt 0.264707 0.651910
vt 0.262935 0.651873
vt 0.264916 0.732201
vt 0.263167 0.732202
vt 0.265118 0.812294
vt 0.263370 0.812288
vt 0.264754 0.891890
vt 0.263019 0.891621
vt 0.219474 0.909028
vt 0.197672 0.828176
vt 0.199445 0.828166
vt 0.220926 0.908186
vt 0.218575 0.747746
vt 0.220225 0.748020
vt 0.216890 0.670573
vt 0.218470 0.670126
vt 0.184158 0.589058
vt 0.185986 0.589064
vt 0.217241 0.508039
vt 0.218797 0.508517
vt 0.220608 0.429970
vt 0.222352 0.430015
vt 0.220888 0.350784
vt 0.222610 0.350792
vt 0.221449 0.271345
vt 0.223189 0.271321
vt 0.218735 0.192873
vt 0.220309 0.192370
vt 0.013718 0.270793
vt 0.013747 0.350121
vt 0.012025 0.350118
vt 0.011975 0.270755
vt 0.474161 0.812066
vt 0.474197 0.732051
vt 0.475946 0.732050
vt 0.475908 0.812054
vt 0.016658 0.192258
vt 0.015089 0.191736
vt 0.186869 0.669110
vt 0.046720 0.670190
vt 0.071542 0.588756
vt 0.161876 0.589674
vt 0.298710 0.409058
vt 0.441166 0.408580
vt 0.415520 0.490808
vt 0.323836 0.489747
vt 0.073643 0.111929
vt 0.162441 0.112671
vt 0.016383 0.671176
vt 0.016001 0.748678
vt 0.014352 0.748967
vt 0.014802 0.670738
vt 0.471744 0.408010
vt 0.475288 0.328501
vt 0.477070 0.328508
vt 0.473315 0.408492
vt 0.189412 0.350646
vt 0.045225 0.350179
vt 0.296732 0.732243
vt 0.442399 0.732160
vt 0.442465 0.812322
vt 0.296883 0.812500
vt 0.013511 0.429596
vt 0.011769 0.429627
vt 0.474327 0.651715
vt 0.476097 0.651680
vt 0.187770 0.748639
vt 0.046552 0.749645
vt 0.297264 0.328380
vt 0.442786 0.328738
vt 0.037593 0.829375
vt 0.035815 0.829374
vt 0.471975 0.249044
vt 0.473554 0.248541
vt 0.188960 0.429672
vt 0.045281 0.429269
vt 0.296756 0.652080
vt 0.442161 0.652129
vt 0.250817 0.328612
vt 0.256034 0.243097
vt 0.487883 0.732042
vt 0.487847 0.811993
vt 0.234316 0.430334
vt 0.228994 0.513365
vt 0.438857 0.167246
vt 0.445791 0.164292
vt 0.484234 0.243721
vt 0.251431 0.812268
vt 0.251218 0.732225
vt 0.015241 0.508008
vt 0.047441 0.589436
vt 0.039963 0.589291
vt 0.004668 0.512649
vt 0.294744 0.164349
vt 0.488017 0.651291
vt 0.193481 0.589224
vt 0.436339 0.087384
vt 0.443615 0.087063
vt 0.250817 0.651609
vt 0.004456 0.666175
vt 0.296355 0.087357
vt 0.472445 0.572438
vt 0.483155 0.567733
vt 0.229199 0.665633
vt 0.050449 0.112588
vt 0.004760 0.186598
vt 0.045867 0.106786
vt 0.255934 0.567298
vt 0.002951 0.752029
vt 0.442915 0.892778
vt 0.296706 0.892858
vt 0.438107 0.490220
vt 0.439954 0.490230
vt 0.049266 0.589439
vt 0.440589 0.571427
vt 0.298372 0.572077
vt 0.046695 0.509050
vt 0.187129 0.508546
vt 0.437197 0.167708
vt 0.434741 0.087194
vt 0.474784 0.891625
vt 0.476516 0.891348
vt 0.052010 0.113198
vt 0.325159 0.167330
vt 0.415167 0.167802
vt 0.441379 0.248203
vt 0.298704 0.248643
vt 0.189142 0.907978
vt 0.047192 0.909317
vt 0.063125 0.828846
vt 0.172129 0.828882
vt 0.326226 0.087221
vt 0.413779 0.086884
vt 0.470862 0.572910
vt 0.016803 0.507543
vt 0.016497 0.909921
vt 0.015041 0.909101
vt 0.834748 0.953084
vt 0.760846 0.964789
vt 0.954326 0.866207
vt 0.901417 0.919115
vt 0.988295 0.799537
vt 0.686942 0.953084
vt 1.000000 0.725635
vt 0.620274 0.919115
vt 0.988295 0.651731
vt 0.567365 0.866207
vt 0.954326 0.585063
vt 0.533395 0.799537
vt 0.901416 0.532154
vt 0.521690 0.725635
vt 0.834748 0.498185
vt 0.533395 0.651731
vt 0.760846 0.486480
vt 0.567365 0.585063
vt 0.686942 0.498185
vt 0.620274 0.532154
vt 0.760846 0.478309
vt 0.834748 0.466605
vt 0.901416 0.432635
vt 0.954326 0.379726
vt 0.988295 0.313057
vt 0.686942 0.466605
vt 1.000000 0.239155
vt 0.620274 0.432635
vt 0.988295 0.165252
vt 0.567365 0.379726
vt 0.954326 0.098583
vt 0.533395 0.313057
vt 0.901416 0.045674
vt 0.521691 0.239155
vt 0.834748 0.011705
vt 0.533395 0.165252
vt 0.760846 0.000000
vt 0.567365 0.098583
vt 0.686942 0.011705
vt 0.620274 0.045674
vt 0.000000 0.429988
vt 0.251085 0.891555
vt 0.489181 0.328436
vt 0.234406 0.350849
vt 0.488454 0.891233
vt 0.256078 0.412703
vt 0.000229 0.350108
vt 0.208431 0.828194
vt 0.230895 0.902057
vt 0.483643 0.413413
vt 0.234961 0.271007
vt 0.005419 0.902994
vt 0.026728 0.829271
vt 0.291809 0.490180
vt 0.000000 0.270494
vt 0.231283 0.750992
vt 0.447553 0.490410
vt 0.230839 0.187573
vt 0.185836 0.113033
vt 0.190817 0.107484
vt 0.184259 0.113633
s 1
f 157/1/1 160/2/1 83/3/2 82/4/2
f 86/5/3 90/6/4 5/7/5 2/8/6
f 90/6/4 94/9/7 7/10/8 5/7/5
f 94/9/7 98/11/9 9/12/9 7/10/8
f 98/11/9 102/13/10 11/14/11 9/12/9
f 102/13/10 106/15/12 13/16/12 11/14/11
f 106/15/12 110/17/13 15/18/14 13/16/12
f 110/17/13 114/19/15 17/20/15 15/18/14
f 114/19/15 118/21/16 19/22/16 17/20/15
f 118/21/16 122/23/17 21/24/17 19/22/16
f 122/23/17 126/25/18 23/26/19 21/24/17
f 126/27/18 130/28/20 25/29/20 23/30/19
f 130/28/20 134/31/21 27/32/22 25/29/20
f 134/31/21 138/33/23 29/34/24 27/32/22
f 138/33/23 142/35/25 31/36/25 29/34/24
f 142/35/25 146/37/26 33/38/27 31/36/25
f 146/37/26 150/39/28 35/40/28 33/38/27
f 150/39/28 154/41/29 37/42/29 35/40/28
f 154/41/29 158/43/30 39/44/30 37/42/29
f 158/43/30 81/45/31 1/46/32 39/44/30
f 159/47/33 155/48/34 38/49/34 40/50/33
f 123/51/35 119/52/36 20/53/36 22/54/35
f 84/55/37 159/47/33 40/50/33 4/56/38
f 137/57/39 140/58/39 144/59/40 141/60/40
f 101/61/41 104/62/41 108/63/42 105/64/42
f 82/4/2 83/3/2 88/65/43 85/66/43
f 139/67/44 135/68/45 28/69/46 30/70/47
f 103/71/48 99/72/49 10/73/49 12/74/50
f 153/75/51 156/76/51 160/2/1 157/1/1
f 117/77/52 120/78/52 124/79/53 121/80/53
f 155/48/34 151/81/54 36/82/54 38/49/34
f 119/52/36 115/83/55 18/84/55 20/53/36
f 133/85/56 136/86/56 140/58/39 137/57/39
f 97/87/57 100/88/57 104/62/41 101/61/41
f 135/68/45 131/89/58 26/90/58 28/69/46
f 99/72/49 95/91/59 8/92/60 10/73/49
f 149/93/61 152/94/61 156/76/51 153/75/51
f 113/95/62 116/96/62 120/78/52 117/77/52
f 7/10/63 9/12/64 49/97/64 47/98/65
f 22/54/66 20/53/1 60/99/67 62/100/68
f 33/38/69 35/40/70 75/101/70 73/102/71
f 8/92/63 6/103/72 46/104/73 48/105/74
f 19/22/1 21/24/66 61/106/66 59/107/1
f 34/108/69 32/109/75 72/110/75 74/111/71
f 5/7/72 7/10/63 47/98/65 45/112/76
f 20/53/1 18/84/51 58/113/77 60/99/67
f 31/36/75 33/38/69 73/102/71 71/114/75
f 6/103/72 3/115/78 43/116/79 46/104/73
f 17/20/51 19/22/1 59/107/1 57/117/51
f 32/109/75 30/70/80 70/118/81 72/110/75
f 2/8/78 5/7/72 45/112/76 42/119/82
f 18/84/51 16/120/83 56/121/84 58/113/77
f 29/34/80 31/36/75 71/114/75 69/122/81
f 3/123/78 4/56/85 44/124/86 43/125/79
f 15/18/83 17/20/51 57/117/51 55/126/87
f 30/70/80 28/69/88 68/127/89 70/118/81
f 121/80/53 124/79/53 128/128/90 125/129/90
f 107/130/91 103/71/48 12/74/50 14/131/91
f 143/132/92 139/67/44 30/70/47 32/109/92
f 105/64/42 108/63/42 112/133/93 109/134/93
f 141/60/40 144/59/40 148/135/94 145/136/94
f 91/137/95 87/138/96 3/115/97 6/103/98
f 127/139/99 123/51/35 22/54/35 24/140/100
f 87/141/96 84/55/37 4/56/38 3/123/97
f 89/142/101 92/143/101 96/144/102 93/145/102
f 125/146/90 128/147/90 132/148/103 129/149/103
f 85/150/43 88/151/43 92/143/101 89/142/101
f 111/152/104 107/130/91 14/131/91 16/120/105
f 147/153/106 143/132/92 32/109/92 34/108/107
f 109/134/93 112/133/93 116/96/62 113/95/62
f 145/136/94 148/135/94 152/94/61 149/93/61
f 95/91/59 91/137/95 6/103/98 8/92/60
f 131/89/58 127/154/99 24/155/100 26/90/58
f 93/145/102 96/144/102 100/88/57 97/87/57
f 129/149/103 132/148/103 136/86/56 133/85/56
f 115/83/55 111/152/104 16/120/105 18/84/55
f 151/81/54 147/153/106 34/108/107 36/82/54
f 43/156/79 44/157/108 48/158/74 46/159/73
f 50/160/109 48/158/74 44/157/108 80/161/110
f 52/162/111 50/160/109 80/161/110 78/163/112
f 54/164/113 52/162/111 78/163/112 76/165/114
f 56/166/84 54/164/113 76/165/114 74/167/115
f 58/168/77 56/166/84 74/167/115 72/169/116
f 60/170/67 58/168/77 72/169/116 70/171/117
f 62/172/68 60/170/67 70/171/117 68/173/118
f 64/174/119 62/172/68 68/173/118 66/175/120
f 41/176/121 42/177/122 45/178/122 47/179/121
f 47/179/121 49/180/123 79/181/123 41/176/121
f 49/180/123 51/182/124 77/183/125 79/181/123
f 51/182/124 53/184/126 75/185/127 77/183/125
f 53/184/126 55/186/128 73/187/129 75/185/127
f 55/186/128 57/188/130 71/189/131 73/187/129
f 57/188/130 59/190/132 69/191/133 71/189/131
f 59/190/132 61/192/134 67/193/135 69/191/133
f 61/192/134 63/194/136 65/195/136 67/193/135
f 36/82/70 34/108/69 74/111/71 76/196/70
f 21/24/66 23/26/137 63/197/138 61/106/66
f 10/73/64 8/92/63 48/105/74 50/198/109
f 35/40/70 37/42/62 77/199/62 75/101/70
f 24/140/137 22/54/66 62/100/68 64/200/119
f 9/12/64 11/14/139 51/201/140 49/97/64
f 38/49/62 36/82/70 76/196/70 78/202/62
f 23/30/137 25/29/141 65/203/141 63/204/138
f 12/74/139 10/73/64 50/198/109 52/205/111
f 37/42/62 39/44/52 79/206/52 77/199/62
f 26/90/141 24/155/137 64/207/119 66/208/120
f 11/14/139 13/16/142 53/209/142 51/201/140
f 40/50/52 38/49/62 78/202/62 80/210/52
f 25/29/141 27/32/88 67/211/89 65/203/141
f 14/131/142 12/74/139 52/205/111 54/212/113
f 39/44/52 1/46/85 41/213/86 79/206/52
f 28/69/88 26/90/141 66/208/120 68/127/89
f 13/16/142 15/18/83 55/126/87 53/209/142
f 4/56/85 40/50/52 80/210/52 44/124/86
f 27/32/88 29/34/80 69/122/81 67/211/89
f 16/120/83 14/131/142 54/212/113 56/121/84
f 1/46/85 2/214/78 42/215/82 41/213/86
f 82/4/143 85/66/144 86/216/145 81/45/146
f 88/65/147 83/3/148 84/55/149 87/141/150
f 85/150/144 89/142/151 90/6/152 86/5/145
f 92/143/153 88/151/147 87/138/150 91/137/154
f 89/142/151 93/145/155 94/9/156 90/6/152
f 96/144/157 92/143/153 91/137/154 95/91/158
f 93/145/155 97/87/159 98/11/159 94/9/156
f 100/88/160 96/144/157 95/91/158 99/72/160
f 97/87/159 101/61/161 102/13/162 98/11/159
f 104/62/163 100/88/160 99/72/160 103/71/164
f 101/61/161 105/64/165 106/15/165 102/13/162
f 108/63/166 104/62/163 103/71/164 107/130/166
f 105/64/165 109/134/167 110/17/168 106/15/165
f 112/133/169 108/63/166 107/130/166 111/152/170
f 109/134/167 113/95/171 114/19/171 110/17/168
f 116/96/172 112/133/169 111/152/170 115/83/172
f 113/95/171 117/77/173 118/21/173 114/19/171
f 120/78/174 116/96/172 115/83/172 119/52/174
f 117/77/173 121/80/175 122/23/175 118/21/173
f 124/79/176 120/78/174 119/52/174 123/51/176
f 121/80/175 125/129/177 126/25/178 122/23/175
f 128/128/179 124/79/176 123/51/176 127/139/180
f 125/146/177 129/149/181 130/28/181 126/27/178
f 132/148/182 128/147/179 127/154/180 131/89/182
f 129/149/181 133/85/183 134/31/184 130/28/181
f 136/86/185 132/148/182 131/89/182 135/68/186
f 133/85/183 137/57/187 138/33/188 134/31/184
f 140/58/189 136/86/185 135/68/186 139/67/190
f 137/57/187 141/60/191 142/35/191 138/33/188
f 144/59/192 140/58/189 139/67/190 143/132/192
f 141/60/191 145/136/193 146/37/194 142/35/191
f 148/135/195 144/59/192 143/132/192 147/153/196
f 145/136/193 149/93/197 150/39/197 146/37/194
f 152/94/198 148/135/195 147/153/196 151/81/198
f 149/93/197 153/75/199 154/41/199 150/39/197
f 156/76/200 152/94/198 151/81/198 155/48/200
f 153/75/199 157/1/201 158/43/202 154/41/199
f 160/2/203 156/76/200 155/48/200 159/47/204
f 157/1/201 82/4/143 81/45/146 158/43/202
f 83/3/148 160/2/203 159/47/204 84/55/149
f 81/45/31 86/216/3 2/214/6 1/46/32
