# Blender 4.2.3 LTS
# www.blender.org
o Dartboard
v -0.128647 1.252474 -1.232950
v 0.128647 1.252474 -1.232950
v -0.128647 0.780644 -1.139098
v 0.128647 0.780644 -1.139098
v -0.128647 0.380646 -0.871828
v 0.128647 0.380646 -0.871828
v -0.128647 0.113376 -0.471830
v 0.128647 0.113376 -0.471830
v -0.128647 0.019523 0.000000
v 0.128647 0.019523 0.000000
v -0.128647 0.113376 0.471830
v 0.128647 0.113376 0.471830
v -0.128647 0.380646 0.871828
v 0.128647 0.380646 0.871828
v -0.128647 0.780644 1.139098
v 0.128647 0.780644 1.139098
v -0.128647 1.252474 1.232950
v 0.128647 1.252474 1.232950
v -0.128647 1.724303 1.139098
v 0.128647 1.724303 1.139098
v -0.128647 2.124301 0.871828
v 0.128647 2.124301 0.871828
v -0.128647 2.391571 0.471830
v 0.128647 2.391571 0.471830
v -0.128647 2.485424 0.000000
v 0.128647 2.485424 0.000000
v -0.128647 2.391571 -0.471830
v 0.128647 2.391571 -0.471830
v -0.128647 2.124301 -0.871828
v 0.128647 2.124301 -0.871828
v -0.128647 1.724303 -1.139098
v 0.128647 1.724303 -1.139098
v -0.064324 0.795008 -1.104420
v -0.064324 0.407187 -0.845287
v -0.064324 0.148054 -0.457466
v -0.064324 0.057058 0.000000
v -0.064324 0.148054 0.457466
v -0.064324 0.407187 0.845287
v -0.064324 0.795008 1.104420
v -0.064324 1.252474 1.195416
v -0.064324 1.709939 1.104420
v -0.064324 2.097760 0.845287
v -0.064324 2.356894 0.457466
v -0.064324 2.447889 0.000000
v -0.064324 2.356894 -0.457466
v -0.064324 2.097760 -0.845287
v -0.064324 1.709939 -1.104420
v -0.064324 1.252474 -1.195416
v 0.064324 1.252474 -1.195416
v 0.064324 0.795008 -1.104420
v 0.064324 0.407187 -0.845287
v 0.064324 0.148053 -0.457466
v 0.064324 0.057058 0.000000
v 0.064324 0.148053 0.457466
v 0.064324 0.407187 0.845287
v 0.064324 0.795008 1.104420
v 0.064324 1.252474 1.195416
v 0.064324 1.709939 1.104420
v 0.064324 2.097760 0.845287
v 0.064324 2.356894 0.457466
v 0.064324 2.447889 0.000000
v 0.064324 2.356894 -0.457466
v 0.064324 2.097760 -0.845287
v 0.064324 1.709939 -1.104420
v -0.064324 1.252474 1.260210
v -0.045377 1.252474 1.279527
v 0.045377 1.252474 1.279527
v 0.064324 1.252474 1.260210
v -0.064324 0.770212 1.164282
v -0.045377 0.762820 1.182129
v 0.045377 0.762820 1.182129
v 0.064324 0.770212 1.164282
v -0.064324 0.361371 0.891103
v -0.045377 0.347711 0.904762
v 0.045377 0.347711 0.904762
v 0.064324 0.361371 0.891103
v -0.064324 0.088192 0.482261
v -0.045377 0.070345 0.489654
v 0.045377 0.070345 0.489654
v 0.064324 0.088192 0.482261
v -0.064324 -0.007736 0.000000
v -0.045377 -0.027054 0.000000
v 0.045377 -0.027054 0.000000
v 0.064324 -0.007736 0.000000
v -0.064324 0.088192 -0.482261
v -0.045377 0.070345 -0.489654
v 0.045377 0.070345 -0.489654
v 0.064324 0.088192 -0.482261
v -0.064324 0.361371 -0.891103
v -0.045377 0.347711 -0.904762
v 0.045377 0.347711 -0.904762
v 0.064324 0.361371 -0.891103
v -0.045377 0.762820 -1.182129
v -0.064324 0.770212 -1.164282
v 0.045377 0.762820 -1.182129
v 0.064324 0.770212 -1.164282
v 0.045377 1.742127 1.182129
v 0.064324 1.734735 1.164282
v -0.064324 1.734735 1.164282
v -0.045377 1.742127 1.182129
v 0.045377 2.157236 0.904762
v 0.064324 2.143577 0.891103
v -0.064324 2.143577 0.891103
v -0.045377 2.157236 0.904762
v 0.045377 2.434603 0.489654
v 0.064324 2.416756 0.482261
v -0.064324 2.416756 0.482261
v -0.045377 2.434603 0.489654
v 0.045377 2.532001 0.000000
v 0.064324 2.512684 0.000000
v -0.064324 2.512684 0.000000
v -0.045377 2.532001 0.000000
v 0.045377 2.434603 -0.489654
v 0.064324 2.416756 -0.482261
v -0.064324 2.416756 -0.482261
v -0.045377 2.434603 -0.489654
v 0.045377 2.157236 -0.904762
v 0.064324 2.143577 -0.891103
v -0.064324 2.143577 -0.891103
v -0.045377 2.157236 -0.904762
v 0.045377 1.742127 -1.182129
v 0.064324 1.734735 -1.164282
v -0.045377 1.742127 -1.182129
v -0.064324 1.734735 -1.164282
v -0.064324 1.252474 -1.260210
v -0.045377 1.252474 -1.279527
v 0.064324 1.252474 -1.260210
v 0.045377 1.252474 -1.279527
vn -0.5040 -0.0000 -0.8637
vn -0.5040 -0.3305 -0.7980
vn -0.5040 -0.6107 -0.6107
vn -0.5040 -0.7980 -0.3305
vn -0.5040 -0.8637 -0.0000
vn -0.5040 -0.7980 0.3305
vn -0.5040 -0.6107 0.6107
vn -0.5040 -0.3305 0.7980
vn -0.5040 -0.0000 0.8637
vn -0.5040 0.3305 0.7980
vn -0.5040 0.6107 0.6107
vn -0.5040 0.7980 0.3305
vn -0.5040 0.8637 -0.0000
vn -0.5040 0.7980 -0.3305
vn -0.5040 0.6107 -0.6107
vn 1.0000 -0.0000 -0.0000
vn -0.5040 0.3305 -0.7980
vn -1.0000 -0.0000 -0.0000
vn 0.5040 -0.0000 -0.8637
vn 0.5040 -0.3305 -0.7980
vn 0.5040 -0.6107 -0.6107
vn 0.5040 -0.7980 -0.3305
vn 0.5040 -0.8637 -0.0000
vn 0.5040 -0.7980 0.3305
vn 0.5040 -0.6107 0.6107
vn 0.5040 -0.3305 0.7980
vn 0.5040 -0.0000 0.8637
vn 0.5040 0.3305 0.7980
vn 0.5040 0.6107 0.6107
vn 0.5040 0.7980 0.3305
vn 0.5040 0.8637 -0.0000
vn 0.5040 0.7980 -0.3305
vn 0.5040 0.6107 -0.6107
vn 0.5040 0.3305 -0.7980
vn -0.1724 -0.6965 -0.6965
vn 0.1724 -0.6965 -0.6965
vn 0.1724 -0.9100 -0.3770
vn -0.1724 -0.9101 -0.3770
vn 0.1724 -0.9850 -0.0000
vn -0.1724 -0.9850 -0.0000
vn 0.1724 -0.9100 0.3770
vn -0.1724 -0.9100 0.3770
vn -0.1724 0.3770 -0.9100
vn 0.1724 0.3770 -0.9100
vn 0.1724 -0.0000 -0.9850
vn -0.1724 -0.0000 -0.9850
vn 0.1724 -0.6965 0.6965
vn -0.1724 -0.6965 0.6965
vn 0.1724 -0.3770 -0.9100
vn -0.1724 -0.3770 -0.9100
vn 0.1724 -0.3770 0.9100
vn -0.1724 -0.3770 0.9101
vn -0.1724 0.6965 -0.6965
vn 0.1724 0.6965 -0.6965
vn -0.1724 0.9100 -0.3770
vn 0.1724 0.9101 -0.3770
vn -0.1724 0.9850 -0.0000
vn 0.1724 0.9850 -0.0000
vn -0.1724 0.3770 0.9100
vn 0.1724 0.3770 0.9101
vn 0.1724 0.6965 0.6965
vn -0.1724 0.6965 0.6965
vn 0.1724 -0.0000 0.9850
vn -0.1724 -0.0000 0.9850
vn 0.1724 0.9100 0.3770
vn -0.1724 0.9101 0.3770
vn -0.7139 -0.2680 -0.6469
vn -0.7139 -0.0000 -0.7002
vn -0.7139 0.2680 -0.6469
vn -0.7139 0.4951 -0.4951
vn -0.7139 0.6469 -0.2680
vn -0.7139 0.7002 -0.0000
vn -0.7139 0.6469 0.2680
vn -0.7139 0.4951 0.4951
vn -0.7139 0.2680 0.6469
vn -0.7139 -0.0000 0.7002
vn -0.7139 -0.2680 0.6469
vn -0.7139 -0.4951 0.4951
vn -0.7139 -0.6469 0.2680
vn -0.7139 -0.7002 -0.0000
vn -0.7139 -0.6469 -0.2680
vn -0.7139 -0.4951 -0.4951
vn 0.7139 0.2680 -0.6469
vn 0.7139 -0.0000 -0.7002
vn 0.7139 0.4951 -0.4951
vn 0.7139 0.6469 -0.2680
vn 0.7139 0.7002 -0.0000
vn 0.7139 0.6469 0.2680
vn 0.7139 0.4951 0.4951
vn 0.7139 0.2680 0.6469
vn 0.7139 -0.0000 0.7002
vn 0.7139 -0.2680 0.6469
vn 0.7139 -0.4951 0.4951
vn 0.7139 -0.6469 0.2680
vn 0.7139 -0.7002 -0.0000
vn 0.7139 -0.6469 -0.2680
vn 0.7139 -0.4951 -0.4951
vn 0.7139 -0.2680 -0.6469
vt 0.024414 0.563225
vt 0.050930 0.563225
vt 0.050930 0.731900
vt 0.024414 0.731900
vt 0.050930 0.900574
vt 0.024414 0.900574
vt 0.050930 0.394551
vt 0.024414 0.394551
vt 0.050930 0.225877
vt 0.024414 0.225877
vt 0.024414 0.900574
vt 0.050930 0.900574
vt 0.050930 0.394551
vt 0.024414 0.394551
vt 0.701676 0.109789
vt 0.529018 0.109789
vt 0.529018 0.086620
vt 0.701676 0.086620
vt 0.528622 0.110151
vt 0.355963 0.110151
vt 0.355963 0.086981
vt 0.528622 0.086981
vt 0.356360 0.109789
vt 0.356360 0.086620
vt 0.183702 0.003631
vt 0.356360 0.003631
vt 0.356360 0.026801
vt 0.183702 0.026801
vt 0.701280 0.003993
vt 0.873938 0.003993
vt 0.873938 0.027163
vt 0.701280 0.027163
vt 0.528622 0.003993
vt 0.528622 0.027162
vt 0.355963 0.003993
vt 0.528622 0.027163
vt 0.355963 0.027163
vt 0.183305 0.003993
vt 0.183305 0.027163
vt 0.359536 0.005041
vt 0.189015 0.001815
vt 0.183954 0.024961
vt 0.359451 0.027617
vt 0.529390 0.002519
vt 0.529401 0.026596
vt 0.699254 0.004873
vt 0.699351 0.027393
vt 0.698499 0.108380
vt 0.869021 0.111606
vt 0.874082 0.088460
vt 0.698585 0.085804
vt 0.356360 0.026801
vt 0.183702 0.026801
vt 0.529018 0.003631
vt 0.529018 0.026801
vt 0.701676 0.003631
vt 0.701676 0.026801
vt 0.529018 0.026801
vt 0.874334 0.003631
vt 0.874334 0.026801
vt 0.873938 0.040845
vt 0.873938 0.073298
vt 0.701280 0.073298
vt 0.701280 0.040845
vt 0.701280 0.110151
vt 0.701280 0.086981
vt 0.701280 0.040845
vt 0.528622 0.073298
vt 0.528622 0.040845
vt 0.873938 0.110151
vt 0.873938 0.086981
vt 0.528621 0.040845
vt 0.355963 0.073298
vt 0.355963 0.040845
vt 0.701676 0.040484
vt 0.701676 0.072937
vt 0.529018 0.072937
vt 0.529018 0.040484
vt 0.183702 0.109789
vt 0.183702 0.086620
vt 0.355963 0.073298
vt 0.183305 0.073298
vt 0.183305 0.040845
vt 0.356360 0.072937
vt 0.356360 0.040484
vt 0.182468 0.039202
vt 0.182579 0.074364
vt 0.358768 0.072692
vt 0.359312 0.040970
vt 0.874334 0.040484
vt 0.874334 0.072937
vt 0.358781 0.108548
vt 0.528646 0.110901
vt 0.528635 0.086825
vt 0.358684 0.086028
vt 0.874334 0.040484
vt 0.874334 0.072937
vt 0.868924 0.001815
vt 0.699351 0.027393
vt 0.873939 0.024849
vt 0.874334 0.109789
vt 0.701676 0.086620
vt 0.874334 0.086620
vt 0.356360 0.072937
vt 0.183702 0.072937
vt 0.183702 0.040484
vt 0.183305 0.110151
vt 0.183305 0.086981
vt 0.701676 0.026801
vt 0.189112 0.111606
vt 0.184097 0.088572
vt 0.874334 0.003631
vt 0.874334 0.026801
vt 0.701676 0.026801
vt 0.699267 0.040729
vt 0.698724 0.072451
vt 0.875567 0.074219
vt 0.875457 0.039057
vt 0.698585 0.085804
vt 0.874334 0.109789
vt 0.874334 0.086620
vt 0.359312 0.040970
vt 0.528745 0.072891
vt 0.529290 0.040530
vt 0.085920 0.559953
vt 0.119417 0.391554
vt 0.214807 0.871113
vt 0.119417 0.728352
vt 0.214807 0.248792
vt 0.357568 0.966503
vt 0.357568 0.153402
vt 0.525967 1.000000
vt 0.525967 0.119906
vt 0.694366 0.966503
vt 0.694366 0.153402
vt 0.837128 0.871113
vt 0.837128 0.248792
vt 0.932518 0.728352
vt 0.966015 0.559953
vt 0.932518 0.391554
vt 0.698724 0.072451
vt 0.528745 0.072891
s 1
f 49/1/1 2/2/1 4/3/2 50/4/2
f 50/4/2 4/3/2 6/5/3 51/6/3
f 51/6/3 6/5/3 8/3/4 52/4/4
f 52/4/4 8/3/4 10/2/5 53/1/5
f 53/1/5 10/2/5 12/7/6 54/8/6
f 54/8/6 12/7/6 14/9/7 55/10/7
f 55/11/7 14/12/7 16/3/8 56/4/8
f 56/4/8 16/3/8 18/2/9 57/1/9
f 57/1/9 18/2/9 20/13/10 58/14/10
f 58/14/10 20/13/10 22/9/11 59/10/11
f 59/6/11 22/5/11 24/3/12 60/4/12
f 60/4/12 24/3/12 26/2/13 61/1/13
f 61/1/13 26/2/13 28/7/14 62/8/14
f 62/8/14 28/7/14 30/9/15 63/10/15
f 64/15/16 49/16/16 127/17/16 122/18/16
f 63/10/15 30/9/15 32/7/17 64/8/17
f 64/8/17 32/7/17 2/2/1 49/1/1
f 53/19/16 54/20/16 80/21/16 84/22/16
f 49/16/16 50/23/16 96/24/16 127/17/16
f 34/25/18 33/26/18 94/27/18 89/28/18
f 35/29/18 34/30/18 89/31/18 85/32/18
f 36/33/18 35/29/18 85/32/18 81/34/18
f 37/35/18 36/33/18 81/36/18 77/37/18
f 38/38/18 37/35/18 77/37/18 73/39/18
f 39/40/18 38/41/18 73/42/18 69/43/18
f 40/44/18 39/40/18 69/43/18 65/45/18
f 41/46/18 40/44/18 65/45/18 99/47/18
f 58/48/16 59/49/16 102/50/16 98/51/16
f 59/25/16 60/26/16 106/52/16 102/53/16
f 60/26/16 61/54/16 110/55/16 106/52/16
f 61/54/16 62/56/16 114/57/16 110/58/16
f 62/56/16 63/59/16 118/60/16 114/57/16
f 1/2/19 48/1/19 33/4/20 3/3/20
f 3/3/20 33/4/20 34/6/21 5/5/21
f 5/5/21 34/6/21 35/4/22 7/3/22
f 7/3/22 35/4/22 36/1/23 9/2/23
f 9/2/23 36/1/23 37/14/24 11/13/24
f 11/13/24 37/14/24 38/10/25 13/9/25
f 13/12/25 38/11/25 39/4/26 15/3/26
f 15/3/26 39/4/26 40/1/27 17/2/27
f 17/2/27 40/1/27 41/14/28 19/13/28
f 19/13/28 41/14/28 42/10/29 21/9/29
f 21/5/29 42/6/29 43/4/30 23/3/30
f 23/3/30 43/4/30 44/1/31 25/2/31
f 25/2/31 44/1/31 45/14/32 27/13/32
f 27/13/32 45/14/32 46/10/33 29/9/33
f 31/13/34 47/14/34 48/1/19 1/2/19
f 29/9/33 46/10/33 47/14/34 31/13/34
f 90/61/35 91/62/36 87/63/37 86/64/38
f 52/65/16 53/19/16 84/22/16 88/66/16
f 86/67/38 87/63/37 83/68/39 82/69/40
f 51/70/16 52/65/16 88/66/16 92/71/16
f 82/72/40 83/68/39 79/73/41 78/74/42
f 123/75/43 121/76/44 128/77/45 126/78/46
f 50/23/16 51/79/16 92/80/16 96/24/16
f 78/74/42 79/81/41 75/82/47 74/83/48
f 126/78/46 128/77/45 95/84/49 93/85/50
f 74/86/48 75/87/47 71/88/51 70/89/52
f 120/90/53 117/91/54 121/76/44 123/75/43
f 56/92/16 57/93/16 68/94/16 72/95/16
f 116/76/55 113/75/56 117/96/54 120/97/53
f 42/98/18 41/46/18 99/99/18 103/100/18
f 63/101/16 64/15/16 122/102/16 118/103/16
f 112/77/57 109/78/58 113/75/56 116/76/55
f 93/85/50 95/104/49 91/105/36 90/106/35
f 54/20/16 55/107/16 76/108/16 80/21/16
f 48/54/18 47/56/18 124/109/18 125/58/18
f 33/26/18 48/54/18 125/55/18 94/27/18
f 55/110/16 56/92/16 72/95/16 76/111/16
f 47/56/18 46/112/18 119/113/18 124/114/18
f 100/115/59 97/116/60 101/117/61 104/118/62
f 57/93/16 58/48/16 98/119/16 68/94/16
f 46/120/18 45/15/18 115/102/18 119/121/18
f 70/122/52 71/88/51 67/123/63 66/124/64
f 45/15/18 44/16/18 111/17/18 115/102/18
f 104/105/62 101/106/61 105/85/65 108/104/66
f 44/16/18 43/23/18 107/24/18 111/17/18
f 108/104/66 105/85/65 109/78/58 112/77/57
f 43/23/18 42/79/18 103/80/18 107/24/18
f 18/125/16 16/126/16 22/127/16 20/128/16
f 16/126/16 14/129/16 24/130/16 22/127/16
f 14/129/16 12/131/16 26/132/16 24/130/16
f 12/131/16 10/133/16 28/134/16 26/132/16
f 10/133/16 8/135/16 30/136/16 28/134/16
f 8/135/16 6/137/16 32/138/16 30/136/16
f 2/139/16 32/138/16 6/137/16 4/140/16
f 15/126/18 17/125/18 19/128/18 21/127/18
f 13/129/18 15/126/18 21/127/18 23/130/18
f 11/131/18 13/129/18 23/130/18 25/132/18
f 9/133/18 11/131/18 25/132/18 27/134/18
f 7/135/18 9/133/18 27/134/18 29/136/18
f 5/137/18 7/135/18 29/136/18 31/138/18
f 1/139/18 3/140/18 5/137/18 31/138/18
f 126/78/46 93/85/50 94/27/67 125/55/68
f 120/90/53 123/75/43 124/114/69 119/113/70
f 123/75/43 126/78/46 125/58/68 124/109/69
f 116/76/55 120/97/53 119/121/70 115/102/71
f 112/77/57 116/76/55 115/102/71 111/17/72
f 108/104/66 112/77/57 111/17/72 107/24/73
f 104/105/62 108/104/66 107/24/73 103/80/74
f 100/115/59 104/118/62 103/100/74 99/99/75
f 66/124/64 100/115/59 99/47/75 65/45/76
f 70/122/52 66/124/64 65/45/76 69/43/77
f 74/86/48 70/89/52 69/43/77 73/42/78
f 78/74/42 74/83/48 73/39/78 77/37/79
f 82/72/40 78/74/42 77/37/79 81/36/80
f 86/67/38 82/69/40 81/34/80 85/32/81
f 90/61/35 86/64/38 85/32/81 89/31/82
f 93/85/50 90/106/35 89/28/82 94/27/67
f 122/18/83 127/17/84 128/77/45 121/76/44
f 118/103/85 122/102/83 121/76/44 117/91/54
f 114/57/86 118/60/85 117/96/54 113/75/56
f 110/58/87 114/57/86 113/75/56 109/78/58
f 106/52/88 110/55/87 109/78/58 105/85/65
f 102/53/89 106/52/88 105/85/65 101/106/61
f 98/51/90 102/50/89 101/117/61 97/116/60
f 68/94/91 98/119/90 97/141/60 67/142/63
f 72/95/92 68/94/91 67/123/63 71/88/51
f 76/111/93 72/95/92 71/88/51 75/87/47
f 80/21/94 76/108/93 75/82/47 79/81/41
f 84/22/95 80/21/94 79/73/41 83/68/39
f 88/66/96 84/22/95 83/68/39 87/63/37
f 92/71/97 88/66/96 87/63/37 91/62/36
f 96/24/98 92/80/97 91/105/36 95/104/49
f 127/17/84 96/24/98 95/84/49 128/77/45
f 66/124/64 67/142/63 97/141/60 100/115/59
