# Blender 4.2.2 LTS
# www.blender.org
o Knife
v 0.000261 0.021843 -0.324022
v 0.000261 -0.020595 -0.324022
v 0.005344 0.000648 0.047279
v 0.000260 0.000624 -0.421829
v 0.017859 0.000434 0.058740
v 0.004233 0.000624 -0.321116
v 0.000293 0.045050 0.046716
v -0.004760 0.000648 0.047281
v -0.017054 -0.000130 0.058747
v -0.003714 0.000624 -0.321116
v 0.000292 -0.043754 0.046779
v 0.019728 0.000624 0.091235
v -0.019020 0.000624 0.091235
v 0.031211 0.000624 0.228749
v -0.030354 0.000624 0.228749
v 0.025783 0.000624 0.452498
v -0.025076 0.000624 0.452498
v -0.000248 0.021332 0.455978
v 0.018108 0.000624 0.455978
v -0.017611 0.000624 0.455978
v -0.000248 -0.020084 0.455978
v -0.000248 -0.020084 0.472514
v -0.017611 0.000624 0.472514
v 0.018108 0.000624 0.472514
v -0.000248 0.021332 0.472514
v -0.010925 0.060117 0.058608
v 0.010446 0.060685 0.058598
v 0.010183 -0.060904 0.058890
v -0.010619 -0.061472 0.058886
v 0.009691 0.032715 0.091235
v -0.010017 0.032622 0.091235
v -0.010017 -0.031374 0.091235
v 0.009691 -0.031467 0.091235
v -0.014535 0.036243 0.228749
v 0.013617 0.036388 0.228749
v 0.013617 -0.035141 0.228749
v -0.014535 -0.034996 0.228749
v 0.013798 0.024997 0.452498
v -0.014249 0.024873 0.452498
v -0.014249 -0.023626 0.452498
v 0.013798 -0.023749 0.452498
v 0.037832 0.000361 0.091485
v 0.037001 0.000302 0.077217
v -0.035830 0.000117 0.076875
v -0.038898 0.000360 0.091145
v -0.011740 0.105976 0.075331
v -0.011582 0.103799 0.090726
v 0.010499 0.103794 0.091290
v 0.010685 0.106136 0.075809
v 0.010702 -0.106169 0.076561
v 0.010625 -0.103231 0.091908
v -0.013472 -0.103232 0.092063
v -0.011434 -0.106257 0.076642
vn 0.9902 0.1394 -0.0085
vn -0.0009 0.9134 -0.4072
vn 0.9984 -0.0002 -0.0560
vn 0.9831 -0.1787 -0.0388
vn 0.9902 -0.1394 -0.0085
vn -0.9902 0.1395 -0.0083
vn -0.9984 -0.0002 -0.0571
vn 0.0046 0.0095 0.9999
vn -0.0018 0.0069 1.0000
vn -0.0016 0.0070 1.0000
vn 0.0047 0.0094 0.9999
vn -0.9831 -0.1788 -0.0388
vn -0.9902 -0.1395 -0.0083
vn 0.0008 -0.9104 -0.4136
vn -0.0114 0.0044 0.9999
vn -0.0116 0.0043 0.9999
vn -0.0000 0.2477 0.9688
vn -0.5865 0.8071 0.0686
vn -0.9980 -0.0000 0.0626
vn -0.2819 -0.0000 0.9594
vn 1.0000 -0.0000 -0.0000
vn -0.0000 1.0000 -0.0000
vn -0.5865 -0.8071 0.0686
vn -0.0000 -0.2477 0.9688
vn -0.5448 0.2335 -0.8054
vn 0.5496 0.2431 -0.7993
vn 0.5497 0.2431 -0.7992
vn -0.7874 -0.0054 -0.6164
vn -0.7874 -0.0056 -0.6164
vn 0.9999 -0.0000 -0.0109
vn 0.6088 0.7933 0.0058
vn 0.5714 0.8178 0.0680
vn 0.9980 -0.0000 0.0639
vn 0.9981 -0.0000 -0.0613
vn 0.6662 0.7438 -0.0536
vn 0.5714 -0.8178 0.0680
vn 0.6088 -0.7933 0.0058
vn 0.2765 -0.0000 0.9610
vn -0.9999 -0.0000 -0.0116
vn -0.6240 -0.7814 0.0055
vn -0.6241 0.7814 0.0055
vn -0.0000 -0.0000 1.0000
vn -0.0000 -1.0000 -0.0000
vn -1.0000 -0.0000 -0.0000
vn -0.9831 0.1788 -0.0388
vn 0.9831 0.1787 -0.0388
vn -0.5585 -0.2442 -0.7927
vn -0.5585 -0.2441 -0.7928
vn 0.7834 -0.0029 -0.6215
vn 0.7834 -0.0030 -0.6215
vn 0.5559 -0.2495 -0.7929
vn 0.5559 -0.2494 -0.7929
vn -0.6813 0.7299 -0.0552
vn -0.9981 -0.0000 -0.0624
vn 0.6661 -0.7438 -0.0555
vn -0.6813 -0.7299 -0.0552
vn -0.0121 0.0009 0.9999
vn -0.0142 0.0033 0.9999
vn -0.0143 0.0033 0.9999
vn -0.0121 0.0010 0.9999
vn -0.5917 0.1805 -0.7857
vn 0.5928 0.1903 -0.7826
vn 0.5932 -0.1880 -0.7828
vn -0.5815 -0.1793 -0.7935
vn -0.0063 0.0093 0.9999
vn -0.0062 0.0093 0.9999
vn -0.6838 -0.0025 -0.7297
vn 0.6928 -0.0022 -0.7211
vn -0.9056 0.4217 -0.0449
vn 0.9019 0.4311 0.0274
vn 0.9019 0.4310 0.0274
vn -0.9056 0.4216 -0.0449
vn 0.8997 -0.4346 0.0402
vn -0.9026 -0.4207 -0.0917
vn 1.0000 0.0009 -0.0009
vn 1.0000 0.0011 -0.0009
vn -0.9936 0.0030 -0.1133
vn -0.9936 0.0029 -0.1133
vt 0.868527 0.758516
vt 0.824837 0.764501
vt 0.777055 0.001163
vt 0.868477 0.000004
vt 0.868527 0.965881
vt 0.912216 0.764501
vt 0.868477 0.000000
vt 0.278653 0.158396
vt 0.259531 0.226353
vt 0.217315 0.225793
vt 0.271315 0.005785
vt 0.959899 0.001034
vt 0.278652 0.294310
vt 0.275329 0.445476
vt 0.591612 0.851083
vt 0.584091 0.821348
vt 0.635592 0.798355
vt 0.635592 0.814209
vt 0.385215 0.784751
vt 0.385215 0.828731
vt 0.350095 0.828731
vt 0.350095 0.784751
vt 0.687093 0.821348
vt 0.679572 0.851083
vt 0.134171 0.498524
vt 0.098653 0.496793
vt 0.097638 0.544418
vt 0.134191 0.543911
vt 0.133876 0.231177
vt 0.095375 0.231702
vt 0.098653 0.456524
vt 0.134171 0.359128
vt 0.640231 0.483117
vt 0.564275 0.483117
vt 0.588468 0.007921
vt 0.640231 0.007921
vt 0.640231 0.775168
vt 0.572076 0.775168
vt 0.691994 0.007921
vt 0.716188 0.483117
vt 0.635592 0.906369
vt 0.583829 0.880914
vt 0.635592 0.890068
vt 0.715880 0.483117
vt 0.691732 0.007921
vt 0.588730 0.007921
vt 0.564583 0.483117
vt 0.687355 0.880915
vt 0.290542 0.831722
vt 0.253668 0.787743
vt 0.290542 0.743762
vt 0.329527 0.787743
vt 0.385215 0.740771
vt 0.350095 0.740771
vt 0.133580 0.100899
vt 0.095871 0.005785
vt 0.133890 0.232375
vt 0.094649 0.232094
vt 0.096042 0.005971
vt 0.133571 0.102106
vt 0.572274 0.775168
vt 0.708386 0.775168
vt 0.708188 0.775168
vt 0.320508 0.294508
vt 0.341824 0.226353
vt 0.380274 0.225795
vt 0.322224 0.445465
vt 0.159426 0.522348
vt 0.133571 0.543353
vt 0.133580 0.499173
vt 0.159293 0.522347
vt 0.558917 0.483117
vt 0.549322 0.775168
vt 0.507466 0.775168
vt 0.499129 0.483117
vt 0.507467 0.775168
vt 0.558311 0.007921
vt 0.498744 0.007921
vt 0.498744 0.007921
vt 0.322491 0.005787
vt 0.320508 0.158198
vt 0.096042 0.544456
vt 0.095871 0.497443
vt 0.159426 0.327130
vt 0.158227 0.232828
vt 0.159293 0.138529
vt 0.158230 0.232828
vt 0.134191 0.360336
vt 0.065959 0.497129
vt 0.064761 0.544024
vt 0.063449 0.544291
vt 0.063119 0.493115
vt 0.064761 0.451890
vt 0.064347 0.232220
vt 0.097639 0.456864
vt 0.065068 0.232218
vt 0.065960 0.451900
vt 0.063449 0.012212
vt 0.063119 0.012209
s 1
f 6/1/1 1/2/1 7/3/2 3/4/3
f 4/5/4 6/1/5 2/6/5
f 10/1/6 8/7/7 7/3/2 1/2/6
f 32/8/8 13/9/9 45/10/10 52/11/11
f 4/5/12 2/6/13 10/1/13
f 6/1/5 3/4/3 11/12/14 2/6/5
f 10/1/13 2/6/13 11/12/14 8/7/7
f 13/9/9 31/13/15 47/14/16 45/10/10
f 18/15/17 39/16/18 17/17/19 20/18/20
f 19/19/21 18/20/22 25/21/22 24/22/21
f 17/17/19 40/23/23 21/24/24 20/18/20
f 26/25/25 46/26/25 49/27/26 27/28/27
f 9/29/28 44/30/29 46/31/25 26/32/25
f 14/33/30 35/34/31 38/35/32 16/36/33
f 12/37/34 30/38/35 35/34/31 14/33/30
f 14/33/30 16/36/33 41/39/36 36/40/37
f 16/41/33 38/42/32 18/15/17 19/43/38
f 15/33/39 37/44/40 40/45/23 17/36/19
f 15/33/39 17/36/19 39/46/18 34/47/41
f 21/24/24 41/48/36 16/41/33 19/43/38
f 25/49/42 23/50/42 22/51/42 24/52/42
f 21/53/43 19/19/21 24/22/21 22/54/43
f 18/20/22 20/19/44 23/22/44 25/21/22
f 20/19/44 21/53/43 22/54/43 23/22/44
f 10/1/6 1/2/6 4/5/45
f 6/1/1 4/5/46 1/2/1
f 29/55/47 53/56/48 44/30/29 9/29/28
f 5/57/49 43/58/50 50/59/51 28/60/52
f 31/61/53 13/37/54 15/33/39 34/47/41
f 33/62/55 12/37/34 14/33/30 36/40/37
f 13/37/54 32/63/56 37/44/40 15/33/39
f 30/64/57 12/65/58 42/66/59 48/67/60
f 26/25/61 27/28/62 7/68/2
f 28/69/63 29/70/64 11/71/14
f 38/42/32 39/16/18 18/15/17
f 40/23/23 41/48/36 21/24/24
f 37/72/40 32/73/56 33/74/55 36/75/37
f 31/73/53 34/72/41 35/75/31 30/76/35
f 34/72/41 39/77/18 38/78/32 35/75/31
f 36/75/37 41/79/36 40/77/23 37/72/40
f 30/64/57 48/67/60 47/14/16 31/13/15
f 32/8/8 52/11/11 51/80/65 33/81/66
f 28/69/52 50/82/51 53/83/48 29/70/47
f 12/65/58 33/81/66 51/80/65 42/66/59
f 7/84/2 8/85/7 9/29/67 26/32/61
f 8/85/7 11/86/14 29/55/64 9/29/67
f 3/87/3 5/57/68 28/60/63 11/86/14
f 7/84/2 27/88/62 5/57/68 3/87/3
f 47/89/69 48/90/70 49/27/71 46/26/72
f 51/91/73 52/92/74 53/83/74 50/82/73
f 48/93/70 42/94/75 43/58/76 49/95/71
f 45/96/77 47/97/69 46/31/72 44/30/78
f 42/94/75 51/98/73 50/59/73 43/58/76
f 52/99/74 45/96/77 44/30/78 53/56/74
f 27/88/27 49/95/26 43/58/50 5/57/49
