# Blender 4.2.1 LTS
# www.blender.org
o Grid
v -0.665117 0.014108 1.198656
v -0.302116 0.011231 1.198078
v 0.043668 0.005583 1.199738
v 0.393319 0.009458 1.200438
v 0.740186 0.014108 1.198656
v -0.651843 0.005296 1.058848
v -0.302116 0.003967 1.058586
v 0.025840 0.003086 1.054790
v 0.393319 0.003165 1.059654
v 0.733944 0.005296 0.897794
v -0.548563 0.018122 0.872303
v -0.376496 -0.001051 0.927720
v -0.073427 0.002672 0.880595
v 0.148829 0.007881 0.761556
v 0.686646 0.018122 0.599032
v 0.087178 0.003614 0.456984
v -0.601638 0.011065 0.597510
v 0.704418 0.003259 0.144223
v -0.649833 -0.006349 1.302604
v -0.302116 -0.011016 1.301667
v 0.045601 -0.016403 1.300586
v 0.393319 -0.011016 1.301667
v 0.741036 -0.006349 1.302604
v -0.623832 0.054922 1.391609
v -0.302116 0.039379 1.384673
v 0.045601 0.028901 1.381423
v 0.393319 0.039379 1.384673
v 0.741036 0.054922 1.391609
v -0.649833 0.165015 1.417869
v -0.302116 0.131162 1.395057
v 0.045601 0.113482 1.391508
v 0.393319 0.131162 1.395057
v 0.747175 0.165015 1.417869
v -0.631848 0.264804 1.367282
v -0.302116 0.219777 1.355863
v 0.045601 0.197189 1.350869
v 0.393319 0.219777 1.355863
v 0.725213 0.264804 1.367282
v -0.649833 0.300698 1.267015
v -0.302116 0.255670 1.257977
v 0.045601 0.233083 1.253443
v 0.393319 0.255670 1.257977
v 0.744003 0.300698 1.267015
v -0.674618 0.253418 1.170918
v -0.302116 0.219565 1.164123
v 0.045601 0.202044 1.160606
v 0.393319 0.219565 1.164123
v 0.740684 0.253418 1.170918
v -0.649833 0.148358 1.130599
v -0.302116 0.132814 1.127479
v 0.045601 0.124648 1.139254
v 0.393319 0.132814 1.127479
v 0.731007 0.148358 1.130599
v -0.649833 0.041940 1.167711
v -0.302116 0.037273 1.166775
v 0.045601 0.036315 1.166582
v 0.393319 0.037273 1.166775
v 0.741058 0.041940 1.167711
v 0.073798 -0.007047 0.221127
v 0.592613 -0.002960 0.031699
v -0.578741 -0.016354 0.397856
v 0.052655 -0.008624 0.086150
v 0.675579 -0.001868 -0.056339
v -0.693508 -0.001983 -0.094819
v -0.402403 -0.002903 -0.249523
v 0.039916 -0.009271 -0.217784
v 0.750810 -0.028084 -0.337571
v -0.628826 -0.001983 -0.266312
v -0.368170 -0.002556 -0.352427
v 0.237752 -0.003001 -0.442786
v 0.723287 -0.001983 -0.553051
v -0.678127 -0.028084 -0.892382
v -0.168032 -0.001983 -0.862645
v 0.055334 -0.001983 -0.899722
v 0.715625 0.020502 -0.946511
v -0.148723 -0.004999 -0.292427
v -0.083957 -0.002897 -0.409077
v -0.031914 -0.001983 -0.834077
v -0.417210 -0.018832 0.408663
v -0.362342 -0.003737 -0.470125
v -0.691267 -0.004150 -0.382797
v 0.283161 0.002499 -0.585120
v 0.659653 0.009157 -0.660863
v -0.056563 -0.001425 -0.535496
v -0.333735 -0.007181 -0.600371
v -0.642487 -0.015952 -0.518383
v 0.291804 0.005265 -0.701336
v 0.687254 0.014751 -0.723975
v -0.050999 -0.001300 -0.666190
v -0.277900 -0.007990 -0.732938
v -0.552335 -0.022319 -0.676378
v 0.247798 0.005110 -0.830059
v 0.610639 0.014238 -0.832600
v -0.057971 -0.000605 -0.790989
v 0.741058 0.041940 1.167711
v 0.393319 0.037273 1.166775
v 0.045601 0.036315 1.166582
v -0.302116 0.037273 1.166775
v -0.649833 0.041940 1.167711
v 0.731007 0.148358 1.130599
v 0.393319 0.132814 1.127479
v 0.045601 0.124648 1.139254
v -0.302116 0.132814 1.127479
v -0.649833 0.148358 1.130599
v 0.740684 0.253418 1.170918
v 0.393319 0.219565 1.164123
v 0.045601 0.202044 1.160606
v -0.302116 0.219565 1.164123
v -0.674618 0.253418 1.170918
v 0.744003 0.300698 1.267015
v 0.393319 0.255670 1.257977
v 0.045601 0.233083 1.253443
v -0.302116 0.255670 1.257977
v -0.649833 0.300698 1.267015
v 0.725213 0.264804 1.367282
v 0.393319 0.219777 1.355863
v 0.045601 0.197189 1.350869
v -0.302116 0.219777 1.355863
v -0.631848 0.264804 1.367282
v 0.747175 0.165015 1.417869
v 0.393319 0.131162 1.395057
v 0.045601 0.113482 1.391508
v -0.302116 0.131162 1.395057
v -0.649833 0.165015 1.417869
v 0.741036 0.054922 1.391609
v 0.393319 0.039379 1.384673
v 0.045601 0.028901 1.381423
v -0.302116 0.039379 1.384673
v -0.623832 0.054922 1.391609
v 0.741036 -0.006349 1.302604
v 0.393319 -0.011016 1.301667
v 0.045601 -0.016403 1.300586
v -0.302116 -0.011016 1.301667
v -0.649833 -0.006349 1.302604
v 0.740186 0.014108 1.198656
v 0.393319 0.009458 1.200438
v 0.043668 0.005583 1.199738
v -0.302116 0.011231 1.198078
v -0.665117 0.014108 1.198656
vn 0.0096 0.9941 0.1078
vn 0.0118 0.9917 0.1278
vn 0.0134 0.9999 -0.0084
vn 0.0370 0.9987 0.0346
vn -0.0083 0.9926 0.1214
vn -0.0027 1.0000 0.0071
vn -0.0177 0.9972 0.0725
vn -0.0003 0.9995 0.0327
vn -0.0189 0.9990 0.0405
vn -0.0102 0.9999 -0.0045
vn 0.0186 0.9985 0.0517
vn 0.0202 0.9988 -0.0455
vn 0.0101 0.9982 0.0589
vn -0.0041 1.0000 -0.0072
vn -0.0186 0.9997 -0.0166
vn -0.0029 0.9999 -0.0116
vn -0.0064 0.9987 -0.0506
vn -0.0195 0.9993 -0.0313
vn 0.0189 -0.9990 -0.0405
vn 0.0129 -0.9806 -0.1957
vn 0.0132 -0.9796 -0.2007
vn 0.0177 -0.9972 -0.0725
vn 0.0083 -0.9926 -0.1215
vn -0.0012 -0.9780 -0.2086
vn -0.0131 -0.9785 -0.2060
vn -0.0118 -0.9917 -0.1279
vn -0.0108 -0.9796 -0.2008
vn -0.0096 -0.9941 -0.1079
vn -0.0182 0.8386 -0.5444
vn -0.0174 0.8508 -0.5252
vn -0.0004 0.5668 -0.8239
vn 0.0053 0.5620 -0.8271
vn -0.0000 0.8635 -0.5044
vn 0.0177 0.8503 -0.5259
vn 0.0002 0.5676 -0.8233
vn -0.0000 0.5724 -0.8200
vn 0.0189 0.8373 -0.5464
vn -0.0052 0.5644 -0.8255
vn -0.0667 -0.1380 -0.9882
vn -0.0453 -0.1544 -0.9870
vn 0.0445 -0.1493 -0.9878
vn 0.0647 -0.1304 -0.9894
vn -0.0000 -0.1707 -0.9853
vn -0.0000 -0.7544 -0.6564
vn 0.0903 -0.7480 -0.6576
vn -0.1248 -0.7446 -0.6557
vn -0.0908 -0.7485 -0.6568
vn 0.1235 -0.7436 -0.6572
vn -0.0000 -0.9999 -0.0116
vn 0.0922 -0.9956 0.0138
vn -0.1206 -0.9909 0.0592
vn -0.0916 -0.9956 0.0212
vn 0.1220 -0.9917 0.0410
vn -0.0000 -0.7357 0.6773
vn 0.0515 -0.7200 0.6921
vn -0.0571 -0.7003 0.7115
vn -0.0503 -0.7171 0.6952
vn 0.0599 -0.7066 0.7051
vn -0.0000 0.0260 0.9997
vn 0.0076 0.0119 0.9999
vn 0.0017 -0.0054 1.0000
vn -0.0075 0.0081 0.9999
vn -0.0018 -0.0002 1.0000
vn -0.0000 0.3407 0.9402
vn -0.0031 0.3473 0.9378
vn 0.0157 0.3538 0.9352
vn 0.0029 0.3476 0.9376
vn -0.0159 0.3531 0.9354
vn -0.0183 0.9997 -0.0147
vn -0.0195 0.9992 -0.0347
vn -0.0026 0.9993 -0.0365
vn 0.0002 1.0000 -0.0053
vn 0.0087 0.9999 0.0125
vn 0.0161 0.9980 0.0617
vn 0.0017 0.9998 0.0189
vn 0.0093 0.9997 0.0222
vn 0.0059 0.9999 0.0155
vn 0.0090 0.9999 0.0139
vn 0.0006 1.0000 0.0002
vn -0.0003 1.0000 -0.0059
vn 0.0120 0.9999 0.0070
vn 0.0236 0.9966 0.0793
vn -0.0517 0.9985 -0.0165
vn -0.0435 0.9990 -0.0111
vn -0.0454 0.9990 0.0050
vn -0.0514 0.9987 0.0031
vn -0.0241 0.9997 0.0045
vn -0.0256 0.9996 0.0093
vn -0.0304 0.9995 0.0100
vn -0.0289 0.9996 -0.0078
vn -0.0223 0.9997 -0.0033
vn -0.0225 0.9996 -0.0155
vn -0.0093 0.9999 0.0064
vn -0.0053 0.9993 0.0383
vn 0.0026 0.9999 0.0167
vn -0.0142 0.9994 -0.0311
vn -0.0189 0.9998 -0.0002
vn -0.0191 0.9997 0.0154
vn -0.0144 0.9996 -0.0246
vn -0.0023 0.9984 0.0572
vn -0.0184 0.9990 -0.0408
vn -0.0324 0.9988 -0.0362
vn -0.0215 0.9994 0.0256
vn -0.0416 0.9974 -0.0591
vn 0.0008 0.0075 -1.0000
vn -0.0000 -0.3407 -0.9402
vn -0.0028 -0.3475 -0.9377
vn 0.0091 0.0095 -0.9999
vn 0.0018 0.0002 -1.0000
vn 0.0159 -0.3531 -0.9354
vn 0.0031 -0.3473 -0.9378
vn -0.0091 0.0128 -0.9999
vn -0.0157 -0.3538 -0.9352
vn -0.0017 0.0055 -1.0000
vn -0.0048 0.6559 -0.7549
vn 0.0462 0.6724 -0.7388
vn -0.0599 0.7066 -0.7051
vn -0.0474 0.6723 -0.7388
vn 0.0571 0.7003 -0.7116
vn -0.0003 0.9999 -0.0101
vn 0.0918 0.9955 -0.0246
vn -0.1220 0.9917 -0.0410
vn -0.0927 0.9954 -0.0256
vn 0.1206 0.9909 -0.0592
vn -0.0025 0.7042 0.7100
vn 0.0871 0.7160 0.6926
vn -0.1235 0.7436 0.6571
vn -0.0864 0.7163 0.6924
vn 0.1248 0.7447 0.6556
vn 0.0207 0.1492 0.9886
vn 0.0401 0.1251 0.9913
vn -0.0647 0.1305 0.9893
vn -0.0530 0.1371 0.9891
vn 0.0667 0.1380 0.9882
vn 0.0007 -0.5369 0.8436
vn -0.0000 -0.5357 0.8444
vn 0.0196 -0.5506 0.8345
vn -0.0053 -0.5620 0.8271
vn 0.0052 -0.5644 0.8255
vn -0.0177 -0.8503 0.5260
vn -0.0189 -0.8373 0.5464
vn 0.0174 -0.8509 0.5251
vn -0.0000 -0.8635 0.5044
vn 0.0182 -0.8386 0.5444
vn 0.0118 0.9917 0.1279
vn 0.0096 0.9941 0.1079
vn 0.0108 0.9796 0.2008
vn 0.0131 0.9785 0.2060
vn -0.0177 0.9972 0.0726
vn -0.0083 0.9926 0.1215
vn 0.0012 0.9780 0.2086
vn -0.0132 0.9796 0.2007
vn -0.0189 0.9990 0.0406
vn -0.0129 0.9806 0.1957
vt 0.003364 0.605416
vt 0.003669 0.449342
vt 0.068213 0.449430
vt 0.068124 0.599695
vt 0.003414 0.300682
vt 0.070415 0.308516
vt 0.003364 0.150460
vt 0.068475 0.150588
vt 0.004359 0.001467
vt 0.143376 0.004340
vt 0.128529 0.481423
vt 0.154765 0.555455
vt 0.150914 0.351417
vt 0.206206 0.255911
vt 0.281456 0.024782
vt 0.347075 0.282547
vt 0.281631 0.578364
vt 0.491494 0.017176
vt 0.393657 0.618026
vt 0.389916 0.665510
vt 0.536303 0.676197
vt 0.538577 0.629497
vt 0.685379 0.632813
vt 0.684526 0.679636
vt 0.832856 0.676445
vt 0.830623 0.628404
vt 0.979480 0.666053
vt 0.982617 0.618026
vt 0.533637 0.720140
vt 0.385780 0.712927
vt 0.835548 0.720317
vt 0.684505 0.721970
vt 0.972446 0.714409
vt 0.988198 0.760163
vt 0.838454 0.760449
vt 0.530715 0.760185
vt 0.378182 0.759703
vt 0.684479 0.759558
vt 0.684434 0.801838
vt 0.528238 0.802941
vt 0.983686 0.807710
vt 0.840675 0.803323
vt 0.384541 0.807444
vt 0.684370 0.851725
vt 0.528593 0.851744
vt 0.990577 0.855029
vt 0.840292 0.852192
vt 0.377323 0.854708
vt 0.684299 0.898705
vt 0.531082 0.898203
vt 0.996636 0.903220
vt 0.837566 0.898534
vt 0.383073 0.901554
vt 0.684243 0.934504
vt 0.534277 0.938796
vt 0.980701 0.949113
vt 0.834334 0.939193
vt 0.392577 0.948009
vt 0.684167 0.974689
vt 0.537883 0.982505
vt 0.975636 0.996636
vt 0.830605 0.983098
vt 0.393245 0.995655
vt 0.543566 0.065174
vt 0.456282 0.288247
vt 0.584193 0.029475
vt 0.518713 0.297253
vt 0.659318 0.302557
vt 0.763456 0.217506
vt 0.747832 0.355833
vt 0.693887 0.383681
vt 0.602712 0.617773
vt 0.674103 0.492720
vt 0.721655 0.478002
vt 0.681880 0.589963
vt 0.714460 0.003318
vt 0.814539 0.008913
vt 0.871546 0.557303
vt 0.897557 0.439232
vt 0.957469 0.391980
vt 0.971328 0.611297
vt 0.942566 0.213321
vt 0.943910 0.057376
vt 0.996636 0.012284
vt 0.974677 0.296097
vt 0.924381 0.344693
vt 0.944311 0.333523
vt 0.806289 0.344061
vt 0.829328 0.198015
vt 0.375134 0.568830
vt 0.369975 0.499447
vt 0.866707 0.341684
vt 0.883079 0.194337
vt 0.776058 0.475504
vt 0.864537 0.036270
vt 0.735669 0.616773
vt 0.836282 0.463225
vt 0.893786 0.024409
vt 0.798505 0.595928
s 1
f 1/1/1 2/2/2 7/3/3 6/4/4
f 2/2/2 3/5/5 8/6/6 7/3/3
f 3/5/5 4/7/7 9/8/8 8/6/6
f 4/7/7 5/9/9 10/10/10 9/8/8
f 6/4/4 7/3/3 12/11/11 11/12/12
f 7/3/3 8/6/6 13/13/13 12/11/11
f 8/6/6 9/8/8 14/14/14 13/13/13
f 9/8/8 10/10/10 15/15/15 14/14/14
f 11/12/12 14/14/14 16/16/16 17/17/17
f 12/11/11 13/13/13 14/14/14 11/12/12
f 14/14/14 15/15/15 18/18/18 16/16/16
f 5/19/19 23/20/20 22/21/21 4/22/22
f 3/23/23 21/24/24 20/25/25 2/26/26
f 4/22/22 22/21/21 21/24/24 3/23/23
f 2/26/26 20/25/25 19/27/27 1/28/28
f 23/20/29 22/21/30 27/29/31 28/30/32
f 21/24/33 20/25/34 25/31/35 26/32/36
f 22/21/30 21/24/33 26/32/36 27/29/31
f 20/25/34 19/27/37 24/33/38 25/31/35
f 25/31/35 24/33/38 29/34/39 30/35/40
f 28/30/32 27/29/31 32/36/41 33/37/42
f 26/32/36 25/31/35 30/35/40 31/38/43
f 27/29/31 26/32/36 31/38/43 32/36/41
f 32/36/41 31/38/43 36/39/44 37/40/45
f 30/35/40 29/34/39 34/41/46 35/42/47
f 33/37/42 32/36/41 37/40/45 38/43/48
f 31/38/43 30/35/40 35/42/47 36/39/44
f 37/40/45 36/39/44 41/44/49 42/45/50
f 35/42/47 34/41/46 39/46/51 40/47/52
f 38/43/48 37/40/45 42/45/50 43/48/53
f 36/39/44 35/42/47 40/47/52 41/44/49
f 42/45/50 41/44/49 46/49/54 47/50/55
f 40/47/52 39/46/51 44/51/56 45/52/57
f 43/48/53 42/45/50 47/50/55 48/53/58
f 41/44/49 40/47/52 45/52/57 46/49/54
f 47/50/55 46/49/54 51/54/59 52/55/60
f 45/52/57 44/51/56 49/56/61 50/57/62
f 48/53/58 47/50/55 52/55/60 53/58/63
f 46/49/54 45/52/57 50/57/62 51/54/59
f 52/55/60 51/54/59 56/59/64 57/60/65
f 50/57/62 49/56/61 54/61/66 55/62/67
f 53/58/63 52/55/60 57/60/65 58/63/68
f 51/54/59 50/57/62 55/62/67 56/59/64
f 16/16/16 18/18/18 60/64/69 59/65/70
f 59/65/70 60/64/69 63/66/71 62/67/72
f 66/68/73 70/69/74 77/70/75 76/71/76
f 64/72/77 65/73/78 69/74/79 68/75/80
f 66/68/73 67/76/81 71/77/82 70/69/74
f 91/78/83 90/79/84 73/80/85 72/81/86
f 92/82/87 93/83/88 75/84/89 74/85/90
f 90/79/84 94/86/91 78/87/92 73/80/85
f 76/71/76 65/73/78 64/72/77 66/68/73
f 76/71/76 77/70/75 69/74/79 65/73/78
f 84/88/93 77/70/75 70/69/74 82/89/94
f 61/90/95 62/67/72 66/68/73 64/72/77
f 63/66/71 67/76/81 66/68/73 62/67/72
f 62/67/72 61/90/95 79/91/96 59/65/70
f 16/16/16 59/65/70 79/91/96 17/17/17
f 89/92/97 84/88/93 82/89/94 87/93/98
f 69/74/79 77/70/75 84/88/93 80/94/99
f 70/69/74 71/77/82 83/95/100 82/89/94
f 68/75/80 69/74/79 80/94/99 81/96/101
f 94/86/91 89/92/97 87/93/98 92/82/87
f 80/94/99 84/88/93 89/92/97 85/97/102
f 82/89/94 83/95/100 88/98/103 87/93/98
f 81/96/101 80/94/99 85/97/102 86/99/104
f 78/87/92 94/86/91 92/82/87 74/85/90
f 85/97/102 89/92/97 94/86/91 90/79/84
f 87/93/98 88/98/103 93/83/88 92/82/87
f 86/99/104 85/97/102 90/79/84 91/78/83
f 102/54/105 97/59/106 98/62/107 103/57/108
f 100/58/109 95/63/110 96/60/111 101/55/112
f 103/57/108 98/62/107 99/61/113 104/56/114
f 101/55/112 96/60/111 97/59/106 102/54/105
f 107/49/115 102/54/105 103/57/108 108/52/116
f 105/53/117 100/58/109 101/55/112 106/50/118
f 108/52/116 103/57/108 104/56/114 109/51/119
f 106/50/118 101/55/112 102/54/105 107/49/115
f 112/44/120 107/49/115 108/52/116 113/47/121
f 110/48/122 105/53/117 106/50/118 111/45/123
f 113/47/121 108/52/116 109/51/119 114/46/124
f 111/45/123 106/50/118 107/49/115 112/44/120
f 117/39/125 112/44/120 113/47/121 118/42/126
f 115/43/127 110/48/122 111/45/123 116/40/128
f 118/42/126 113/47/121 114/46/124 119/41/129
f 116/40/128 111/45/123 112/44/120 117/39/125
f 122/38/130 117/39/125 118/42/126 123/35/131
f 120/37/132 115/43/127 116/40/128 121/36/133
f 123/35/131 118/42/126 119/41/129 124/34/134
f 121/36/133 116/40/128 117/39/125 122/38/130
f 126/29/135 121/36/133 122/38/130 127/32/136
f 127/32/136 122/38/130 123/35/131 128/31/137
f 125/30/138 120/37/132 121/36/133 126/29/135
f 128/31/137 123/35/131 124/34/134 129/33/139
f 133/25/140 128/31/137 129/33/139 134/27/141
f 131/21/142 126/29/135 127/32/136 132/24/143
f 132/24/143 127/32/136 128/31/137 133/25/140
f 130/20/144 125/30/138 126/29/135 131/21/142
f 138/26/145 139/28/146 134/27/147 133/25/148
f 136/22/149 137/23/150 132/24/151 131/21/152
f 137/23/150 138/26/145 133/25/148 132/24/151
f 135/19/153 136/22/149 131/21/152 130/20/154
