# This file uses centimeters as units for non-parametric coordinates.

mtllib TentaclePlank.mtl
g default
v -3.940980 -0.045635 0.400359
v -3.936199 0.048985 0.500000
v -4.030830 0.053524 0.400359
v -1.902860 -0.045635 0.405329
v -1.898463 0.048933 0.500000
v -4.030830 0.053524 -0.400359
v -3.936199 0.048985 -0.500000
v -3.940980 -0.045635 -0.400359
v -1.898463 0.048933 -0.500000
v -1.902860 -0.045635 -0.405329
v -1.528003 25.402592 0.405381
v -1.433957 25.392132 0.500000
v 3.946001 -0.045635 0.405381
v 4.030881 0.053502 0.400386
v 3.936250 0.048985 0.500000
v 1.442224 25.436395 0.500000
v 1.537254 25.436849 0.405381
v 1.433384 25.531012 0.405381
v 1.433384 25.531012 -0.405381
v 1.536833 25.441140 -0.409692
v 1.442224 25.436395 -0.500000
v -1.433957 25.392132 -0.500000
v -1.528003 25.402592 -0.405381
v 3.936250 0.048985 -0.500000
v 4.031370 0.048532 -0.405381
v 3.946001 -0.045635 -0.405381
v -0.826640 25.307972 0.500000
v -0.719587 25.402592 0.405381
v 0.077835 25.402592 0.405381
v 0.177486 25.307972 0.500000
v -0.719587 25.402592 -0.405381
v -0.826640 25.307972 -0.500000
v 0.177486 25.307972 -0.500000
v 0.077835 25.402592 -0.405381
v 0.205351 0.048984 -0.500000
v 0.205826 -0.045635 -0.405380
v 0.205826 -0.045635 0.405380
v 0.205351 0.048984 0.500000
v 0.734900 25.436395 0.500000
v 0.822151 25.531012 0.405381
v 0.822151 25.531012 -0.405381
v 0.734900 25.436395 -0.500000
v 2.169081 0.048919 -0.500000
v 2.174079 -0.045635 -0.405315
v 2.174079 -0.045635 0.405315
v 2.169081 0.048919 0.500000
v -1.501820 25.614134 0.410706
v -1.407222 25.608128 0.500000
v -1.401558 25.702748 0.410706
v -0.783463 25.702748 0.398972
v -0.789488 25.608128 0.500000
v -0.694845 25.602491 0.398972
v -0.777054 25.702748 -0.405381
v -0.694845 25.602491 -0.398972
v -0.789488 25.608128 -0.500000
v -1.401558 25.702748 -0.410706
v -1.407222 25.608128 -0.500000
v -1.501820 25.614134 -0.410706
v 0.064455 25.660780 0.402833
v 0.159076 25.663195 0.500000
v 0.156594 25.757815 0.402833
v 0.712732 25.757815 0.408990
v 0.716491 25.663195 0.500000
v 0.811105 25.667105 0.408990
v 0.709122 25.757815 -0.405381
v 0.811105 25.667105 -0.408990
v 0.716491 25.663195 -0.500000
v 0.156594 25.757815 -0.402833
v 0.159076 25.663195 -0.500000
v 0.064455 25.660780 -0.402833
vt 0.484094 0.469391
vt 0.134817 0.021806
vt 0.496803 0.467535
vt 0.483352 0.501628
vt 0.136997 0.021913
vt 0.169196 0.020623
vt 0.202620 0.020909
vt 0.505169 0.064614
vt 0.434653 0.012923
vt 0.492345 0.064350
vt 0.481448 0.594146
vt 0.261618 0.024190
vt 0.233774 0.021938
vt 0.481485 0.596212
vt 0.472314 0.999641
vt 0.341864 0.412620
vt 0.485205 1.000000
vt 0.307903 0.010611
vt 0.310033 0.010766
vt 0.494273 0.594410
vt 0.505323 0.061244
vt 0.170032 0.424671
vt 0.178971 0.425618
vt 0.492797 0.046970
vt 0.376563 0.415558
vt 0.378476 0.414918
vt 0.387450 0.414267
vt 0.505366 0.059127
vt 0.505835 0.027305
vt 0.195674 0.427055
vt 0.203737 0.426805
vt 0.493226 0.014046
vt 0.351805 0.415751
vt 0.353694 0.415209
vt 0.361733 0.415750
vt 0.505872 0.025188
vt 0.179504 0.420751
vt 0.169657 0.426701
vt 0.492760 0.049086
vt 0.378270 0.417003
vt 0.387703 0.411037
vt 0.378118 0.410026
vt 0.435230 0.010846
vt 0.496175 0.501892
vt 0.492977 0.031167
vt 0.505578 0.044010
vt 0.402521 0.010509
vt 0.495490 0.535247
vt 0.493507 0.002218
vt 0.506149 0.012129
vt 0.337943 0.009546
vt 0.342260 0.410618
vt 0.482026 0.566118
vt 0.215317 0.422585
vt 0.195470 0.429145
vt 0.493186 0.016162
vt 0.353472 0.417333
vt 0.369110 0.009624
vt 0.362261 0.410001
vt 0.482665 0.534984
vt 0.494849 0.566381
vt 0.204134 0.423359
vt 0.169888 0.421434
vt 0.492753 0.043782
vt 0.492330 0.060976
vt 0.195351 0.421294
vt 0.493324 0.011887
vt 0.353411 0.411757
vt 0.505802 0.031395
vt 0.493090 0.027078
vt 0.361862 0.417845
vt 0.506068 0.016448
vt 0.506166 0.014290
vt 0.203926 0.428892
vt 0.205612 0.427403
vt 0.493127 0.024962
vt 0.363628 0.416377
vt 0.193758 0.427614
vt 0.387760 0.416305
vt 0.505485 0.049247
vt 0.505420 0.047194
vt 0.179025 0.427771
vt 0.180845 0.426345
vt 0.492373 0.058860
vt 0.389393 0.414669
vt 0.168077 0.425010
vt 0.351536 0.413690
vt 0.205948 0.425352
vt 0.202671 0.018786
vt 0.234049 0.019825
vt 0.337746 0.007424
vt 0.369135 0.007500
vt 0.364031 0.412138
vt 0.376311 0.412153
vt 0.193506 0.423366
vt 0.181232 0.422943
vt 0.309475 0.008730
vt 0.389807 0.411312
vt 0.506442 0.000294
vt 0.340204 0.410850
vt 0.494232 0.596420
vt 0.506332 0.002461
vt 0.217417 0.422835
vt 0.493549 0.000000
vt 0.215657 0.424595
vt 0.263800 0.024182
vt 0.262261 0.022179
vt 0.167777 0.421636
vt 0.402778 0.008394
vt 0.496760 0.469651
vt 0.436836 0.012892
vt 0.169013 0.018500
vt 0.484137 0.467274
vt 0.136493 0.019817
vn -0.741031 -0.671471 0.000000
vn -0.741031 -0.671471 0.000000
vn -0.741031 -0.671471 0.000000
vn -0.741031 -0.671471 0.000000
vn -0.000860 -0.716468 0.697619
vn -0.000860 -0.716468 0.697619
vn -0.000431 -0.711908 0.702272
vn -0.000421 -0.711809 0.702373
vn -0.712845 0.070313 0.697788
vn -0.712845 0.070313 0.697788
vn -0.712633 0.070382 0.697997
vn -0.712758 0.070342 0.697874
vn 0.000000 -0.707326 0.706888
vn 0.000000 -0.707326 0.706888
vn -0.712845 0.070313 -0.697788
vn -0.712845 0.070313 -0.697788
vn -0.712758 0.070342 -0.697874
vn -0.712633 0.070382 -0.697997
vn -0.000860 -0.716468 -0.697619
vn -0.000860 -0.716468 -0.697619
vn -0.000421 -0.711809 -0.702373
vn -0.000431 -0.711908 -0.702272
vn 0.000000 -0.707326 -0.706888
vn 0.000000 -0.707326 -0.706888
vn -0.692565 0.076787 0.717257
vn -0.692565 0.076787 0.717257
vn 0.000000 -0.707355 0.706858
vn 0.000000 -0.707355 0.706858
vn 0.000000 -0.707355 0.706858
vn 0.000000 -0.707355 0.706858
vn 0.750472 -0.660899 0.002259
vn 0.750472 -0.660899 0.002259
vn 0.750472 -0.660899 0.002259
vn 0.750472 -0.660899 0.002259
vn 0.712830 0.069959 0.697839
vn 0.712830 0.069959 0.697839
vn 0.712830 0.069959 0.697839
vn 0.712830 0.069959 0.697839
vn 0.000000 0.707118 0.707096
vn 0.000000 0.707118 0.707096
vn 0.000000 0.707118 0.707096
vn 0.000000 0.707118 0.707096
vn 0.663885 0.747833 0.001802
vn 0.663885 0.747833 0.001802
vn 0.663885 0.747833 0.001802
vn 0.663885 0.747833 0.001802
vn 0.000000 0.707118 -0.707096
vn 0.000000 0.707118 -0.707096
vn 0.000000 0.707118 -0.707096
vn 0.000000 0.707118 -0.707096
vn 0.695568 0.068271 -0.715209
vn 0.695568 0.068271 -0.715209
vn 0.695568 0.068271 -0.715209
vn 0.695568 0.068271 -0.715209
vn -0.692566 0.076787 -0.717256
vn -0.692566 0.076787 -0.717256
vn 0.000000 -0.707355 -0.706858
vn 0.000000 -0.707355 -0.706858
vn 0.000000 -0.707355 -0.706858
vn 0.000000 -0.707355 -0.706858
vn 0.711850 -0.079165 0.697856
vn 0.711850 -0.079165 0.697856
vn 0.711850 -0.079165 0.697856
vn 0.711850 -0.079165 0.697856
vn 0.000000 0.707106 0.707107
vn 0.000000 0.707106 0.707107
vn 0.000000 0.707106 0.707107
vn 0.000000 0.707106 0.707107
vn -0.710236 -0.033887 0.703147
vn -0.710236 -0.033887 0.703147
vn -0.710237 -0.033887 0.703147
vn -0.710236 -0.033887 0.703147
vn 0.711850 -0.079165 -0.697855
vn 0.711850 -0.079165 -0.697855
vn 0.711850 -0.079165 -0.697855
vn 0.711850 -0.079165 -0.697855
vn 0.000000 0.707106 -0.707107
vn 0.000000 0.707106 -0.707107
vn 0.000000 0.707106 -0.707107
vn 0.000000 0.707106 -0.707107
vn -0.710237 -0.033887 -0.703147
vn -0.710237 -0.033887 -0.703147
vn -0.710237 -0.033887 -0.703147
vn -0.710237 -0.033887 -0.703147
vn 0.700104 0.049740 0.712306
vn 0.700104 0.049740 0.712306
vn 0.700104 0.049740 0.712306
vn 0.700104 0.049740 0.712306
vn 0.700104 0.049740 -0.712307
vn 0.700104 0.049740 -0.712307
vn 0.700104 0.049740 -0.712307
vn 0.700104 0.049740 -0.712307
vn -0.662236 0.749295 0.000000
vn -0.662236 0.749295 0.000000
vn -0.662236 0.749295 0.000000
vn -0.662236 0.749295 0.000000
vn 0.006696 0.708895 0.705283
vn 0.006696 0.708895 0.705283
vn 0.006696 0.708895 0.705282
vn 0.006696 0.708895 0.705283
vn 0.761155 0.648563 0.003044
vn 0.761155 0.648563 0.003044
vn 0.761155 0.648563 0.003044
vn 0.761155 0.648563 0.003044
vn 0.003075 0.696789 -0.717269
vn 0.003075 0.696789 -0.717269
vn 0.003075 0.696789 -0.717269
vn 0.003075 0.696789 -0.717269
vn -0.725166 0.688574 0.000000
vn -0.725166 0.688574 0.000000
vn -0.725166 0.688574 0.000000
vn -0.725166 0.688574 0.000000
vn -0.003921 0.705040 0.709157
vn -0.003921 0.705040 0.709157
vn -0.003921 0.705040 0.709157
vn -0.003921 0.705040 0.709157
vn 0.671194 0.741280 -0.001484
vn 0.671194 0.741280 -0.001484
vn 0.671194 0.741280 -0.001484
vn 0.671194 0.741280 -0.001484
vn -0.001612 0.711774 -0.702407
vn -0.001612 0.711774 -0.702407
vn -0.001612 0.711774 -0.702407
vn -0.001612 0.711774 -0.702407
vn 0.000000 0.000000 1.000000
vn 0.000000 0.000000 1.000000
vn 0.000000 0.000000 1.000000
vn 0.000000 0.000000 1.000000
vn 0.000000 1.000000 -0.000001
vn 0.000000 1.000000 -0.000001
vn 0.000000 1.000000 -0.000001
vn 0.000000 1.000000 -0.000001
vn 0.000000 0.000000 -1.000000
vn -0.000000 0.000000 -1.000000
vn -0.000000 0.000000 -1.000000
vn 0.000000 0.000000 -1.000000
vn 0.000000 -1.000000 0.000000
vn 0.000000 -1.000000 0.000000
vn 0.000000 -1.000000 0.000000
vn 0.000000 -1.000000 0.000000
vn 0.995209 0.097768 -0.000000
vn 0.995209 0.097768 -0.000000
vn 0.995209 0.097768 -0.000000
vn 0.995209 0.097768 -0.000000
vn -0.995161 0.098257 0.000000
vn -0.995161 0.098257 0.000000
vn -0.995135 0.098519 0.000000
vn -0.995135 0.098519 0.000000
vn 0.000000 1.000000 0.000000
vn 0.000000 1.000000 0.000000
vn 0.000000 1.000000 0.000000
vn 0.000000 1.000000 0.000000
vn -0.000000 0.000000 -1.000000
vn -0.000000 0.000000 -1.000000
vn 0.000000 -1.000000 0.000000
vn 0.000000 -1.000000 0.000000
vn 0.000000 0.000000 1.000000
vn 0.000000 0.000000 1.000000
vn 0.000000 1.000000 0.000000
vn 0.000000 1.000000 0.000000
vn 0.000000 1.000000 0.000000
vn 0.000000 1.000000 0.000000
vn 0.000000 0.000000 -1.000000
vn 0.000000 0.000000 -1.000000
vn 0.000000 0.000000 -1.000000
vn 0.000000 0.000000 -1.000000
vn 0.000000 -1.000000 0.000000
vn 0.000000 -1.000000 0.000000
vn 0.000000 -1.000000 0.000000
vn 0.000000 -1.000000 0.000000
vn 0.000000 0.000000 1.000000
vn 0.000000 0.000000 1.000000
vn 0.000000 0.000000 1.000000
vn 0.000000 0.000000 1.000000
vn 0.000000 1.000000 0.000000
vn 0.000000 1.000000 0.000000
vn 0.000000 1.000000 0.000000
vn 0.000000 1.000000 0.000000
vn 0.000000 0.000000 1.000000
vn 0.000000 0.000000 1.000000
vn 0.992427 -0.122834 0.000000
vn 0.992427 -0.122834 0.000000
vn 0.992427 -0.122834 0.000000
vn 0.992427 -0.122834 0.000000
vn 0.000000 0.000000 -1.000000
vn 0.000000 0.000000 -1.000000
vn -0.992427 0.122835 0.000000
vn -0.992427 0.122835 0.000000
vn 0.000000 0.000000 1.000000
vn 0.000000 0.000000 1.000000
vn 0.996722 0.080900 0.000000
vn 0.996722 0.080900 0.000000
vn 0.996722 0.080900 0.000000
vn 0.996722 0.080900 0.000000
vn 0.000000 0.000000 -1.000000
vn 0.000000 0.000000 -1.000000
vn -0.998660 -0.051754 0.000000
vn -0.998660 -0.051754 0.000000
vn -0.998660 -0.051754 0.000000
vn -0.998660 -0.051754 0.000000
vn -0.614718 -0.557014 0.558442
vn -0.614718 -0.557014 0.558442
vn -0.614718 -0.557014 0.558442
vn -0.614718 -0.557014 -0.558442
vn -0.614718 -0.557014 -0.558442
vn -0.614718 -0.557014 -0.558442
vn 0.633677 -0.513390 0.578692
vn 0.633677 -0.513390 0.578692
vn 0.633677 -0.513390 0.578691
vn 0.555891 0.613195 0.561228
vn 0.555891 0.613195 0.561228
vn 0.555891 0.613195 0.561228
vn 0.520963 0.627425 -0.578736
vn 0.520963 0.627425 -0.578736
vn 0.520963 0.627425 -0.578736
vn 0.593267 -0.537832 -0.598975
vn 0.593267 -0.537832 -0.598975
vn 0.593267 -0.537832 -0.598975
vn -0.529279 0.598859 0.601026
vn -0.529279 0.598859 0.601026
vn -0.529279 0.598859 0.601026
vn 0.623915 0.551483 0.553712
vn 0.623915 0.551483 0.553712
vn 0.623915 0.551483 0.553712
vn 0.647991 0.494308 -0.579455
vn 0.647991 0.494308 -0.579455
vn 0.647991 0.494308 -0.579455
vn -0.529279 0.598859 -0.601026
vn -0.529279 0.598859 -0.601026
vn -0.529279 0.598859 -0.601026
vn -0.597135 0.567004 0.567395
vn -0.597135 0.567004 0.567395
vn -0.597135 0.567004 0.567395
vn 0.545877 0.591993 0.592927
vn 0.545877 0.591993 0.592927
vn 0.545877 0.591993 0.592927
vn 0.530675 0.619639 -0.578301
vn 0.530675 0.619639 -0.578301
vn 0.530675 0.619639 -0.578301
vn -0.597135 0.567004 -0.567395
vn -0.597135 0.567004 -0.567395
vn -0.597135 0.567004 -0.567395
s off
g pCube1
usemtl initialShadingGroup
f 1/1/1 3/113/2 6/3/3 8/110/4
s 1
f 2/5/5 1/114/6 4/112/7 5/6/8
s 2
f 3/2/9 2/5/10 12/63/11 11/108/12
s 1
f 5/6/8 4/112/7 37/89/13 38/7/14
s 3
f 7/9/15 6/111/16 23/98/17 22/41/18
s 4
f 8/43/19 7/9/20 9/47/21 10/109/22
f 10/109/22 9/47/21 35/58/23 36/92/24
s 2
f 11/108/12 12/63/11 48/22/25 47/86/26
s 1
f 13/107/27 15/12/28 46/13/29 45/90/30
s off
f 14/14/31 13/11/32 26/20/33 25/101/34
f 15/12/35 14/106/36 17/103/37 16/54/38
f 16/54/39 18/105/40 40/88/41 39/62/42
f 18/49/43 17/104/44 20/99/45 19/102/46
f 19/16/47 21/52/48 42/68/49 41/87/50
f 21/52/51 20/100/52 25/18/53 24/19/54
s 3
f 22/41/18 23/98/17 58/85/55 57/27/56
s 4
f 24/19/57 26/97/58 44/91/59 43/51/60
s off
f 27/37/61 28/96/62 52/83/63 51/23/64
f 28/96/65 27/37/66 30/66/67 29/95/68
f 29/95/69 30/66/70 60/30/71 59/78/72
f 31/94/73 32/42/74 55/26/75 54/25/76
f 32/42/77 31/94/78 34/93/79 33/59/80
f 33/59/81 34/93/82 70/77/83 69/35/84
s 4
f 36/92/24 35/58/23 43/51/60 44/91/59
s 1
f 38/7/14 37/89/13 45/90/30 46/13/29
s off
f 39/62/85 40/88/86 64/75/87 63/31/88
f 41/87/89 42/68/90 67/34/91 66/33/92
f 47/65/93 49/84/94 56/28/95 58/21/96
f 49/38/97 48/22/98 51/23/99 50/82/100
f 50/39/101 52/24/102 54/81/103 53/80/104
f 53/40/105 55/26/106 57/27/107 56/79/108
f 59/70/109 61/76/110 68/36/111 70/29/112
f 61/55/113 60/30/114 63/31/115 62/74/116
f 62/56/117 64/32/118 66/73/119 65/72/120
f 65/57/121 67/34/122 69/35/123 68/71/124
s 5
f 2/5/125 5/6/126 27/37/127 12/63/128
s off
f 49/84/129 50/39/130 53/80/131 56/28/132
s 6
f 22/41/133 32/42/134 9/47/135 7/9/136
s 7
f 8/110/137 10/44/138 4/4/139 1/1/140
s off
f 14/14/141 25/101/142 20/17/143 17/15/144
s 8
f 6/3/145 3/113/146 11/10/147 23/8/148
s off
f 28/64/149 29/45/150 34/69/151 31/46/152
s 6
f 9/47/135 32/42/134 33/59/153 35/58/154
s 7
f 4/4/139 10/44/138 36/48/155 37/60/156
s 5
f 27/37/127 5/6/126 38/7/157 30/66/158
s off
f 40/67/159 18/49/160 19/102/161 41/50/162
s 6
f 43/51/163 42/68/164 21/52/165 24/19/166
s 7
f 45/53/167 44/61/168 26/20/169 13/11/170
s 5
f 39/62/171 46/13/172 15/12/173 16/54/174
s off
f 61/76/175 62/56/176 65/72/177 68/36/178
s 6
f 35/58/154 33/59/153 42/68/164 43/51/163
s 7
f 37/60/156 36/48/155 44/61/168 45/53/167
s 5
f 30/66/158 38/7/157 46/13/172 39/62/171
f 12/63/128 27/37/127 51/23/179 48/22/180
s off
f 28/64/181 31/46/182 54/81/183 52/24/184
s 6
f 32/42/134 22/41/133 57/27/185 55/26/186
s 8
f 23/8/148 11/10/147 47/65/187 58/21/188
s 5
f 30/66/158 39/62/171 63/31/189 60/30/190
s off
f 40/67/191 41/50/192 66/73/193 64/32/194
s 6
f 42/68/164 33/59/153 69/35/195 67/34/196
s off
f 34/69/197 29/45/198 59/70/199 70/29/200
f 1/114/201 2/5/202 3/2/203
f 6/111/204 7/9/205 8/43/206
f 13/107/207 14/106/208 15/12/209
f 16/54/210 17/103/211 18/105/212
f 19/16/213 20/100/214 21/52/215
f 24/19/216 25/18/217 26/97/218
f 47/86/219 48/22/220 49/38/221
f 50/82/222 51/23/223 52/83/224
f 53/40/225 54/25/226 55/26/227
f 56/79/228 57/27/229 58/85/230
f 59/78/231 60/30/232 61/55/233
f 62/74/234 63/31/235 64/75/236
f 65/57/237 66/33/238 67/34/239
f 68/71/240 69/35/241 70/77/242
