# This file uses centimeters as units for non-parametric coordinates.

g default
v -11.057776 1.291120 15.851950
v -6.633698 1.291120 15.293915
v -2.203599 1.291120 14.741539
v 2.203599 1.291120 14.741539
v 6.584433 1.291120 14.980527
v 10.972197 1.291120 15.212070
v -11.057776 1.379614 15.851950
v -6.633698 1.379614 15.293915
v -2.203599 1.379614 14.741539
v 2.203599 1.379614 14.741539
v 6.584433 1.379614 14.980527
v 10.972197 1.379614 15.212070
v -11.325745 1.379614 10.376641
v -6.857642 1.379614 10.178045
v -2.323022 1.379614 9.967914
v 2.067476 1.379614 9.967914
v 6.326622 1.379614 10.074169
v 10.663705 1.379614 10.141379
v -11.658785 1.379614 5.070689
v -7.152783 1.379614 5.070689
v -2.604316 1.379614 5.070689
v 1.759495 1.379614 5.070689
v 5.986847 1.379614 5.070689
v 10.280297 1.379614 5.070689
v -11.806858 1.379614 -0.000001
v -7.285934 1.379614 -0.000001
v -2.752145 1.379614 -0.000001
v 1.598649 1.379614 -0.000001
v 5.828313 1.379614 -0.000001
v 10.109832 1.379614 -0.000001
v -11.658785 1.379614 -5.070691
v -7.152783 1.379614 -5.070691
v -2.604316 1.379614 -5.070691
v 1.759495 1.379614 -5.070691
v 5.986847 1.379614 -5.070691
v 10.280297 1.379614 -5.070691
v -11.325745 1.379614 -10.141381
v -6.857642 1.379614 -10.051134
v -2.323022 1.379614 -9.814448
v 2.067476 1.379614 -10.025128
v 6.326622 1.379614 -10.211399
v 10.663705 1.379614 -10.392524
v -11.057776 1.379614 -15.212070
v -6.633698 1.379614 -14.783440
v -2.203599 1.379614 -14.325250
v 2.203599 1.379614 -14.779764
v 6.584433 1.379614 -15.547821
v 10.972197 1.379614 -15.895887
v -11.057776 1.291120 -15.212070
v -6.633698 1.291120 -14.783440
v -2.203599 1.291120 -14.325250
v 2.203599 1.291120 -14.779764
v 6.584433 1.291120 -15.547821
v 10.972197 1.291120 -15.895887
v -11.325745 1.291120 -10.141379
v 10.663705 1.291120 -10.392522
v -11.658785 1.291120 -5.070689
v 10.280297 1.291120 -5.070689
v -11.806858 1.291120 0.000001
v 10.109832 1.291120 0.000001
v -11.658785 1.291120 5.070691
v 10.280297 1.291120 5.070691
v -11.325745 1.291120 10.376643
v 10.663705 1.291120 10.141381
vt 0.924882 0.002305
vt 0.938636 0.013206
vt 0.938816 0.008397
vt 0.939005 0.004745
vt 0.939137 0.002944
vt 0.939147 0.002468
vt 0.001875 0.637489
vt 0.017135 0.510014
vt 0.022542 0.382139
vt 0.023360 0.254937
vt 0.017410 0.128545
vt 0.939148 0.002469
vt 0.925980 0.248639
vt 0.164540 0.516713
vt 0.171191 0.386260
vt 0.171986 0.259776
vt 0.169823 0.137012
vt 0.939002 0.003103
vt 0.921338 0.392757
vt 0.311214 0.525953
vt 0.312075 0.395231
vt 0.312998 0.269646
vt 0.313928 0.147894
vt 0.938659 0.004312
vt 0.920399 0.471786
vt 0.456775 0.530912
vt 0.457884 0.400618
vt 0.458932 0.275434
vt 0.459956 0.153653
vt 0.938125 0.006735
vt 0.885498 0.986886
vt 0.602483 0.528499
vt 0.603788 0.397689
vt 0.604942 0.272088
vt 0.606034 0.150349
vt 0.937396 0.009862
vt 0.891959 0.816123
vt 0.745833 0.521584
vt 0.740417 0.390950
vt 0.747726 0.264544
vt 0.754208 0.141878
vt 0.936492 0.014055
vt 0.892868 0.644542
vt 0.935214 0.031442
vt 0.934323 0.028403
vt 0.934738 0.025092
vt 0.935320 0.021561
vt 0.935730 0.018045
vt 0.895651 0.644452
vt 0.935154 0.031445
vt 0.934966 0.028404
vt 0.935023 0.025089
vt 0.935249 0.021555
vt 0.935663 0.018035
vt 0.936428 0.014042
vt 0.937337 0.010201
vt 0.938076 0.007077
vt 0.938624 0.004658
vt 0.938983 0.003099
vt 0.895036 0.816185
vt 0.888664 0.998008
vt 0.919510 0.482836
vt 0.919344 0.403712
vt 0.922690 0.248582
vt 0.760531 0.016946
vt 0.919236 0.009446
vt 0.746821 0.650175
vt 0.607103 0.011993
vt 0.601075 0.646918
vt 0.461000 0.015638
vt 0.455603 0.649612
vt 0.314930 0.009498
vt 0.310402 0.644146
vt 0.168833 0.011976
vt 0.158616 0.644899
vt 0.022695 0.001992
vt 0.938356 0.018246
vt 0.908082 0.135832
vt 0.899473 0.261923
vt 0.899810 0.388861
vt 0.939379 0.002942
vt 0.939215 0.004742
vt 0.938997 0.008394
vt 0.938538 0.013202
vt 0.882267 0.516738
vt 0.884815 0.516522
vt 0.938456 0.018249
vt 0.929647 0.002305
vt 0.926849 0.505731
vt 0.927248 0.494616
vn 0.125144 0.000000 0.992139
vn 0.124436 0.000000 0.992228
vn 0.124436 0.000000 0.992228
vn 0.125144 0.000000 0.992139
vn 0.062383 0.000000 0.998052
vn 0.062383 0.000000 0.998052
vn 0.000000 0.000000 1.000000
vn 0.000000 0.000000 1.000000
vn -0.052697 0.000000 0.998611
vn -0.052697 0.000000 0.998611
vn -0.052697 0.000000 0.998611
vn -0.052697 0.000000 0.998611
vn 0.000000 1.000000 0.000000
vn 0.000000 1.000000 0.000000
vn 0.000000 1.000000 0.000000
vn 0.000000 1.000000 0.000000
vn 0.000000 1.000000 -0.000000
vn 0.000000 1.000000 -0.000000
vn 0.000000 1.000000 -0.000000
vn 0.000000 1.000000 -0.000000
vn 0.000000 1.000000 -0.000000
vn 0.000000 1.000000 -0.000000
vn 0.000000 1.000000 -0.000000
vn 0.000000 1.000000 -0.000000
vn 0.000000 1.000000 0.000000
vn 0.000000 1.000000 0.000000
vn 0.000000 1.000000 0.000000
vn 0.000000 1.000000 -0.000000
vn 0.000000 1.000000 -0.000000
vn 0.000000 1.000000 -0.000000
vn 0.000000 1.000000 0.000000
vn 0.000000 1.000000 0.000000
vn 0.000000 1.000000 -0.000000
vn 0.000000 1.000000 -0.000000
vn 0.000000 1.000000 -0.000000
vn 0.000000 1.000000 0.000000
vn 0.000000 1.000000 -0.000000
vn 0.000000 1.000000 -0.000000
vn 0.000000 1.000000 -0.000000
vn 0.000000 1.000000 0.000000
vn 0.000000 1.000000 0.000000
vn 0.000000 1.000000 0.000000
vn 0.000000 1.000000 -0.000000
vn 0.000000 1.000000 -0.000000
vn 0.000000 1.000000 0.000000
vn 0.000000 1.000000 0.000000
vn 0.000000 1.000000 0.000000
vn 0.000000 1.000000 0.000000
vn 0.000000 1.000000 -0.000000
vn 0.000000 1.000000 -0.000000
vn 0.000000 1.000000 0.000000
vn 0.000000 1.000000 0.000000
vn 0.000000 1.000000 0.000000
vn 0.000000 1.000000 0.000000
vn 0.096434 0.000000 -0.995339
vn 0.099660 0.000000 -0.995022
vn 0.099660 0.000000 -0.995022
vn 0.096434 0.000000 -0.995339
vn 0.000416 0.000000 -1.000000
vn 0.000416 0.000000 -1.000000
vn -0.137791 0.000000 -0.990461
vn -0.137791 0.000000 -0.990461
vn -0.126268 0.000000 -0.991996
vn -0.126268 0.000000 -0.991996
vn -0.079078 0.000000 -0.996868
vn -0.079078 0.000000 -0.996868
vn 0.997964 -0.000001 0.063786
vn 0.998433 0.000005 0.055967
vn 0.998433 0.000005 0.055967
vn 0.997964 -0.000001 0.063785
vn 0.998583 0.000001 0.053220
vn 0.998583 0.000001 0.053220
vn 1.000000 0.000001 -0.000000
vn 1.000000 0.000001 0.000000
vn 0.998512 -0.000005 -0.054534
vn 0.998512 -0.000005 -0.054534
vn 0.997681 -0.000001 -0.068067
vn 0.997681 -0.000001 -0.068067
vn 0.998155 0.000000 -0.060726
vn 0.998155 0.000000 -0.060726
vn -0.998607 0.000000 -0.052773
vn -0.998249 -0.000001 -0.059159
vn -0.998249 -0.000001 -0.059159
vn -0.998607 0.000000 -0.052773
vn -0.998877 0.000000 -0.047387
vn -0.998877 0.000000 -0.047388
vn -1.000000 -0.000000 0.000000
vn -1.000000 -0.000000 -0.000000
vn -0.998927 -0.000000 0.046315
vn -0.998927 -0.000000 0.046315
vn -0.998450 0.000000 0.055659
vn -0.998450 0.000000 0.055659
vn -0.998805 -0.000003 0.048883
vn -0.998805 -0.000003 0.048883
vn -0.054472 0.000000 0.998515
vn -0.054472 0.000000 0.998515
vn -0.054472 0.000000 0.998515
vn -0.054472 0.000000 0.998515
s 1
g GeoRug
f 1/87/1 2/2/2 8/84/3 7/77/4
f 2/2/2 3/3/5 9/83/6 8/84/3
f 3/3/5 4/4/7 10/82/8 9/83/6
s off
f 5/5/9 6/6/10 12/12/11 11/81/12
s 2
f 7/7/13 8/8/14 14/14/15 13/75/16
f 8/8/14 9/9/17 15/15/18 14/14/15
f 9/9/17 10/10/19 16/16/20 15/15/18
f 10/10/19 11/11/21 17/17/22 16/16/20
f 11/11/21 12/76/23 18/74/24 17/17/22
f 13/75/16 14/14/15 20/20/25 19/73/26
f 14/14/15 15/15/18 21/21/27 20/20/25
f 15/15/18 16/16/20 22/22/28 21/21/27
f 16/16/20 17/17/22 23/23/29 22/22/28
f 17/17/22 18/74/24 24/72/30 23/23/29
f 19/73/26 20/20/25 26/26/31 25/71/32
f 20/20/25 21/21/27 27/27/33 26/26/31
f 21/21/27 22/22/28 28/28/34 27/27/33
f 22/22/28 23/23/29 29/29/35 28/28/34
f 23/23/29 24/72/30 30/70/36 29/29/35
f 25/71/32 26/26/31 32/32/37 31/69/38
f 26/26/31 27/27/33 33/33/39 32/32/37
f 27/27/33 28/28/34 34/34/40 33/33/39
f 28/28/34 29/29/35 35/35/41 34/34/40
f 29/29/35 30/70/36 36/68/42 35/35/41
f 31/69/38 32/32/37 38/38/43 37/67/44
f 32/32/37 33/33/39 39/39/45 38/38/43
f 33/33/39 34/34/40 40/40/46 39/39/45
f 34/34/40 35/35/41 41/41/47 40/40/46
f 35/35/41 36/68/42 42/65/48 41/41/47
f 37/67/44 38/38/43 44/85/49 43/43/50
f 38/38/43 39/39/45 45/80/51 44/85/49
f 39/39/45 40/40/46 46/79/52 45/80/51
f 40/40/46 41/41/47 47/78/53 46/79/52
f 41/41/47 42/65/48 48/66/54 47/78/53
s 3
f 43/43/55 44/85/56 50/86/57 49/49/58
f 44/44/56 45/45/59 51/51/60 50/50/57
f 45/45/59 46/46/61 52/52/62 51/51/60
f 46/46/61 47/47/63 53/53/64 52/52/62
f 47/47/63 48/48/65 54/54/66 53/53/64
s 4
f 56/55/67 54/54/68 48/48/69 42/42/70
f 58/56/71 56/55/67 42/42/70 36/36/72
f 60/57/73 58/56/71 36/36/72 30/30/74
f 62/58/75 60/57/73 30/30/74 24/24/76
f 64/59/77 62/58/75 24/24/76 18/18/78
f 6/6/79 64/59/77 18/18/78 12/12/80
s 5
f 49/49/81 55/60/82 37/37/83 43/43/84
f 55/60/82 57/61/85 31/31/86 37/37/83
f 57/89/85 59/62/87 25/25/88 31/90/86
f 59/62/87 61/63/89 19/19/90 25/25/88
f 61/63/89 63/64/91 13/13/92 19/19/90
f 63/64/91 1/1/93 7/88/94 13/13/92
s off
f 5/5/95 11/81/96 10/82/97 4/4/98
